<?xml version="1.0" encoding="utf-8"?>
<!-- Generator: Adobe Illustrator 18.1.1, SVG Export Plug-In . SVG Version: 6.00 Build 0)  -->
<svg version="1.1" id="Layer_1" xmlns="http://www.w3.org/2000/svg" xmlns:xlink="http://www.w3.org/1999/xlink" x="0px" y="0px"
	 viewBox="0 0 1280 1300" enable-background="new 0 0 1280 1300" xml:space="preserve">
<g>
	<g>
		<path fill="#7F7E7E" stroke="#5E5F5F" stroke-width="10" stroke-miterlimit="10" d="M710.5,998.4c26.8,14.5,102.2,36.1,117.7,42.3
			c20.7,9.3,32,14.5,50.6,24.8c15.5,9.3,26.8,16.5,37.2,28.4c14.5,16.5,16.5,36.1,20.7,76.4c2.6,25.8,3.6,52.7,3.6,105.8
			c0,9.3,0,19.6,0,14.5s-121.3,9.3-584.4-2.6"/>
		<path fill="#7F7E7E" stroke="#5E5F5F" stroke-width="10" stroke-miterlimit="10" d="M589.7,995.3c-26.8,14.5-102.2,42.3-117.7,49
			c-20.7,9.3-32,14.5-50.6,24.3c-15.5,9.3-26.8,16.5-37.2,28.4c-14.5,16.5-16.5,36.1-20.7,76.4c-2.6,25.8-4.1,52.7-4.1,105.8
			c0,9.3,0,19.6,0,14.5s121.3,9.3,584.4-2.6"/>
	</g>
	<g>
		<ellipse fill="#FCF6F9" stroke="#5E5F5F" stroke-width="10" stroke-miterlimit="10" cx="350.6" cy="631.9" rx="74.9" ry="87.8"/>
		<ellipse fill="#FCF6F9" stroke="#5E5F5F" stroke-width="10" stroke-miterlimit="10" cx="935.6" cy="621" rx="74.9" ry="87.8"/>
		<ellipse fill="#F2E1E9" cx="935.6" cy="627.7" rx="31" ry="59.4"/>
		<ellipse fill="#F2E1E9" cx="341.8" cy="642.2" rx="31" ry="59.4"/>
		<g>
			<path fill="#434649" stroke="#5E5F5F" stroke-width="10" stroke-miterlimit="10" d="M350.6,530.7c-7.7,4.1-19.6,7.7-26.8,2.6
				c-9.3-5.2-9.3-19.6-10.3-52.7c0-23.2-1-45.4-1-67.1c0-40.3,0-60.9,0-73.3c-2.6-52.7-9.3-62-2.6-88.8c4.1-20.7,9.3-19.6,12.9-42.3
				c6.2-33.6-1.5-40.3,2.6-67.1c5.2-28.4,20.7-49,29.9-62c20.7-28.4,43.9-43.9,50.1-47.5c28.4-18.1,54.2-21.7,74.9-25.8
				c26.8-4.1,57.8-9.3,91.9,2.6c37.2,14.5,52.7,40.3,78.5,32c9.3-2.6,9.3-6.2,23.2-14.5c29.4-16.5,60.9-18.1,73.3-18.1
				c36.1,1,62,15.5,77.4,24.8c27.4,15.5,51.6,29.9,56.8,54.2c2.6,12.9-1,24.3,9.3,33.6c7.7,6.2,12.9,2.6,23.2,7.7
				c19.6,9.3,14.5,29.9,35.1,52.7c15.5,17,23.2,11.4,31,25.8c6.2,12.9,5.2,23.2,2.6,51.6c-1,21.7-1,43.9-1,66.1c0,9.3,0,6.2,0,71.2
				c0,86.7,0,85.2,0,86.7c2.6,20.7,6.2,32,0,38.7c-9.3,8.8-27.4,2.6-43.9-2.6"/>
			<path fill="none" stroke="#000000" stroke-width="10" stroke-miterlimit="10" d="M575.2,203.3c-10.3,0-25.8-1-45.4-4.1
				c-25.8-4.1-51.6-7.7-80-20.7c-28.4-12.9-46.5-28.4-60.9-41.3c-40.3-35.1-63-74.9-77.4-107.4"/>
			<path fill="none" stroke="#000000" stroke-width="10" stroke-miterlimit="10" d="M602.1,255c-9.3,2.6-23.2,6.2-40.3,7.7
				c-20.7,1-33.6-2.6-64.5-6.2c-49-6.2-46.5-2.6-63-7.7c-29.9-7.7-47.5-24.3-68.1-42.3c-21.7-19.6-55.8-54.2-83.6-107.4"/>
			<path fill="#F3EDEE" stroke="#5E5F5F" stroke-width="10" stroke-miterlimit="10" d="M653.7,957.1c26.8-1,46.5-6.2,66.1-10.3
				c24.8-6.2,49-12.9,77.4-29.9c29.9-18.1,48-38.7,62-56.8c7.7-9.3,25.8-31,42.3-64.5c10.3-20.7,24.8-47.5,31-85.2
				c2.6-12.9,2.6-31,2.6-67.1c1-38.7,0-69.7,0-87.8c0-31-1.5-32-2.6-94c-1-43.9-2.6-66.1-2.6-82.6c0-45.4,0-68.1,1-80
				c2.6-28.4,6.2-46.5,0-49c-6.2-2.6-14.5,14.5-36.1,23.2c-24.3,9.3-50.1-1-55.2-2.6c-23.2-10.3-31-25.8-51.6-24.3
				c-1,0-6.2,1-15.5,2.6c-26.8,4.1-26.8,5.2-31,4.1c-18.1-1.5-24.8-12.9-32-9.3c-4.1,2.6-4.1,7.7-6.2,14.5
				c-5.2,14.5-18.1,18.1-36.1,28.4c-28.4,16.5-23.2,19.6-42.3,28.4c-23.2,11.4-43.9,15.5-56.8,16.5c-36.1,5.2-63,0-71.2-1
				c-19.6-4.1-32-10.3-54.2-19.6c-28.4-12.9-42.3-18.1-56.8-32c-18.1-16.5-25.8-33.6-29.9-31c-2.6,1-1,6.2,0,23.2
				c1.5,18.1,0,14.5,1.5,41.3c1,18.1,1,20.7,2.6,36.1c0,4.1,1,28.4,1,54.2c0,31-2.6,33.6-4.1,66.1c0,6.2,0,12.9,0,62
				c0,55.8,1,51.6,1,86.7c0,56.8,0,63.5,2.6,81.6c2.6,16.5,5.2,37.2,14.5,62c4.1,9.3,14.5,36.1,37.2,67.1
				c18.1,23.2,33.6,36.1,57.8,54.2c29.9,23.2,47.5,37.2,74.9,50.6C559.7,940.1,600,959.7,653.7,957.1z"/>
		</g>
		<circle fill="#F2E1E9" cx="815.3" cy="622.6" r="40.3"/>
		<circle fill="#F2E1E9" cx="482.3" cy="622.6" r="40.3"/>
		<g>
			<g>
				<path fill="#F1E0E8" d="M619.1,668c18.1,0,37.7,0,55.8,0c33.6,0,33.6-51.6,0-51.6c-18.1,0-37.2,0-55.8,0
					C586.6,616.4,586.6,668,619.1,668L619.1,668z"/>
			</g>
		</g>
		<path fill="none" stroke="#5E5F5F" stroke-width="10" stroke-miterlimit="10" d="M590.7,448.1c0,10.3-1,24.8-1,41.3
			c0,10.3-1,23.2-1,66.1c-1,59.4-1,66.1,2.6,76.4c4.1,9.3,12.9,31,36.1,40.3c26.8,10.3,51.6-4.1,52.7-5.2c1,0,20.7-12.9,26.8-37.2
			c1.5-4.1,1.5-5.2,1.5-33.6c0-26.8,0-10.3,0-37.2c0-15.5,0-28.4,0-46.5s0-40.3-1.5-66.1"/>
		<g>
			<g>
				<path fill="#434649" d="M813.7,547.7c29.4,0,29.4-45.4,0-45.4C784.3,502.8,784.3,547.7,813.7,547.7L813.7,547.7z"/>
			</g>
		</g>
		<g>
			<g>
				<path fill="#434649" d="M477.1,545.1c29.9,0,29.9-45.4,0-45.4S447.2,545.1,477.1,545.1L477.1,545.1z"/>
			</g>
		</g>
		<g>
			<g>
				<path fill="#434649" d="M772.9,449.6c26.8-9.3,54.2-11.4,81.1-7.7c16.5,2.6,23.2-23.2,6.2-24.3c-32-5.2-64.5-2.6-95.5,7.7
					C749.7,429,756.9,454.8,772.9,449.6L772.9,449.6z"/>
			</g>
		</g>
		<g>
			<g>
				<path fill="#434649" d="M447.2,447c24.8-5.2,47.5-10.3,72.3-1c15.5,6.2,21.7-19.6,6.2-24.8c-28.4-10.3-56.8-5.2-85.2,1
					C425.5,425.3,431.7,451.2,447.2,447L447.2,447z"/>
			</g>
		</g>
		<g opacity="0.5">
			<g>
				<g>
					<path fill="#5E5F5F" d="M388.3,751.6c0-51.6,0-101.7,0-153.3c0-4.1-6.2-4.1-6.2,0c0,51.6,0,101.7,0,153.3
						C381.6,756.8,388.3,756.8,388.3,751.6L388.3,751.6z"/>
				</g>
			</g>
			<g>
				<g>
					<path fill="#5E5F5F" d="M411,812.6c0-54.2,0-107.4,0-161.1c0-4.1-6.2-4.1-6.2,0c0,54.2,0,106.9,0,161.1
						C404.8,816.2,411,816.2,411,812.6L411,812.6z"/>
				</g>
			</g>
			<g>
				<g>
					<path fill="#5E5F5F" d="M452.3,844.6c0-41.3,0-81.6,0-122.9c0-4.1-6.2-4.1-6.2,0c0,41.3,0,81.1,0,122.9
						C446.1,848.7,452.3,848.7,452.3,844.6L452.3,844.6z"/>
				</g>
			</g>
			<g>
				<g>
					<path fill="#5E5F5F" d="M473,861.1c0-42.3,0-86.7,0-129.1c0-3.6-6.2-3.6-6.2,0c0,42.3,0,86.7,0,129.1
						C466.8,865.2,473,865.2,473,861.1L473,861.1z"/>
				</g>
			</g>
			<g>
				<g>
					<path fill="#5E5F5F" d="M510.7,892.1c0-47.5,0-95.5,0-143.5c0-4.1-6.2-4.1-6.2,0c0,47.5,0,95.5,0,143.5
						C504,896.2,510.7,896.2,510.7,892.1L510.7,892.1z"/>
				</g>
			</g>
			<g>
				<g>
					<path fill="#5E5F5F" d="M549.4,914.3c0-57.8,0-117.7,0-175.5c0-3.6-6.2-3.6-6.2,0c0,57.8,0,117.7,0,175.5
						C543.2,917.9,549.4,917.9,549.4,914.3L549.4,914.3z"/>
				</g>
			</g>
			<g>
				<g>
					<path fill="#5E5F5F" d="M564.9,924.6c0-73.3,0-145.6,0-219.4c0-3.6-6.2-3.6-6.2,0c0,73.8,0,145.6,0,219.4
						C558.7,928.7,564.9,928.7,564.9,924.6L564.9,924.6z"/>
				</g>
			</g>
			<g>
				<g>
					<path fill="#5E5F5F" d="M588.1,933.9c0-80,0-160,0-241.6c0-3.6-6.2-3.6-6.2,0c0,80,0,160,0,241.6
						C581.4,937.5,588.1,937.5,588.1,933.9L588.1,933.9z"/>
				</g>
			</g>
			<g>
				<g>
					<path fill="#5E5F5F" d="M625.8,934.9c0-78.5,0-157.5,0-236.5c0-3.6-6.2-3.6-6.2,0c0,79,0,157.5,0,236.5
						C619.1,938.5,625.8,938.5,625.8,934.9L625.8,934.9z"/>
				</g>
			</g>
			<g>
				<g>
					<path fill="#5E5F5F" d="M642.3,941.6c0-81.6,0-162.6,0-242.7c0-3.6-6.2-3.6-6.2,0c0,81.6,0,162.6,0,242.7
						C636.1,945.2,642.3,945.2,642.3,941.6L642.3,941.6z"/>
				</g>
			</g>
			<g>
				<g>
					<path fill="#5E5F5F" d="M683.6,934.9c0-81.6,0-162.6,0-243.7c0-3.6-6.2-3.6-6.2,0c0,81.6,0,162.6,0,243.7
						C675.9,938.5,683.6,938.5,683.6,934.9L683.6,934.9z"/>
				</g>
			</g>
			<g>
				<g>
					<path fill="#5E5F5F" d="M705.3,933.9c0-79,0-157.5,0-234.9c0-3.6-6.2-3.6-6.2,0c0,78.5,0,157.5,0,234.9
						C699.1,937.5,705.3,937.5,705.3,933.9L705.3,933.9z"/>
				</g>
			</g>
			<g>
				<g>
					<path fill="#5E5F5F" d="M739.4,928.7c0-77.4,0-154.9,0-232.3c0-4.1-6.2-4.1-6.2,0c0,77.4,0,154.9,0,232.3
						C732.7,932.3,739.4,932.3,739.4,928.7L739.4,928.7z"/>
				</g>
			</g>
			<g>
				<g>
					<path fill="#5E5F5F" d="M777.6,916.8c0-59.4,0-119.8,0-179.7c0-3.6-6.2-3.6-6.2,0c0,59.4,0,119.8,0,179.7
						C771.4,921,777.6,921,777.6,916.8L777.6,916.8z"/>
				</g>
			</g>
			<g>
				<g>
					<path fill="#5E5F5F" d="M794.6,901.4c0-45.4,0-91.9,0-136.8c0-3.6-6.2-3.6-6.2,0c0,45.4,0,91.9,0,136.8
						C787.9,905.5,794.6,905.5,794.6,901.4L794.6,901.4z"/>
				</g>
			</g>
			<g>
				<g>
					<path fill="#5E5F5F" d="M822,882.3c0-46.5,0-91.9,0-138.4c0-3.6-6.2-3.6-6.2,0c0,46.5,0,91.9,0,138.4
						C815.3,885.9,822,885.9,822,882.3L822,882.3z"/>
				</g>
			</g>
			<g>
				<g>
					<path fill="#5E5F5F" d="M854,851.3c0-42.3,0-86.7,0-129.1c0-4.1-6.2-4.1-6.2,0c0,42.3,0,86.7,0,129.1
						C847.8,854.9,854,854.9,854,851.3L854,851.3z"/>
				</g>
			</g>
			<g>
				<g>
					<path fill="#5E5F5F" d="M882.4,812.6c0-50.6,0-100.7,0-152.3c0-3.6-6.2-3.6-6.2,0c0,50.6,0,100.7,0,152.3
						C876.2,816.2,882.4,816.2,882.4,812.6L882.4,812.6z"/>
				</g>
			</g>
			<g>
				<g>
					<path fill="#5E5F5F" d="M916,764.5c0-54.2,0-108.4,0-162.6c0-4.1-6.2-4.1-6.2,0c0,54.2,0,108.4,0,162.6
						C909.8,769.7,916,769.7,916,764.5L916,764.5z"/>
				</g>
			</g>
			<g>
				<g>
					<path fill="#5E5F5F" d="M431.7,821.3c0-51.6,0-102.2,0-153.9c0-3.6-6.2-3.6-6.2,0c0,51.6,0,102.2,0,153.9
						C425.5,826.5,431.7,826.5,431.7,821.3L431.7,821.3z"/>
				</g>
			</g>
			<g>
				<g>
					<path fill="#5E5F5F" d="M493.6,867.8c0-41.3,0-81.1,0-122.9c0-3.6-6.2-3.6-6.2,0c0,41.3,0,81.6,0,122.9
						C487.4,871.4,493.6,871.4,493.6,867.8L493.6,867.8z"/>
				</g>
			</g>
			<g>
				<g>
					<path fill="#5E5F5F" d="M528.7,903.9c0-48,0-95.5,0-143.5c0-4.1-6.2-4.1-6.2,0c0,47.5,0,95.5,0,143.5
						C522.5,908.1,528.7,908.1,528.7,903.9L528.7,903.9z"/>
				</g>
			</g>
			<g>
				<g>
					<path fill="#5E5F5F" d="M606.2,927.2c0-73.8,0-145.6,0-219.4c0-4.1-6.2-4.1-6.2,0c0,73.3,0,145.6,0,219.4
						C600,931.3,606.2,931.3,606.2,927.2L606.2,927.2z"/>
				</g>
			</g>
			<g>
				<g>
					<path fill="#5E5F5F" d="M663,936.5c0-78.5,0-157.5,0-236.5c0-3.6-6.2-3.6-6.2,0c0,79,0,157.5,0,236.5
						C656.8,940.1,663,940.1,663,936.5L663,936.5z"/>
				</g>
			</g>
			<g>
				<g>
					<path fill="#5E5F5F" d="M723.9,934.9c0-81.6,0-162.6,0-243.7c0-3.6-6.2-3.6-6.2,0c0,81.6,0,162.6,0,243.7
						C717.2,938.5,723.9,938.5,723.9,934.9L723.9,934.9z"/>
				</g>
			</g>
			<g>
				<g>
					<path fill="#5E5F5F" d="M760,922c0-77.4,0-154.9,0-232.3c0-4.1-6.2-4.1-6.2,0c0,77.4,0,154.9,0,232.3
						C753.3,926.1,760,926.1,760,922L760,922z"/>
				</g>
			</g>
			<g>
				<g>
					<path fill="#5E5F5F" d="M838.5,865.2c0-45.4,0-91.9,0-136.8c0-4.1-6.2-4.1-6.2,0c0,45.4,0,91.9,0,136.8
						C832.3,869.3,838.5,869.3,838.5,865.2L838.5,865.2z"/>
				</g>
			</g>
			<g>
				<g>
					<path fill="#5E5F5F" d="M897.9,780c0-42.3,0-86.7,0-129.1c0-4.1-6.2-4.1-6.2,0c0,42.3,0,86.7,0,129.1
						C891.2,783.6,897.9,783.6,897.9,780L897.9,780z"/>
				</g>
			</g>
			<g>
				<g>
					<path fill="#5E5F5F" d="M866.9,828c0-54.2,0-108.4,0-162.6c0-4.1-6.2-4.1-6.2,0c0,54.2,0,108.4,0,162.6
						C860.2,833.2,866.9,833.2,866.9,828L866.9,828z"/>
				</g>
			</g>
		</g>
		<path fill="none" stroke="#5E5F5F" stroke-width="10" stroke-miterlimit="10" d="M608.8,835.3c24.8,0,49,1.5,74.9,1.5"/>
		<path fill="none" stroke="#5E5F5F" stroke-width="10" stroke-miterlimit="10" d="M510.7,751.6c10.3,7.7,26.8,19.6,49,27.4
			c29.9,11.4,54.2,11.4,78.5,12.9c24.8,1,52.7,1,87.8-10.3c27.4-9.3,48-21.7,59.4-31"/>
	</g>
</g>
<path fill="#FFFFFF" stroke="#5E5F5F" stroke-width="10" stroke-miterlimit="10" d="M641.8,1292.2c1-14.5,1-25.8,1-33.6
	c-1-31-5.2-42.3,1-59.4c4.1-11.4,6.2-7.7,14.5-23.2c14.5-28.4,6.2-40.3,19.6-67.1c7.7-14.5,18.1-26.8,18.1-26.8s-10.3,16.5-29.4,31
	c-6.2,2.6-12.9,2.6-24.8,1c-14.5-1-25.8-1-35.1-7.7c-12.9-9.3-12.9-29.9-12.9-29.9c-1,0,11.4,49,11.4,49
	c5.2,15.5,9.3,36.1,16.5,50.6c1,2.6,5.2,9.3,12.9,16.5c2.6,2.6,5.2,5.2,7.7,6.2"/>
<path fill="#FFFFFF" stroke="#5E5F5F" stroke-width="10" stroke-miterlimit="10" d="M628.9,1194.1c-5.2-1-19.6-6.2-33.6-16.5
	c-10.3-7.7-19.6-19.6-35.1-41.3c-15.5-22.2-21.7-32-26.8-42.3c-12.9-32-16.5-42.3-16.5-42.3c-2.6-6.2-4.1-12.9-10.3-18.1
	c-7.7-6.2-14.5-3.6-16.5-10.3c-5.2-7.7,6.2-23.2,8.8-24.8c5.2-7.7,14.5-12.9,36.1-23.2c23.2-9.3,36.1-14.5,54.2-15.5
	c15.5-1,10.3,1,49,2.6c2.6,0,18.1,0,47.5,0c18.1,0,18.1,0,18.1,0c15.5,0,35.1,1.5,56.8,9.3c15.5,5.2,28.4,10.3,37.2,23.2
	c3.6,5.2,2.6,12.9,9.3,23.2c2.6,5.2,5.2,7.7,4.1,10.3c-1.5,5.2-7.7,7.7-14.5,12.9c-6.2,5.2-7.7,10.3-14.5,23.2
	c0,0-9.3,19.6-18.1,37.2c-3.6,7.7-14.5,25.8-31,45.4c-10.3,11.4-19.6,19.6-28.4,28.4c-18.1,15.5-25.8,19.6-28.4,20.7
	c-5.2,2.6-15.5,6.2-28.4,5.2C640.3,1197.7,635.1,1195.7,628.9,1194.1z"/>
<path fill="none" stroke="#5E5F5F" stroke-width="10" stroke-miterlimit="10" d="M510.2,1028.9c5.2-1,11.4-3.6,20.7-7.7
	c6.2-2.6,7.7-4.1,18.1-9.3c4.1-1,4.1-1,20.7-9.3c14.5-6.2,16.5-6.2,18.1-5.2c4.1,2.6,1.5,9.3,1.5,20.7c0,6.2,1,15.5,2.6,33.6
	c2.6,24.3,5.2,28.4,6.2,31c5.2,7.7,12.9,12.9,19.6,15.5c10.3,5.2,24.8,14.5,42.9,10.3c21.7-5.2,32-23.2,35.1-26.8
	c2.6-3.6,0-1,10.3-35.1c6.2-20.7,7.7-25.8,6.2-36.1c-1.5-5.2-2.6-9.3-1.5-11.4c2.6-2.6,10.3,1.5,20.7,7.7c0,0,14.5,6.2,35.1,14.5
	c9.3,2.6,20.7,6.2,37.2,7.7"/>
<path fill="#7F7E7E" stroke="#5E5F5F" stroke-width="10" stroke-miterlimit="10" d="M507.6,1033c-5.2,0-10.3-1-12.9-5.2
	c-5.2-5.2-4.1-12.9-4.1-14.5c1-10.3,9.3-16.5,14.5-23.2c9.3-7.7,16.5-10.3,32-16.5c10.3-4.1,18.1-6.2,24.8-9.3
	c9.3-2.6,15.5-5.2,21.7-6.2c11.4-2.6,16.5-1,38.7,0c1,0,20.7,1.5,41.3,1.5c19.6,0,22.2,0,36.1,0c12.9,0,20.7,1,32,2.6
	c25.8,4.1,41.3,10.3,45.4,12.9c12.9,6.2,16.5,11.4,18.1,12.9c1.5,2.6,5.2,9.3,10.3,22.2c3.6,9.3,5.2,12.9,3.6,16.5
	c-1,2.6-3.6,7.7-7.7,9.3c-5.2,1-7.7-5.2-18.1-9.3c-6.2-2.6-6.2,0-15.5-2.6c-10.3-2.6-10.3-5.2-23.2-9.3c-10.3-3.6-9.3-1-18.1-5.2
	c-6.2-2.6-11.4-3.6-18.1-6.2c-2.6-1-4.1-1-5.2-1c-2.6,1,0,6.2,0,14.5c1,7.7,0,14.5,0,20.7c-1,9.3-2.6,14.5-3.6,20.7
	c-2.6,11.4-5.2,18.1-9.3,25.8c-2.6,5.2-7.7,12.9-16.5,19.6c-1.5,1-11.4,7.7-24.8,9.3c-9.3,1.5-7.7-1-29.9-3.6
	c-10.3-1-14.5-1-19.6-5.2c-5.2-3.6-6.2-9.3-9.3-12.9c-2.6-5.2-2.6-9.3-4.1-19.6c-2.6-15.5-2.6-23.2-2.6-25.8c0-6.2,0-11.4,1-24.8
	c1-11.4,1-15.5-1-18.1c-1-1.5-4.1-2.6-14.5,0c-9.3,1-14.5,5.2-28.4,10.3c-19.6,9.3-19.6,7.7-23.2,10.3
	C516.4,1027.4,514.3,1031.5,507.6,1033z"/>
<path fill="#F3EDEE" stroke="#5E5F5F" stroke-width="10" stroke-miterlimit="10" d="M591.7,958.2c-1,31-1,54.2-1,67.1
	c-1.5,32-1.5,42.3,5.2,54.2c9.3,15.5,25.8,25.8,45.4,28.4c28.4,2.6,50.6-16.5,59.4-33.6c3.6-7.7,5.2-15.5,6.2-40.3
	c1-18.1,2.6-43.9,2.6-73.3h-3.1c-37.2-1.5-74.9-1.5-112.5-2.6"/>
<g display="none">
	<path display="inline" fill="#7C957F" d="M1278.2,1525.2c4.1,2.6,4.1,6.2,7.7,7.7c6.2,2.6,12.9,0,19.6-3.6
		c6.2-2.6,9.3-6.2,19.6-12.9c3.6-2.6,7.7-5.2,14.5-9.3c14.5-9.3,18.1-10.3,26.8-14.5c12.9-6.2,10.3-7.7,31-20.7
		c12.9-9.3,23.2-14.5,28.4-18.1c19.6-11.4,22.2-10.3,37.2-20.7c14.5-9.3,14.5-10.3,26.8-18.1c14.5-9.3,14.5-6.2,28.4-14.5
		c14.5-9.3,21.7-12.9,31-22.2c6.2-6.2,7.7-10.3,14.5-15.5c6.2-5.2,7.7-5.2,9.3-9.3c2.6-6.2-1-10.3-3.6-20.7c-1-6.2,0-6.2-1-19.6
		c-1.5-9.3-2.6-14.5-4.1-26.8c-2.6-14.5-3.6-15.5-5.2-25.8c-2.6-14.5-2.6-19.6-3.6-37.2c-2.6-15.5-2.6-25.8-6.2-41.3
		c-5.2-26.8-6.2-28.4-9.3-50.1c-3.6-25.8-2.6-21.7-5.2-42.9c-4.1-24.3-7.7-28.4-6.2-40.3c0-2.6,1-7.7-1.5-14.5
		c-1-2.6-2.6-4.1-10.3-14.5c-6.2-7.7-10.3-12.9-12.9-14.5c-6.2-5.2-10.3-2.6-12.9-7.7c-2.6-4.1-2.6-6.2-2.6-14.5c0,0,0-5.2-1-23.2
		c-1-14.5-3.6-14.5-6.2-35.1c-2.6-12.9-1-11.4-2.6-21.7c-2.6-15.5-6.2-26.8-9.3-31c-6.2-18.1-15.5-32-18.1-36.1s-12.9-18.1-29.4-31
		c-12.9-10.3-23.2-16.5-35.1-23.2c-9.3-5.2-19.6-11.4-36.1-18.1c-10.3-4.1-22.2-6.2-46.5-11.4c-22.2-5.2-32-7.7-41.3-9.3
		c-18.1-2.6-31-2.6-50.6-2.6c-23.2,0-35.1,0-50.1,1c-18.1,2.6-36.1,6.2-71.2,16.5c-33.6,9.3-42.9,12.9-49,17
		c-14.5,7.7-24.3,15.5-34.6,23.2c-14.5,11.4-25.8,20.7-37.2,36.1c-12.9,18.1-19.6,33.6-21.7,40.3c-2.6,9.3-5.2,19.6-9.3,41.3
		c-2.6,15.5-4.1,23.2-5.2,31c-2.6,28.4-4.1,42.3-4.1,43.9c0,1,1.5,9.3-2.6,10.3c-2.6,1-4.1-1.5-6.2-1.5c-4.1,2.6-2.6,12.9-2.6,23.2
		c0,7.7-1.5,15.5-1.5,23.2c-1,14.5-2.6,20.7-4.1,41.3c0,1.5-2.6,17-5.2,47.5c-6.2,59.4-5.2,55.8-6.2,59.4
		c-2.6,25.8-4.1,25.8-8.8,66.1c-2.6,23.2-2.6,19.6-5.2,38.7c-2.6,18.1-1,38.7-6.2,56.8c-2.6,9.3-6.2,18.1-2.6,25.8
		c2.6,5.2,6.2,6.2,10.3,7.7c14.5,6.2,2.6,3.6,35.1,21.7c20.7,11.4,25.8,12.9,41.3,22.2c31,15.5,25.8,18.1,56.8,36.1
		c18.1,10.3,31,14.5,50.1,25.8c19.6,11.4,25.8,14.5,25.8,14.5c2.6,2.6,5.2,2.6,9.3,5.2c10.3,6.2,15.5,9.3,21.7,9.3
		c5.2,0,5.2-2.6,19.6-6.2c0,0,6.2-2.6,14.5-4.1c14.5-2.6,21.7,0,43.9,1.5c21.7,1,35.1,1,42.3-1.5
		C1261.2,1522.6,1270,1520,1278.2,1525.2z"/>
	<path display="inline" fill="#7B947E" d="M1103.7,1521c0-19.6,0-36.1-1-50.6c0-6.2-2.6-26.8-6.2-55.2c-2.6-18.1-2.6-16.5-9.3-46.5
		c-6.2-31-5.2-33.6-9.3-49c-5.2-19.6-5.2-14.5-11.4-40.3c-6.2-22.2-6.2-31-14.5-38.7c-7.7-10.3-18.1-14.5-20.7-14.5
		c-2.6-1.5-11.4-5.2-21.7-2.6c-4.1,1-14.5,2.6-29.9,16.5c-5.2,5.2-14.5,14.5-26.8,37.2c-9.3,15.5-14.5,27.4-23.2,50.6
		c-4.1,9.3-10.3,22.2-15.5,38.7c-5.2,12.9-9.3,23.2-11.4,33.6"/>
	<path display="inline" fill="none" stroke="#000000" stroke-width="0.3582" stroke-miterlimit="10" d="M1114.1,1529.3
		c0-6.2,0-16.5,1-29.4c0-22.2,1-33.6,1-40.3c0-22.2-2.6-38.7-5.2-66.1c-2.6-16.5-4.1-38.7-9.3-67.1c-4.1-22.2-6.2-36.1-12.9-55.8
		c-2.6-6.2-7.7-25.8-20.7-50.1c-11.4-24.8-18.1-38.7-33.6-53.2c-14.5-14.5-25.8-21.7-36.1-28.4c-10.3-6.7-23.2-14.5-42.3-20.7
		c-15.5-5.2-29.9-6.2-38.7-6.2"/>
	<path display="inline" fill="#303030" stroke="#000000" stroke-width="0.3582" stroke-miterlimit="10" d="M1152.8,1532.9
		c1-11.4,1-28.4,2.6-50.6c0-19.6,0-31,0-56.8c0-25.8,0-42.3,0-72.3c0-20.7,0-49,1-85.2c1-51.6,1-78.5,1-85.2c1-18.1-5.2-35.1,0-53.2
		c1-2.6,2.6-10.3-1-14.5c-2.6-2.6-10.3-1-14.5-1c-12.9,2.6-18.1-2.6-37.2-7.7c-23.2-6.2-21.7-2.6-52.7-9.3
		c-20.7-5.2-36.1-10.3-46.5-14.5c-31-10.3-21.7-10.3-38.7-14.5c-6.2-2.6-37.2-6.2-42.9-12.9c-2.6-4.1-2.6-11.4,0-14.5
		c2.6-2.6,21.7,2.6,28.4,2.6c12.9,2.6,19.6,2.6,25.8,5.2c6.2,2.6,23.2,4.1,56.8,7.7c6.2,1,21.7,2.6,62,4.1c19.6,1,42.3,2.6,73.3,2.6
		c49,1,87.8,1,102.2,1c41.3-1,62-1,88.8-4.1c32-2.6,48-5.2,60.9-6.2c15.5-2.6,32-2.6,47.5-6.2c4.1-1,31-11.4,35.1-7.7
		c2.6,2.6,2.6,7.7,1,10.3c-2.6,6.2-25.8,14.5-32,16.5c-12.9,4.1-24.8,10.3-37.2,14.5c-42.3,12.9-37.2,11.4-50.6,14.5
		c-18.1,5.2-28.4,7.7-38.7,10.3c-26.8,6.2-42.3,7.7-50.1,7.7c-7.7-1-18.1-2.6-20.7,2.6c-2.6,2.6,0,6.2,1.5,11.4c2.6,6.2,1,7.7,1,31
		c0,6.2,0,0,1,37.7c0,6.2,1,21.7,1,43.9c1.5,41.3,1.5,37.2,1.5,50.6c1,31,2.6,31,2.6,50.6c0,24.8-1,24.8-1,43.9
		c1,21.7,2.6,24.3,3.6,50.1c1.5,19.6,0,35.1,0,46.5c-1,18.1-2.6,35.1-2.6,50.1"/>
	<path display="inline" fill="none" stroke="#000000" stroke-width="0.3582" stroke-miterlimit="10" d="M1559.1,1371.3
		c-1-6.2-2.6-15.5-4.1-25.8c-2.6-14.5-2.6-23.2-5.2-41.3c-1.5-5.2,0-2.6-5.2-42.3c-5.2-43.9-5.2-43.9-6.2-51.6
		c-4.1-31-4.1-26.8-6.2-49c-4.1-33.6-2.6-33.6-6.2-59.4c-2.6-18.1-4.1-23.2-6.2-40.3c-2.6-14.5-2.6-26.8-2.6-36.1"/>
	<path display="inline" fill="none" stroke="#000000" stroke-width="0.3582" stroke-miterlimit="10" d="M1503.8,1013
		c0,6.2,0,14.5,0,21.7c0,4.1,1.5,14.5,2.6,35.1c1,20.7,2.6,21.7,5.2,36.1s1,21.7,2.6,35.1c1,21.7,2.6,28.4,6.2,60.9
		c5.2,41.3,2.6,36.1,7.7,78.5c4.1,31,6.2,38.7,9.3,67.1c2.6,18.1,2.6,33.6,3.6,43.9"/>
	<path display="inline" fill="none" stroke="#000000" stroke-width="0.3582" stroke-miterlimit="10" d="M1521.9,1403.8
		c-1-6.2-3.6-14.5-6.2-25.8c-3.6-10.3-6.2-16.5-14.5-38.7c-14.5-35.1-14.5-35.1-18.1-41.3c-2.6-5.2-7.7-14.5-19.6-35.1
		c-5.2-10.3-7.7-14.5-12.9-18.1c-10.3-10.3-19.6-12.9-21.7-14.5c-6.2-2.6-14.5-5.2-25.8-2.6c-10.3,2.6-16.5,9.3-20.7,12.9
		c-2.6,2.6-9.3,9.3-16.5,27.4c-2.6,7.7-6.2,18.1-11.4,36.1c-5.2,19.6-7.7,35.1-9.3,38.7c-4.1,22.2-4.1,26.8-7.7,59.4
		c-3.6,32-5.2,32-7.7,56.8c-2.6,14.5-3.6,36.1-5.2,62"/>
	<path display="inline" fill="none" stroke="#000000" stroke-width="0.3582" stroke-miterlimit="10" d="M1315.4,1527.8
		c0-6.2,0-14.5-1-23.2c0-22.2,1-38.7,1-51.6c1-22.2,2.6-38.7,2.6-45.4c1-14.5,2.6-32,6.2-55.8c2.6-14.5,3.6-28.4,9.3-47.5
		c5.2-22.2,6.2-33.6,14.5-49c4.1-10.3,11.4-21.7,25.8-49c16.5-29.9,20.7-35.1,25.8-38.7c7.7-6.2,16.5-11.4,36.1-21.7
		c15.5-7.7,25.8-14.5,42.3-18.1c14.5-5.2,27.4-6.2,36.1-7.7"/>
	<path display="inline" fill="none" stroke="#FFFFFF" stroke-width="0.3582" stroke-miterlimit="10" d="M1231.8,1003.7
		c-1-1,0-2.6,0-5.2s0-2.6,0-6.2c0-2.6,0-2.6,0-5.2c0-4.1-1-5.2,0-6.2c1-1,2.6,0,7.7,2.6s5.2,1,7.7,2.6c2.6,1,2.6,1,7.7,4.1
		c3.6,2.6,6.2,2.6,6.2,2.6c0,1-2.6,1-6.2,2.6c-4.1,2.6-4.1,2.6-9.3,4.1c-2.6,1-5.2,2.6-9.3,2.6
		C1232.3,1002.2,1231.8,1004.8,1231.8,1003.7z"/>
	<path display="inline" fill="none" stroke="#FFFFFF" stroke-width="0.3582" stroke-miterlimit="10" d="M1190.5,1004.8
		c0,0,0,0,0-4.1c0-2.6,0-5.2,0-6.2c0-2.6,0-2.6,0-6.2c0-2.6,0-2.6,0-4.1c0-2.6,0-2.6,0-4.1c-1-1.5-2.6,0-6.2,1
		c-3.6,1-6.2,2.6-10.3,2.6c-5.2,2.6-4.1,2.6-7.7,2.6c-4.1,1-6.2,1-6.2,2.6c0,1,2.6,2.6,6.2,4.1c6.2,2.6,9.3,4.1,10.3,4.1
		C1186.3,1004.8,1188.9,1006.3,1190.5,1004.8z"/>
	<path display="inline" fill="none" stroke="#000000" stroke-width="0.3582" stroke-miterlimit="10" d="M897.2,1009.9
		c7.7,0,14.5,0,21.7,0"/>
	<path display="inline" fill="#BCBCBC" stroke="#000000" stroke-width="0.3582" stroke-miterlimit="10" d="M912.7,594.8
		c-1-2.6-2.6-6.2-5.2-10.3c-2.6-7.7-2.6-10.3-5.2-20.7c-2.6-6.2-2.6-7.7-4.1-12.9c-2.6-7.7-2.6-11.4-1.5-14.5
		c1.5-2.6,4.1-2.6,14.5-4.1c10.3-1,18.1,0,18.1,0c14.5,1,21.7,2.6,31,2.6c15.5,2.6,28.4,5.2,31,5.2c41.3,7.7,37.2,12.9,50.6,11.4
		c0,0,14.5-1,26.8,5.2c2.6,1,5.2,2.6,5.2,5.2c1,2.6-2.6,6.2-4.1,7.7c-5.2,2.6-10.3,0-17-1c-6.2-1.5-11.4,0-24.3,2.6
		c-10.3,2.6-18.1,4.1-29.9,6.2c-4.1,1-18.1,5.2-36.1,12.9c-6.2,2.6-12.9,7.7-24.3,10.3c-4.1,1-6.2,2.6-9.3,2.6"/>
	<path display="inline" fill="none" stroke="#000000" stroke-width="0.3582" stroke-miterlimit="10" d="M929.2,595.9
		c2.6-4.1,4.1-9.3,5.2-15.5c1-2.6,2.6-9.3,2.6-25.8c0-6.2,0-14.5,0-24.3"/>
	<path display="inline" fill="#BCBCBC" stroke="#000000" stroke-width="0.3582" stroke-miterlimit="10" d="M963.3,591.7
		c2.6,2.6,4.1,5.2,6.2,7.7c2.6,5.2,2.6,6.2,5.2,7.7c2.6,2.6,6.2,1,11.4,1c2.6,0,8.8,1,21.7,2.6c12.9,2.6,15.5,2.6,18.1,1
		c2.6-2.6,2.6-2.6,6.2-7.7c2.6-2.6,4.1-4.1,7.7-6.2c2.6-2.6,2.6-2.6,10.3-10.3c6.2-6.2,7.7-6.2,11.4-11.4c2.6-2.6,5.2-5.2,6.2-6.2"
		/>
	<path display="inline" fill="#BCBCBC" stroke="#000000" stroke-width="0.3582" stroke-miterlimit="10" d="M978.8,583
		c0,1,1,2.6,2.6,4.1c2.6,2.6,6.2,1.5,10.3,1.5c6.2,0,4.1,1,14.5,1c4.1,0,7.7,0,14.5,0c7.7-1,10.3-2.6,12.9,0c2.6,1,2.6,4.1,2.6,11.4
		"/>
	<path display="inline" fill="none" stroke="#000000" stroke-width="0.3582" stroke-miterlimit="10" d="M977.2,607.7
		c1-6.2,1-14.5,2.6-20.7"/>
	<path display="inline" fill="#862809" d="M1114.1,1525.2c1,1,4.1,2.6,6.2,5.2c2.6,1,6.2,2.6,10.3,3.6c6.2,1,18.1,0,20.7-6.2
		c2.6-3.6-1-6.2-2.6-14.5c-1-9.3,0-14.5,2.6-22.2c2.6-14.5,1-21.7,0-38.7c-2.6-42.3,6.2-78.5,2.6-148.7c-1-35.1-4.1-37.2-2.6-67.1
		c1-36.1,4.1-41.3,2.6-64.5c-2.6-16.5-5.2-25.8-2.6-38.7c2.6-10.3,6.2-18.1,2.6-21.7c-2.6-2.6-7.7-2.6-15.5-2.6
		c-12.9,0-18.1-4.1-31-7.7c-14.5-4.1-15.5-2.6-38.7-6.2c-10.3-2.6-31-5.2-54.2-12.9c-28.4-10.3-25.8-14.5-42.9-16.5
		c-15.5-2.6-26.8,0-38.7-9.3c-2.6-2.6-7.7-6.2-10.3-6.2c-1,1,0,4.1,0,9.3c0,6.2,0,10.3-2.6,19.6c-1,5.2-2.6,9.3-4.1,18.1
		c-1,5.2-1,6.2,0,9.3c2.6,4.1,9.3,2.6,14.5,2.6c0,0,4.1,0,26.8,5.2c14.5,2.6,23.2,9.3,37.2,16.5c6.2,4.1,20.7,12.9,34.6,29.9
		c14.5,15.5,21.7,29.9,31,45.4c5.2,9.3,12.9,23.2,20.7,43.9c9.3,23.2,14.5,42.3,17,59.4c6.2,28.4,8.8,50.6,10.3,72.3
		c2.6,28.4,4.1,50.6,4.1,59.4c1,31,1,45.4,0,50.6C1113,1501.9,1107.9,1517.4,1114.1,1525.2z"/>
	<path display="inline" fill="#862809" d="M1312.8,1525.2c-1.5,1-4.1,2.6-6.2,5.2c-2.6,1-6.2,2.6-10.3,3.6c-6.2,1-18.1,0-20.7-6.2
		c-2.6-3.6,1-6.2,2.6-14.5c1.5-9.3,0-14.5-2.6-22.2c-2.6-14.5-1-21.7,0-38.7c2.6-42.3-6.2-78.5-2.6-148.7
		c1.5-35.1,4.1-37.2,2.6-67.1c-1-36.1-4.1-41.3-2.6-64.5c2.6-16.5,5.2-25.8,2.6-38.7c-2.6-10.3-6.2-18.1-2.6-21.7
		c2.6-2.6,7.7-2.6,15.5-2.6c12.9,0,18.1-4.1,31-7.7c14.5-4.1,15.5-2.6,38.7-6.2c10.3-2.6,31-5.2,54.2-12.9
		c28.4-10.3,25.8-14.5,42.3-16.5c15.5-2.6,25.8-2.6,37.2-11.4c2.6-2.6,10.3-4.1,11.4-2.6c1,1.5,0,4.1,0,9.3c0,6.2,0,10.3,2.6,19.6
		c1,5.2,2.6,9.3,3.6,18.1c1,5.2,1,6.2,0,9.3c-2.6,4.1-7.7,6.2-14.5,6.2c0,0-2.6,1-26.8,6.2c-14.5,2.6-22.2,10.3-36.1,16.5
		c-6.2,2.6-21.7,10.3-38.7,25.8c-14.5,15.5-21.7,29.9-31,45.4c-5.2,9.3-12.9,23.2-20.7,43.9c-9.3,23.2-14.5,42.3-16.5,59.4
		c-6.2,28.4-9.3,50.6-10.3,72.3c-2.6,28.4-3.6,50.1-3.6,59.4c-1.5,31-1.5,45.4,0,50.6C1315.4,1501.9,1319.5,1517.4,1312.8,1525.2z"
		/>
	<path display="inline" fill="#262421" d="M905,1409c-2.6,1-6.2-2.6-10.3-7.7c-4.1-4.1-6.2-6.2-7.7-11.4c-1.5-6.2,2.6-9.3,5.2-16.5
		c2.6-6.2,1.5-9.3,2.6-18.1c0-6.2,1.5-5.2,4.1-31c2.6-24.8,2.6-22.2,4.1-37.2c2.6-11.4,2.6-20.7,5.2-33.6
		c4.1-24.8,4.1-24.8,5.2-35.1c1-7.7,0-5.2,2.6-36.1c2.6-25.8,2.6-23.2,2.6-35.1c0-6.2,2.6-12.9,2.6-19.6c0-5.2-1.5-7.7,1-10.3
		c2.6-2.6,6.2-1,14.5,0c19.6,4.1,16.5,2.6,18.1,4.1c10.3,2.6,18.1,5.2,25.8,7.7c7.7,2.6,12.9,6.2,24.8,14.5
		c14.5,10.3,21.7,14.5,29.9,21.7c7.7,7.7,11.4,14.5,20.7,25.8c5.2,6.2,11.4,18.1,18.1,32c4.1,7.7,7.7,18.1,14.5,36.1
		c5.2,12.9,6.2,19.6,9.3,25.8c5.2,16.5,7.7,31,10.3,41.3c2.6,10.3,2.6,22.2,6.2,43.9c2.6,22.2,4.1,33.6,5.2,42.3
		c1,14.5,2.6,24.3,2.6,42.3c1,25.8,0,14.5,1,37.2c1,21.7,2.6,32-4.1,35.1c-2.6,2.6-9.3,0-10.3-2.6c-1.5-2.6,0-5.2,2.6-9.3
		c1.5-3.6,1.5-7.7,1.5-16.5c0-18.1-2.6-38.7-2.6-38.7c-5.2-35.1-2.6-29.9-5.2-43.9c-5.2-28.4-7.7-29.4-11.4-57.8
		c-2.6-15.5-2.6-18.1-5.2-29.4c-2.6-14.5-6.2-16.5-10.3-36.1c-6.2-21.7-5.2-23.2-9.3-33.6c-4.1-7.7-10.3-19.6-21.7-25.8
		c-14.5-6.2-28.4-4.1-31-2.6c-12.9,4.1-20.7,12.9-35.1,31c-14.5,18.1-23.2,33.6-26.8,41.3c-6.2,10.3-2.6,6.2-18.1,42.3
		c-11.4,26.8-12.9,25.8-14.5,33.6C911.7,1396.1,910.1,1408,905,1409z"/>
	<path display="inline" fill="#262421" d="M1526,1398.7c2.6,1,6.2-2.6,10.3-7.7c4.1-4.1,6.2-6.2,7.7-11.4c1.5-6.2-2.6-9.3-5.2-16.5
		c-2.6-6.2-1.5-9.3-2.6-18.1c0-6.2-1-5.2-3.6-31c-2.6-24.8-2.6-21.7-4.1-37.2c-2.6-11.4-2.6-20.7-5.2-33.6
		c-3.6-24.8-3.6-24.8-5.2-35.1c-1.5-7.7,0-5.2-2.6-36.1c-2.6-25.8-2.6-23.2-2.6-34.6c0-6.2-2.6-12.9-2.6-19.6c0-5.2,1-7.7-1-10.3
		c-2.6-2.6-6.2-1-14.5,0c-19.6,4.1-16.5,2.6-18.1,4.1c-10.3,2.6-18.1,5.2-25.8,7.7s-12.9,6.2-24.8,14.5
		c-14.5,10.3-21.7,14.5-29.4,21.7c-7.7,7.7-11.4,14.5-20.7,25.8c-5.2,6.2-11.4,18.1-18.1,32c-4.1,7.7-7.7,18.1-14.5,36.1
		c-5.2,12.9-6.2,19.6-9.3,25.8c-5.2,16.5-7.7,31-10.3,41.3s-2.6,22.2-6.2,43.9c-2.6,22.2-3.6,33.6-5.2,42.3
		c-1.5,14.5-2.6,24.3-2.6,42.3c-1,25.8,0,14.5-1,37.2c-1,21.7-2.6,32,3.6,35.1c2.6,2.6,9.3,0,10.3-2.6c1-2.6,0-5.2-2.6-9.3
		c-1-3.6-1-7.7-1-16.5c0-18.1,2.6-38.7,2.6-38.7c5.2-35.1,2.6-29.9,5.2-43.9c5.2-28.4,7.7-29.4,11.4-57.8
		c2.6-15.5,2.6-18.1,5.2-29.4c2.6-14.5,6.2-16.5,10.3-36.1c6.2-21.7,5.2-23.2,9.3-33.6c3.6-7.7,10.3-19.6,21.7-25.8
		c14.5-6.2,28.4-4.1,31-2.6c12.9,4.1,20.7,12.9,35.1,31c14.5,18.1,23.2,33.6,26.8,41.3c6.2,10.3,2.6,6.2,18.1,42.3
		c11.4,26.8,12.9,25.8,14.5,33.6C1520.9,1386.8,1521.9,1397.1,1526,1398.7z"/>
	<g display="inline">
		<path fill="#DDDDDD" stroke="#000000" stroke-width="0.3582" stroke-miterlimit="10" d="M884.3,1390.9c-5.2-2.6-10.3-4.1-12.9-5.2
			c-4.1-2.6-6.2-2.6-11.4-6.2c-7.7-3.6-9.3-5.2-9.3-6.2c-1.5-2.6,0-5.2,1-10.3c1-6.2,2.6-11.4,2.6-16.5c1-6.2,1-7.7,2.6-21.7
			c2.6-19.6,2.6-18.1,4.1-29.9c2.6-18.1,1-18.1,2.6-37.2c2.6-18.1,2.6-18.1,4.1-37.2c1-14.5,0-14.5,2.6-32c1-7.7,1-7.7,2.6-33.6
			c2.6-18.1,2.6-21.7,2.6-25.8c1.5-12.9,0-14.5,1.5-25.8c0-11.4,1-14.5,2.6-35.1c1-6.2,1-15.5,2.6-34.6c1.5-14.5,2.6-27.4,2.6-41.3
			c0-12.9-1-19.6,4.1-28.4c1.5-2.6,5.2-9.3,11.4-14.5c16.5-11.4,38.7-2.6,41.3-2.6"/>
		<path fill="#DDDDDD" stroke="#000000" stroke-width="0.3582" stroke-miterlimit="10" d="M876.6,1388.4c2.6,1,5.2,1,6.2-1.5
			c2.6-2.6,2.6-7.7,2.6-15.5c0-6.2,1-6.2,2.6-16.5c2.6-14.5,2.6-21.7,2.6-31c1-10.3,2.6-23.2,6.2-50.6c6.2-42.3,6.2-38.7,9.3-54.2
			c2.6-18.1,1-18.1,5.2-50.1c2.6-25.8,2.6-25.8,6.2-50.6c2.6-31,2.6-25.8,4.1-46.5c4.1-37.2,6.2-38.7,4.1-49
			c-1.5-2.6-4.1-10.3,0-14.5c2.6-2.6,6.2,0,10.3-2.6c5.2-2.6,2.6-14.5,2.6-20.7c-1.5-9.3-2.6-21.7,0-38.7"/>
		<path fill="#606060" stroke="#000000" stroke-width="0.3582" stroke-miterlimit="10" d="M922,1052.8c-6.2,0-10.3,0-14.5-1.5
			c-6.2-1-9.3-1-10.3-2.6c-2.6-2.6-1-5.2-1-7.7c1-6.2,0-12.9,1-18.1c1-10.3,0-10.3,0-28.4c0-12.9,1-11.4,2.6-31c1-10.3,0-9.3,1-35.1
			c1-15.5,1-15.5,1-23.2c0-14.5,0-19.6,0-31c0-9.3,1-19.6,1-40.3c1.5-20.7,1.5-21.7,2.6-50.6c1-24.8,1-35.1,2.6-43.9
			c0-12.9,0-12.9,1-23.2c1.5-18.1,1.5-21.7,2.6-43.9c2.6-33.6,2.6-50.1,2.6-51.6c-1-6.2-5.2-20.7,0-23.2c1-1,2.6-1,6.2-1
			c6.2-1,9.3-1,10.3,1c2.6,2.6,2.6,6.2,2.6,9.3c0,6.2,1,14.5,0,21.7c-1,12.9,1,10.3,0,31c0,6.2-1,14.5-2.6,31c-1,18.1-1,20.7-2.6,31
			c0,5.2-1,14.5-1,29.9c-1,27.4-1,36.1-2.6,66.1c-1,14.5-1,25.8-2.6,49c-1,29.9-2.6,35.1-2.6,51.6c-1,21.7-2.6,36.1-2.6,51.6
			c0,2.6,1,9.3,1,18.1c1,10.3,1,18.1,1,20.7c0,9.3,1,21.7,2.6,41.3"/>
	</g>
</g>
</svg>
