<?xml version="1.0" encoding="utf-8"?>
<!-- Generator: Adobe Illustrator 18.1.1, SVG Export Plug-In . SVG Version: 6.00 Build 0)  -->
<svg version="1.1" id="Layer_1" xmlns="http://www.w3.org/2000/svg" xmlns:xlink="http://www.w3.org/1999/xlink" x="0px" y="0px"
	 viewBox="0 0 1280 1300" enable-background="new 0 0 1280 1300" xml:space="preserve">
<g>
	<g>
		<g>
			<path fill="#FEF7FA" stroke="#5E5F5F" stroke-width="10" stroke-miterlimit="10" d="M580.5,946.8c-1,30.1-1,52.7-1,65.3
				c-1.5,31.1-1.5,41.2,5,52.7c9,15.1,25.1,25.1,44.2,27.6c27.6,2.5,49.2-16.1,57.8-32.7c3.5-7.5,5-15.1,6-39.2
				c1-17.6,2.5-42.7,2.5-71.3h-2.5c-36.2-1.5-72.8-1.5-109.5-2.5"/>
			<g>
				<path fill="#FFE9BF" stroke="#5E5F5F" stroke-width="10" stroke-miterlimit="10" d="M882.9,640.4H395.6
					c-47.7,0-86.4-39.2-86.4-86.4V268.6c0-47.7,39.2-86.4,86.4-86.4h487.2c47.7,0,86.4,39.2,86.4,86.4V554
					C969.8,601.2,931.1,640.4,882.9,640.4z"/>
				
					<ellipse fill="#FCF6F9" stroke="#5E5F5F" stroke-width="10" stroke-miterlimit="10" cx="355.4" cy="617.2" rx="72.8" ry="85.4"/>
				
					<ellipse fill="#FCF6F9" stroke="#5E5F5F" stroke-width="10" stroke-miterlimit="10" cx="924.6" cy="607.2" rx="72.8" ry="85.4"/>
				<ellipse fill="#F2E1E9" cx="924.6" cy="613.7" rx="30.1" ry="57.8"/>
				<ellipse fill="#F2E1E9" cx="346.9" cy="627.3" rx="30.1" ry="57.8"/>
				<g>
					<path fill="#FEF7FA" stroke="#5E5F5F" stroke-width="10" stroke-miterlimit="10" d="M519.2,730.8c79.4-1,158.2,1,237.1,3.5
						c44.2-2.5,87.9-2.5,131.6,1.5c10-4,22.6-5,34.2-4V284.7c0-22.6-17.6-40.2-40.2-40.2H394.6c-22.6,0-40.2,17.6-40.2,40.2v449.6
						C410.7,730.8,465.9,731.8,519.2,730.8z"/>
					<path fill="#FEF7FA" stroke="#5E5F5F" stroke-width="10" stroke-miterlimit="10" d="M633.2,734.3c-64.3-2.5-130.6-7.5-194.9-6
						c-27.6,1.5-56.3,5-84.4,2.5c49.2,126.6,156.7,216,283.8,216c125.6,0,232.1-86.4,282.3-212C825.6,739.3,728.7,737.8,633.2,734.3
						z"/>
				</g>
				<path fill="#FFE9BF" stroke="#5E5F5F" stroke-width="10" stroke-miterlimit="10" d="M891.9,200.3
					c0,69.3-121.6,140.6-255.2,140.6s-251.2-71.3-251.2-140.6S502.1,59.7,636.7,59.7S891.9,131.5,891.9,200.3z"/>
				<g>
					<g>
						<path fill="#FEF7FA" d="M486,691.6c-10,10-71.3,0-86.4,0c-40.2,0-40.2,61.3,0,62.8c160.7,3.5,326.5,15.1,486.2-2.5
							c40.2-3.5,40.2-66.3,0-62.8c-159.7,17.6-325.5,5-486.2,2.5c0,21.1,0,41.2,0,62.8c54.3,0,87.9,21.1,130.6-19.1
							C560.4,707.7,516.2,664,486,691.6L486,691.6z"/>
					</g>
				</g>
				<g>
					<g>
						<path fill="#FEF7FA" d="M397.1,716.7c-5,0-9,0-12.6-2.5c0,9,0,17.6,0,27.6c0,0,1,0,1-1.5c-2.5,1.5-5,1.5-7.5,2.5h1
							c20.1,0,20.1-31.1,0-31.1c-4,0-7.5,1-10,2.5c-10,6-10,20.1,0,27.6c9,6,19.1,6,29.1,6C417.2,747.8,417.2,716.7,397.1,716.7
							L397.1,716.7z"/>
					</g>
				</g>
			</g>
			<g>
				<g>
					<g>
						<path fill="#FFE9BF" d="M412.2,767.9c1-1,2.5-2.5,4-4c6-6-4-15.1-9-9c-1,1-2.5,2.5-4,3.5C397.1,765.9,405.7,774.5,412.2,767.9
							L412.2,767.9z"/>
					</g>
				</g>
				<g>
					<g>
						<path fill="#FFE9BF" d="M442.3,792.1c1-5,4-9,6-11.1c5-6-6-12.6-11.1-6c-4,5-6,10-7.5,15.1
							C428.8,796.1,439.8,799.6,442.3,792.1L442.3,792.1z"/>
					</g>
				</g>
				<g>
					<g>
						<path fill="#FFE9BF" d="M453.9,823.2c2.5-4,5-7.5,9-11.1c5-6-4-15.1-9-9c-4,4-7.5,9-10,14.1
							C438.8,823.2,449.9,829.7,453.9,823.2L453.9,823.2z"/>
					</g>
				</g>
				<g>
					<g>
						<path fill="#FFE9BF" d="M487.5,857.4c5-11.1,9-24.1,14.1-35.2c2.5-7.5-9-11.1-12.6-3.5c-5,11.1-9,24.1-14.1,35.2
							C472.5,861.4,485,863.4,487.5,857.4L487.5,857.4z"/>
					</g>
				</g>
				<g>
					<g>
						<path fill="#FFE9BF" d="M526.2,862.4c0-7.5,0-16.1,0-24.1s-12.6-7.5-12.6,0s0,16.1,0,24.1
							C513.7,870.4,526.2,869.9,526.2,862.4L526.2,862.4z"/>
					</g>
				</g>
				<g>
					<g>
						<path fill="#FFE9BF" d="M549.3,887.5c1-11.1,2.5-22.6,4-34.2c1-7.5-11.1-7.5-12.6,0c-1,11.1-2.5,22.6-4,34.2
							C535.3,895,547.8,895,549.3,887.5L549.3,887.5z"/>
					</g>
				</g>
				<g>
					<g>
						<path fill="#FFE9BF" d="M576.5,892.5c5-6,9-11.1,12.6-19.1c4-7.5-7.5-14.1-11.1-6c-2.5,6-6,11.1-10,16.1
							C561.4,890,570.4,898.5,576.5,892.5L576.5,892.5z"/>
					</g>
				</g>
				<g>
					<g>
						<path fill="#FFE9BF" d="M620.7,905.1c2.5-7.5,4-15.1,4-24.1c0-7.5-12.6-7.5-12.6,0s-1,14.1-4,20.1
							C606.6,910.1,619.7,913.6,620.7,905.1L620.7,905.1z"/>
					</g>
				</g>
				<g>
					<g>
						<path fill="#FFE9BF" d="M664.9,908.6c0-7.5,0-15.1-1-21.1c0-7.5-12.6-7.5-12.6,0c0,7.5,0,15.1,1,21.1
							C651.8,917.6,664.9,917.6,664.9,908.6L664.9,908.6z"/>
					</g>
				</g>
				<g>
					<g>
						<path fill="#FFE9BF" d="M698.5,896.5c1-6,4-12.6,5-20.1c2.5-7.5-10-11.1-12.6-4c-1,6-4,12.6-5,20.1
							C685,901.6,696,905.1,698.5,896.5L698.5,896.5z"/>
					</g>
				</g>
				<g>
					<g>
						<path fill="#FFE9BF" d="M738.7,881.5c0-7.5,0-14.1,0-21.6c0-7.5-12.6-7.5-12.6,0c0,7.5,0,14.1,0,21.6S738.7,888.5,738.7,881.5
							L738.7,881.5z"/>
					</g>
				</g>
				<g>
					<g>
						<path fill="#FFE9BF" d="M763.8,871.4c-1.5-5-1.5-11.1-2.5-16.1c-1-7.5-14.1-7.5-12.6,0c1,5,1,11.1,2.5,16.1
							C751.3,878.5,763.8,878.5,763.8,871.4L763.8,871.4z"/>
					</g>
				</g>
				<g>
					<g>
						<path fill="#FFE9BF" d="M785.4,853.3c-1-5-4-10-5-15.1c-2.5-7.5-15.1-4-12.6,4c1,5,4,10,5,15.1
							C776.4,864.9,788.9,862.4,785.4,853.3L785.4,853.3z"/>
					</g>
				</g>
				<g>
					<g>
						<path fill="#FFE9BF" d="M801.5,837.3c0-5-1.5-10-1.5-16.1c-1-7.5-14.1-7.5-12.6,0c0,5,1.5,10,1.5,16.1
							C790.4,844.8,802.5,844.8,801.5,837.3L801.5,837.3z"/>
					</g>
				</g>
				<g>
					<g>
						<path fill="#FFE9BF" d="M822.6,813.1c-1-5-4-10-6-15.1c-4-7.5-15.1-1.5-11.1,6c2.5,3.5,4,7.5,5,12.6
							C812.5,824.7,824.1,821.2,822.6,813.1L822.6,813.1z"/>
					</g>
				</g>
				<g>
					<g>
						<path fill="#FFE9BF" d="M847.7,796.1c-1-3.5-4-6-5-10c-3.5-7.5-15.1-1.5-11.1,6c1.5,3.5,4,6,5,10
							C840.7,808.1,851.7,802.1,847.7,796.1L847.7,796.1z"/>
					</g>
				</g>
				<g>
					<g>
						<path fill="#FFE9BF" d="M770.4,702.6c-5-10-9-19.1-12.6-29.1c-2.5-7.5-15.1-4-12.6,4c3.5,11.1,9,22.6,14.1,32.7
							C763.8,716.7,773.9,709.2,770.4,702.6L770.4,702.6z"/>
					</g>
				</g>
				<g>
					<g>
						<path fill="#FFE9BF" d="M738.7,712.7c-4-9-7.5-17.6-10-27.6c-1-7.5-14.1-5-12.6,4c2.5,10,6,21.6,11.1,30.1
							C731.2,726.8,742.2,720.7,738.7,712.7L738.7,712.7z"/>
					</g>
				</g>
				<g>
					<g>
						<path fill="#FFE9BF" d="M707.1,724.2c-5-9-7.5-19.1-10-27.6c-1-7.5-14.1-5-12.6,4c2.5,11.1,6,21.1,11.1,31.1
							C700,737.8,711.1,731.8,707.1,724.2L707.1,724.2z"/>
					</g>
				</g>
				<g>
					<g>
						<path fill="#FFE9BF" d="M660.8,730.8c0-10,0-19.1-3.5-29.1c-2.5-7.5-14.1-5-12.6,4c2.5,9,3.5,16.1,2.5,25.1
							C648.3,737.8,660.8,737.8,660.8,730.8L660.8,730.8z"/>
					</g>
				</g>
				<g>
					<g>
						<path fill="#FFE9BF" d="M626.7,727.8c0-9,0-16.1,0-25.1c0-7.5-12.6-7.5-12.6,0c0,9,0,16.1,0,25.1
							C614.6,735.8,626.7,735.8,626.7,727.8L626.7,727.8z"/>
					</g>
				</g>
				<g>
					<g>
						<path fill="#FFE9BF" d="M585.5,729.3c0-11.1,1-22.6,4-34.2c1.5-7.5-10-11.1-12.6-4c-2.5,12.6-4,25.1-5,36.2
							C572.9,736.8,585.5,736.8,585.5,729.3L585.5,729.3z"/>
					</g>
				</g>
				<g>
					<g>
						<path fill="#FFE9BF" d="M524.2,714.2c6-2.5,10-7.5,14.1-11.1c5-5,11.1-10,17.6-14.1c6.5-4,0-15.1-6-11.1
							c-6,4-11.1,7.5-16.1,12.6c-5,5-9,10-15.1,12.6C510.2,706.7,516.2,717.7,524.2,714.2L524.2,714.2z"/>
					</g>
				</g>
			</g>
			<circle fill="#5E5F5F" stroke="#5E5F5F" stroke-width="10" stroke-miterlimit="10" cx="791.4" cy="493.2" r="20.1"/>
			<circle fill="#5E5F5F" stroke="#5E5F5F" stroke-width="10" stroke-miterlimit="10" cx="470" cy="493.2" r="20.1"/>
			<g>
				<g>
					<path fill="#5E5F5F" d="M420.7,435.4c30.1-2.5,65.3-7.5,95.4,0c11.1,2.5,16.1-15.1,5-17.6c-31.1-7.5-67.8-4-100.5-1
						C408.7,417.8,408.7,436.4,420.7,435.4L420.7,435.4z"/>
				</g>
			</g>
			<g>
				<g>
					<path fill="#5E5F5F" d="M745.2,434.4c30.1-2.5,65.3-7.5,95.4,0c11.1,2.5,16.1-15.1,5-17.6c-31.1-7.5-67.8-4-100.5-1
						C733.7,416.3,733.7,435.4,745.2,434.4L745.2,434.4z"/>
				</g>
			</g>
			<circle fill="#F2E1E9" cx="791.4" cy="596.1" r="39.2"/>
			<circle fill="#F2E1E9" cx="467.5" cy="596.1" r="39.2"/>
			<g>
				<g>
					<path fill="#F2E1E9" d="M669.9,610.2c-10,14.1-24.1,15.1-40.2,11.1c-11.1-2.5-25.1-6-32.7-15.1c-12.6-15.1-35.2,6-22.6,22.6
						c14.1,17.6,42.7,25.1,64.3,26.1c25.1,2.5,42.7-10,57.8-29.1C708.6,610.2,680.9,595.1,669.9,610.2L669.9,610.2z"/>
				</g>
			</g>
			<ellipse fill="none" stroke="#5E5F5F" stroke-width="10" stroke-miterlimit="10" cx="634.7" cy="613.7" rx="70.3" ry="44.2"/>
			<line fill="none" stroke="#5E5F5F" stroke-width="10" stroke-miterlimit="10" x1="638.2" y1="489.7" x2="638.2" y2="576.1"/>
			<path fill="none" stroke="#5E5F5F" stroke-width="10" stroke-miterlimit="10" d="M497.6,732.8c0,0,35.2,54.3,141.7,54.3
				c32.7,0,94.4-11.1,134.6-51.2"/>
			<path fill="none" stroke="#5E5F5F" stroke-width="10" stroke-miterlimit="10" d="M773.9,223.4c-21.1,2.5-52.7,4-89.4,1
				c-15.1-1-62.8-5-163.3-39.2c-40.2-14.1-92.9-34.2-151.7-61.3"/>
			<path fill="none" stroke="#5E5F5F" stroke-width="10" stroke-miterlimit="10" d="M748.8,151.6c-19.1,1-40.2,1-61.3,0
				c-109-6-196.9-45.2-256.2-80.4"/>
		</g>
		<g>
			<path fill="none" stroke="#5E5F5F" stroke-width="10" stroke-miterlimit="10" d="M740.2,997c26.1,14.1,47.7,24.1,62.8,30.1
				c20.1,9,31.1,14.1,49.2,24.1c15.1,9,26.1,16.1,36.2,27.6c14.1,16.1,16.1,35.2,20.1,74.3c2.5,25.1,3.5,51.2,3.5,103
				c0,9,0,19.1,0,14.1s-118,9-568.6-2.5"/>
			<path fill="none" stroke="#5E5F5F" stroke-width="10" stroke-miterlimit="10" d="M519.2,1002c-26.1,14.1-47.7,24.1-62.8,30.1
				c-20.1,9-31.1,14.1-49.2,24.1c-15.1,9-26.1,16.1-36.2,27.6c-14.1,16.1-16.6,35.2-20.1,74.3c-2.5,25.1-4,51.2-4,103
				c0,9,0,19.1,0,14.1s118,9,568.6-2.5"/>
		</g>
		<polyline fill="#ACD9B3" stroke="#5E5F5F" stroke-width="10" stroke-miterlimit="10" points="590.5,1251 626.7,1273 626.7,1273 
			663.4,1251 663.4,1251 668.4,1074.4 590.5,1074.4 590.5,1253.8 		"/>
		<g>
			<circle fill="#FFFFFF" cx="623.2" cy="1182.9" r="7.5"/>
			<circle fill="#FFFFFF" cx="639.7" cy="1234.1" r="7.5"/>
			<circle fill="#FFFFFF" cx="640.8" cy="1204" r="7.5"/>
			<circle fill="#FFFFFF" cx="614.6" cy="1218" r="6"/>
		</g>
		<path fill="#ADD9B2" stroke="#5E5F5F" stroke-width="10" stroke-miterlimit="10" d="M678.4,1074.4c-1,1-17.6,23.6-45.2,25.1
			c-25.1-1.5-47.7-26.6-50.2-29.1l2.5-1c-4,6-7.5,15.1-9,27.6c-1,26.1,19.1,59.3,47.7,60.3c30.1,1,50.2-32.7,54.3-57.8
			c1-10,0-17.6-2.5-22.6"/>
	</g>
	<path fill="#FFFFFF" stroke="#5E5F5F" stroke-width="10" stroke-miterlimit="10" d="M675.9,1085.9c10-39.2,20.1-78.9,30.1-118l0,0
		c17.6,11.1,30.1,21.1,47.7,32.7c-6,37.7-11.1,70.3-24.1,106.5l0,0C715.1,1102.5,692,1093.4,675.9,1085.9"/>
	<path fill="#FFFFFF" stroke="#5E5F5F" stroke-width="10" stroke-miterlimit="10" d="M583,1078.4c-2.5-40.2-6-81.4-10-121.6l0,0
		c-20.1,9-39.2,17.6-59.3,25.1c7.5,39.2,15.1,76.4,22.6,115.5l0,0C551.3,1090.9,566.4,1084.4,583,1078.4"/>
</g>
</svg>
