<?xml version="1.0" encoding="UTF-8" standalone="no"?>
<svg width="718px" height="1304px" viewBox="0 0 718 1304" version="1.1" xmlns="http://www.w3.org/2000/svg" xmlns:xlink="http://www.w3.org/1999/xlink" xmlns:sketch="http://www.bohemiancoding.com/sketch/ns">
    <!-- Generator: Sketch 3.3.3 (12081) - http://www.bohemiancoding.com/sketch -->
    <title>artem</title>
    <desc>Created with Sketch.</desc>
    <defs></defs>
    <g id="Page-1" stroke="none" stroke-width="1" fill="none" fill-rule="evenodd" sketch:type="MSPage">
        <g id="artem" sketch:type="MSLayerGroup" transform="translate(5.000000, 0.000000)">
            <g id="Group" sketch:type="MSShapeGroup">
                <g transform="translate(0.000000, 35.000000)">
                    <g transform="translate(56.000000, 916.000000)" id="Shape" stroke-width="10" stroke="#5E5F5F" fill="#C1E1F7">
                        <g>
                            <g transform="translate(0.000000, 65.000000)">
                                <path d="M399.9,0 C426.2,14.2 448,24.3 463.1,30.4 C483.3,39.5 494.5,44.6 512.7,54.2 C527.9,63.3 539,70.4 549.1,82 C563.3,98.2 565.3,117.4 569.3,156.9 C571.8,182.2 572.8,208.5 572.8,260.6 L572.8,274.8 C572.8,269.8 453.9,283.9 0.2,272.3"></path>
                                <path d="M177.4,5 C151.1,19.2 129.3,28.8 114.2,35.4 C94,44.5 82.8,49.6 65.1,59.7 C49.9,68.8 38.3,75.9 28.7,87.5 C14.5,103.7 12.5,122.9 8.5,161.9 C6,187.2 4.5,214 4.5,265.6 L4.5,279.8 C4.5,274.8 123.4,288.9 577.1,277.3"></path>
                            </g>
                            <g transform="translate(63.000000, 0.000000)">
                                <path d="M229.7,348.2 C229.7,345.7 230.7,308.7 230.7,306.7 L230.7,265.2 C229.7,227.3 221.6,214.6 229.7,208.5 C233.7,204.5 238.8,207 255,208.5 C265.1,208.5 282.8,208.5 299.5,203.4 C303.5,202.4 324.8,194.3 335.9,174.1 C347,154.9 341,141.2 342,117.4 C343,99.7 349.6,75.9 369.8,45.6"></path>
                                <path d="M2.1,122.1 C-1.9,104.4 1.1,90.7 2.1,82.6 C14.7,28 83,-2.4 123.5,2.7 C126,2.7 127.5,3.7 144.7,5.2 C172.5,8.7 187.7,11.3 197.8,12.8 C232.2,16.3 258.5,13.8 266.1,12.8 C305.6,8.8 304,0.2 326.8,0.2 C359.7,0.2 396.6,16.4 418.9,45.7 C444.2,76.1 445.2,110.4 446.7,121.6"></path>
                                <path d="M88.1,37.2 C92.1,42.3 97.2,48.3 102.3,57.4 C106.3,63.5 112.4,75.1 114.9,87.8 C120,110.6 110.9,114.6 114.9,135.9 C118.9,151.1 126,162.2 131.1,168.8 C133.6,172.8 147.8,189 171.6,199.2 C190.3,206.8 205.5,206.8 235.8,206.8 C265.1,206.8 278.8,206.8 296.5,199.2 C307.6,194.1 332.9,184 343,161.3 C350.6,142.1 342,132 344,106.7 C345,91.5 351.6,70.3 371.8,45"></path>
                            </g>
                        </g>
                        <path d="M511.2,122.1 C478.3,109.5 445.4,96.8 411,85.7"></path>
                        <path d="M72.1,122.1 C105,109.5 137.9,96.8 172.3,85.7"></path>
                    </g>
                    <path d="M298.1,905.1 C297.1,935.5 297.1,958.2 297.1,970.9 C296.1,1002.3 296.1,1012.4 302.2,1024 C310.8,1039.2 327.5,1049.3 346.7,1051.8 C374.5,1054.3 395.8,1035.6 404.9,1018.9 C408.4,1011.3 410,1003.7 411,979.4 C412,961.7 413.5,936.4 413.5,907.1 L410.5,907.1 C374.1,906.1 337.2,906.1 300.2,904.6" id="Shape" stroke="#5E5F5F" stroke-width="10" fill="#F3EDEE"></path>
                    <g>
                        <ellipse id="Oval" stroke="#5E5F5F" stroke-width="10" fill="#FCF6F9" cx="74" cy="643.1" rx="73.3" ry="86"></ellipse>
                        <ellipse id="Oval" stroke="#5E5F5F" stroke-width="10" fill="#FCF6F9" cx="634" cy="633" rx="73.3" ry="86"></ellipse>
                        <ellipse id="Oval" fill="#F2E1E9" cx="647.1" cy="639.5" rx="30.4" ry="58.2"></ellipse>
                        <ellipse id="Oval" fill="#F2E1E9" cx="65.4" cy="653.2" rx="30.4" ry="58.2"></ellipse>
                        <path d="M62.4,553.5 C49.8,562.6 33.1,569.7 27,563.6 C20.9,558.5 24.5,545.9 26,530.7 C28.5,510.5 25,514.5 23.5,462.4 C22.5,429.5 24.5,432 26,362.2 C27,303 26,301.5 28.5,292.4 C37.6,267.1 48.7,262 70,216.5 C79.1,198.8 77.6,197.3 85.2,183.6 C91.3,171 104.4,148.2 124.7,129 C129.8,123.9 155.1,99.7 196.5,88.5 C221.8,80.9 248.1,82.4 302.7,84.5 C352.3,87 368.5,90.6 393.8,79.4 C403.9,74.3 425.2,65.2 434.3,44 C443.4,24.8 434.3,9.6 444.4,3.5 C454.5,-4.1 473.7,5 492.5,14.6 C512.7,24.7 533,34.8 550.7,57.6 C568.4,81.9 575,105.7 577,118.3 C583.1,147.6 577,156.2 587.1,171.4 C598.2,189.1 611.4,186.6 633.6,201.8 C668,225.6 680.6,262.5 684.2,275.1 C689.3,289.3 688.2,295.3 688.2,361.1 L688.2,471.4 C690.7,531.1 698.3,556.4 685.7,563.5 C674.6,569.6 655.3,558.4 641.2,548.3" id="Shape" stroke="#5E5F5F" stroke-width="10" fill="#F9C99B"></path>
                        <path d="M410.4,919.3 C426.6,916.8 438.2,914.2 450.9,909.2 C470.1,903.1 482.3,894 499,883.9 C515.2,873.8 534.4,861.1 555.7,839.4 C582,814.1 596.2,790.3 600.2,783.8 C606.3,772.7 620.4,747.4 630.6,713 C636.7,690.2 636.7,675.1 640.7,619.4 C645.8,522.3 645.8,523.3 645.8,520.8 C644.3,455 644.3,421.2 625.6,380.2 C607.9,343.8 600.3,354.9 564.9,296.7 C557.3,282.5 547.2,265.3 533.5,265.3 C523.4,265.3 520.9,275.4 507.2,284.5 C491,294.6 474.3,293.6 451.6,292.1 C433.9,291.1 410.1,289.6 385.8,276.9 C342.8,254.1 317.5,205.1 317.5,203.6 C317.5,203.6 289.7,214.7 277,221.3 C241.6,236.5 223.9,244.1 211.2,251.7 C203.6,255.7 175.8,271.9 146.5,300.8 C128.8,317.5 107,340.3 90.9,375.7 C78.3,403.5 75.7,427.3 73.2,440.4 C70.7,464.7 72.2,473.3 73.2,513.7 L73.2,554.2 C73.2,577 72.2,593.7 72.2,598.7 C71.2,635.6 69.7,669.5 77.3,700.9 C87.4,749 110.2,781.8 121.8,797 C129.4,808.1 157.2,846.6 208.8,878.9 C231.6,893.1 268.5,916.8 321.1,923.4 C349.7,927.9 376,924.3 410.4,919.3 L410.4,919.3 Z" id="Shape" stroke="#5E5F5F" stroke-width="10" fill="#FEF7FA"></path>
                    </g>
                </g>
                <path d="M416.5,261.3 C429.1,258.8 445.3,255.2 464.6,246.1 C489.9,235 507.6,220.8 517.7,213.2 C543,193 558.2,172.7 562.2,167.7 C569.8,157.6 582.4,141.4 590,117.1 C602.6,84.2 601.1,53.9 600.1,33.6" id="Shape" stroke="#5E5F5F" stroke-width="10"></path>
                <path d="M419.5,214.2 C429.6,209.1 441.3,201.6 454.9,191.4 C467.5,182.3 487.8,167.6 508,142.3 C518.1,129.7 543.4,97.8 553.5,49.7 C557.5,29.5 558.6,11.8 557.5,0.6" id="Shape" stroke="#5E5F5F" stroke-width="10"></path>
                <path d="M261.2,789.4 C267.3,792.9 275.4,798.5 286.5,802 C305.7,809.6 321.9,812.1 333,813.1 C344.1,814.1 360.8,815.6 381.1,813.1 C401.4,810.6 416.5,805.5 424.1,802 C435.2,796.9 445.3,791.9 451.9,786.8" id="Shape" stroke="#5E5F5F" stroke-width="10"></path>
                <path d="M372.5,894.6 C372.5,892.1 373.5,888.5 372.5,882 C372.5,880.5 368.5,872.9 361.4,870.9 C351.3,868.4 342.2,876 340.2,878.5 C337.7,879.5 329.1,888.6 330.1,901.3 C331.1,912.4 339.2,919 340.2,920.5 C350.3,928.1 361.4,926.6 365.5,925.6 C374.6,924.6 379.7,919.5 381.7,916.5" id="Shape" stroke="#5E5F5F" stroke-width="10"></path>
                <path d="M337.1,687.2 L391.7,687.2 C416,687.2 416,649.3 391.7,649.3 L337.1,649.3 C311.8,649.2 311.8,687.2 337.1,687.2 L337.1,687.2 L337.1,687.2 Z" id="Shape" fill="#F1E0E8"></path>
                <g transform="translate(147.000000, 444.000000)" id="Shape" fill="#5E5F5F">
                    <path d="M328.1,38.3 C357.4,35.8 386.3,30.7 415.1,34.3 C435.3,36.8 443.9,6.5 424.2,3.9 C391.3,-1.2 361,3.9 328.1,6.4 C307.9,8 307.9,39.8 328.1,38.3 L328.1,38.3 L328.1,38.3 Z"></path>
                    <path d="M15.5,31.7 L104,31.7 C124.2,31.7 124.2,0.3 104,0.3 L15.5,0.3 C-4.7,0.4 -4.7,31.7 15.5,31.7 L15.5,31.7 L15.5,31.7 Z"></path>
                    <path d="M382.3,129.4 C415.2,129.4 415.2,78.8 382.3,78.8 C350.9,78.8 350.9,129.4 382.3,129.4 L382.3,129.4 L382.3,129.4 Z"></path>
                    <path d="M52,129.4 C84.9,129.4 84.9,78.8 52,78.8 C20.6,78.8 19.6,129.4 52,129.4 L52,129.4 L52,129.4 Z"></path>
                </g>
                <path d="M330.5,504.1 L330.5,542 C331.5,563.2 333,578.4 333,578.4 C335.5,608.8 339.1,617.9 333,623.9 C326.9,630 320.4,624.9 310.2,631.5 C300.1,638.1 294,652.7 296,665.9 C298,679.1 311.2,685.1 321.3,691.2 C325.3,693.7 345.6,703.8 372.9,701.3 C387.1,700.3 414.4,697.3 426,676 C431.1,666.9 435.1,650.7 428.5,640.6 C419.4,626.4 400.7,634.5 392.1,620.4 C388.6,615.3 391.1,612.8 391.1,585 C391.1,563.8 390.1,563.8 391.1,544.5 C391.1,530.3 392.1,519.2 393.6,510.6" id="Shape" stroke="#5E5F5F" stroke-width="10"></path>
                <path d="M428.1,1155.1 L428.1,1262.3 C428.1,1274.9 447.3,1274.9 447.3,1262.3 L447.3,1155.1 C448.3,1143.4 428.1,1143.4 428.1,1155.1 L428.1,1155.1 L428.1,1155.1 Z" id="Shape" fill="#FFFFFF"></path>
                <path d="M258.6,1154.1 L258.6,1258.8 C258.6,1271.4 277.8,1271.4 277.8,1258.8 L277.8,1154.1 C277.9,1141.4 258.6,1141.4 258.6,1154.1 L258.6,1154.1 L258.6,1154.1 Z" id="Shape" fill="#FFFFFF"></path>
            </g>
            <path d="M69.4888826,594.9 C73.5880945,594.9 78.8434944,635.2 80.8405463,651.5 C83.4682463,677.1 81.8916263,682 84.9397582,712 C87.5674582,735.1 89.0389702,755.3 95.240342,778.4 C103.018334,805.5 105.540926,817.8 115.946617,829.1 C143.379805,857.1 201.294311,857.1 216.850295,838 C223.051667,828.2 216.850295,819.3 224.628287,807.5 C232.406279,795.7 249.433774,788.8 271.19113,785.4 C353.911124,769.7 399.422887,786.4 447.036809,785.4 C449.664509,785.4 454.814801,785.4 461.541713,787.9 C478.043669,795.3 472.893377,816.4 484.770581,829.7 C507.999448,856.8 573.691946,839.5 589.24793,827.2 C593.347142,823.8 597.025922,819.8 597.025922,819.8 C604.803914,810 604.803914,797.7 604.803914,794.2 C604.803914,772.1 612.581905,750.9 615.104497,730.2 C616.681117,716.4 621.305869,658.9 640.961065,597.3 C643.588765,588.4 645.060277,585 646.111357,585 C655.465968,585 650.210569,697.2 645.060277,804 C645.060277,811.4 644.009197,823.7 638.858905,839.4 C636.231205,848.3 631.080913,858.1 610.374638,886.1 C592.296062,910.7 583.46699,921.5 573.166406,931.4 C552.460131,950.1 532.804935,958.5 518.825572,965.8 C511.04758,969.2 487.818713,979.6 455.760773,987.9 C413.40225,997.7 380.818771,996.8 337.8296,995.3 C288.744165,994.3 265.41019,992.8 233.352251,983 C187.840488,969.2 158.410248,947.6 148.004557,938.7 C135.076273,928.9 109.219706,908.2 90.0900501,873.7 C72.0114746,840.2 68.3326947,812.2 62.6568628,782.7 C58.5576509,759.1 60.0291629,734.5 61.6057828,686.7 C64.3385907,640.1 65.8101027,595.9 69.4888826,594.9 L69.4888826,594.9 Z" id="Shape" stroke="#5E5F5F" stroke-width="10" fill="#F9C99B" sketch:type="MSShapeGroup"></path>
            <path d="M292.5,850 C303.3,854.9 317.1,859.8 334.3,862.3 C369.7,868.2 398.3,860.8 415.5,856.4" id="Shape" stroke="#FEF7FA" stroke-width="10" fill="#FEF7FA" sketch:type="MSShapeGroup"></path>
        </g>
    </g>
</svg>