<?xml version="1.0" encoding="utf-8"?>
<!-- Generator: Adobe Illustrator 18.1.1, SVG Export Plug-In . SVG Version: 6.00 Build 0)  -->
<svg version="1.1" id="Layer_1" xmlns="http://www.w3.org/2000/svg" xmlns:xlink="http://www.w3.org/1999/xlink" x="0px" y="0px"
	 viewBox="0 0 1280 1300" enable-background="new 0 0 1280 1300" xml:space="preserve">
<g>
	<g>
		<g>
			<ellipse fill="#FCF6F9" stroke="#5E5F5F" stroke-width="10" stroke-miterlimit="10" cx="330.4" cy="584.6" rx="79.2" ry="92.9"/>
			<ellipse fill="#FCF6F9" stroke="#5E5F5F" stroke-width="10" stroke-miterlimit="10" cx="949.6" cy="573.7" rx="79.2" ry="92.9"/>
			<ellipse fill="#F2E1E9" cx="949.6" cy="580.8" rx="32.8" ry="62.8"/>
			<ellipse fill="#F2E1E9" cx="321.1" cy="595.5" rx="32.8" ry="62.8"/>
			<path fill="#B0A4A3" stroke="#5E5F5F" stroke-width="10" stroke-miterlimit="10" d="M332.1,497.2c-5.5,0-15.3-1.1-20.8-8.2
				c-6.6-6.6-6.6-16.4-8.2-26.2c-1.1-16.4-6.6-31.7-10.9-48.1c-6.6-32.8-8.2-32.8-15.3-65.6c-9.8-46.4-13.7-68.3-8.2-87.4
				c1.1-4.4,13.7-36.6,41-46.4c19.1-6.6,32.8,0,42.6-10.9c8.2-9.8,1.1-16.4,9.8-32.8c8.7-16.4,20.8-16.4,39.3-35.5
				c16.4-16.4,10.9-19.1,26.2-35.5s24.6-16.4,65.6-38.3C525,45.8,519.5,44.7,538.1,36c27.3-12,49.2-17.5,73.8-23
				C631,8.7,661,2.1,702,2.1c23,0,58.5-1.1,102.7,10.9c25.7,6.6,44.8,12,66.7,28.4c9.8,8.2,30.1,26.2,42.6,57.4
				c5.5,15.3,12,32.8,8.2,53c-5.5,26.2-24.6,39.3-19.1,46.4c2.7,4.4,12-1.1,26.2-1.1c24.6-1.1,49.2,12,62.8,26.2
				c9.8,10.9,15.3,25.7,16.4,55.7c3.8,55.7,9.8,131.1-39.3,184.7c-12,13.7-24.6,21.9-31.7,26.2"/>
			<path fill="#FEF7FA" stroke="#5E5F5F" stroke-width="10" stroke-miterlimit="10" d="M663.8,943.1h-59
				c-148.6,0-270.5-121.3-270.5-270.5v-235c0-148.6,121.3-270.5,270.5-270.5h59c148.6,0,270.5,121.3,270.5,270.5v235
				C933.2,821.2,811.3,943.1,663.8,943.1z"/>
		</g>
		<path fill="#FEF7FA" stroke="#5E5F5F" stroke-width="10" stroke-miterlimit="10" d="M579.6,599.9c1.1,2.7,4.4,2.7,39.3,2.7
			c27.3-1.1,23-1.1,32.8-1.1c25.7,0,33.9,4.4,39.3-1.1c6.6-6.6,5.5-19.1,4.4-24.6c-2.7-18-12-19.1-20.8-42.6
			c-2.7-8.2-1.6-8.2-5.5-21.9c-1.1-5.5-3.8-15.3-9.8-24.6c-9.8-21.9-13.7-32.8-19.1-32.8c-8.2,0-16.4,20.8-27.3,48.1
			c-8.2,20.8-6.6,21.9-13.7,41C586.2,580.8,574.2,592.8,579.6,599.9z"/>
		<path fill="none" stroke="#5E5F5F" stroke-width="10" stroke-miterlimit="10" d="M756.7,114.7c10.9-4.4,24.6-8.2,42.6-12
			c8.2-2.7,39.3-9.8,80.9-10.9c27.3-1.1,68.3,1.6,115.8,12"/>
		<path fill="none" stroke="#5E5F5F" stroke-width="10" stroke-miterlimit="10" d="M649,114.7c8.2-6.6,20.8-15.3,35.5-24.6
			c38.3-24.6,69.9-37.2,79.2-39.3c35.5-13.7,62.8-17.5,95.6-23c31.7-5.5,57.4-6.6,76.5-8.2"/>
		<circle fill="#F2E1E9" cx="811.3" cy="555.1" r="42.6"/>
		<circle fill="#F2E1E9" cx="457.8" cy="555.1" r="42.6"/>
	</g>
	<g>
		<path fill="#FEE79F" stroke="#5E5F5F" stroke-width="10" stroke-miterlimit="10" d="M758.3,993.4c28.4,15.3,51.9,26.2,68.3,32.8
			c21.9,9.8,33.9,15.3,53.6,26.2c16.4,9.8,28.4,17.5,39.3,30.1c15.3,17.5,17.5,38.3,21.9,80.9c2.7,27.3,4.4,55.7,4.4,112
			c0,9.8,0,20.8,0,15.3s-128.4,9.8-619.1-2.7"/>
		<path fill="#FEE79F" stroke="#5E5F5F" stroke-width="10" stroke-miterlimit="10" d="M517.9,998.8c-28.4,15.3-51.9,26.2-68.3,32.8
			c-21.9,9.8-33.9,15.3-53.6,25.7c-16.4,9.8-28.4,17.5-39.3,30.1c-15.3,17.5-17.5,38.3-21.9,80.9c-2.7,27.3-4.4,55.7-4.4,112
			c0,9.8,0,20.8,0,15.3s128.4,9.8,618.6-2.7"/>
	</g>
	<path fill="#FEF7FA" stroke="#5E5F5F" stroke-width="10" stroke-miterlimit="10" d="M582.3,943.1c-1.1,32.8-1.1,57.4-1.1,71
		c-1.1,33.9-1.1,44.8,5.5,57.4c9.8,16.4,27.3,27.3,48.1,30.1c30.1,2.7,53.6-17.5,62.8-35.5c4.4-8.2,5.5-16.4,6.6-42.6
		c1.6-19.1,2.7-46.4,2.7-77.6h-2.7c-39.3-1.6-79.2-1.6-119.1-2.7"/>
	<path fill="#FFFFFF" stroke="#5E5F5F" stroke-width="10" stroke-miterlimit="10" d="M639.7,1291.2c1.1-15.3,1.1-27.3,1.1-35.5
		c-1.1-32.8-5.5-44.8,1.1-62.8c4.4-12,6.6-8.2,15.3-24.6c15.3-30.1,6.6-42.6,20.8-71c8.2-15.3,19.1-28.4,19.1-28.4
		s-9.8,26.2-31.1,32.8c-6.6,2.7-13.7,2.7-26.2,1.1c-15.3-1.1-27.3-1.1-37.2-8.2c-13.7-9.8-16.4-27.3-16.4-27.3
		c-1.1,0,15.3,48.1,15.3,48.1c5.5,16.4,9.3,38.3,17.5,53c1.1,2.7,5.5,9.8,13.7,17.5c2.7,2.7,5.5,5.5,8.2,6.6"/>
	<path fill="#FEE79F" stroke="#5E5F5F" stroke-width="10" stroke-miterlimit="10" d="M741.9,1119c9.8-5.5,12-16.4,15.3-27.3
		c4.4-16.4,0-20.8,1.1-43.7c0-33.9,8.2-43.7,0-54.6c-5.5-8.2-16.4-10.9-23-13.7c-8.2-2.7-17.5-5.5-24.6-1.1
		c-6.6,3.8-5.5,13.7-8.2,42.6c-2.7,23-8.2,48.1-8.2,49.2c-4.4,19.1-5.5,21.9-4.4,27.3C694.4,1114.7,725.5,1128.9,741.9,1119z"/>
	<path fill="#FEE79F" stroke="#5E5F5F" stroke-width="10" stroke-miterlimit="10" d="M519.5,996.1c-4.4,10.9,4.4,13.7,6.6,38.3
		c2.7,16.4,0,19.1,0,49.2c0,23.5,1.1,35.5,5.5,39.3c12,10.9,46.4,0,55.7-19.1c5.5-10.9,1.1-19.1-1.1-38.3
		c-10.9-61.2,2.7-83.6-12-92.9C558.9,963.3,526.1,977,519.5,996.1z"/>
	<g>
		<g>
			<path fill="#5E5F5F" d="M601.5,799.4c26.2,0,51.9,1.1,78.1,1.1c8.2,0,8.2-13.7,0-13.7c-26.2,0-51.9-1.1-77.6-1.1
				C591.6,785.7,591.6,799.4,601.5,799.4L601.5,799.4z"/>
		</g>
	</g>
	<g>
		<g>
			<path fill="#5E5F5F" d="M558.9,717.4c31.7,13.7,62.8,28.4,97.3,30.1c27.3,1.1,43.7-9.8,62.8-27.3c6.6-6.6-3.8-16.4-9.8-9.8
				c-21.9,21.9-42.6,27.3-72.1,20.8c-24.6-5.5-48.1-15.3-71-26.2C558.9,702.1,550.7,713.6,558.9,717.4L558.9,717.4z"/>
		</g>
	</g>
	<g>
		<g>
			<path fill="#5E5F5F" d="M759.9,345.8c32.8-2.7,65.6-10.9,99.5-6.6c21.9,2.7,21.9-31.7,0-33.9c-32.8-4.4-65.6,2.7-99.5,6.6
				C739.2,313,738.1,346.9,759.9,345.8L759.9,345.8z"/>
		</g>
	</g>
	<g>
		<g>
			<path fill="#5E5F5F" d="M422.2,409.8c31.7,0,64.5,0,95.6,0c21.9,0,21.9-33.9,0-33.9c-31.7,0-64.5,0-95.6,0
				C400.4,375.9,400.4,409.8,422.2,409.8L422.2,409.8z"/>
		</g>
	</g>
	<g>
		<g>
			<path fill="#5E5F5F" d="M813,493.4c35.5,0,35.5-54.6,0-54.6C777.4,438.7,777.4,493.4,813,493.4L813,493.4z"/>
		</g>
	</g>
	<g>
		<g>
			<path fill="#5E5F5F" d="M455,494.5c35.5,0,35.5-54.6,0-54.6C421.1,439.8,419.5,494.5,455,494.5L455,494.5z"/>
		</g>
	</g>
	<g>
		<g>
			<path fill="#F1E0E8" d="M610.8,594.5c19.1,0,39.3,0,59,0c26.2,0,26.2-41,0-41c-19.1,0-39.3,0-59,0
				C585.1,553.5,585.1,594.5,610.8,594.5L610.8,594.5z"/>
		</g>
	</g>
</g>
</svg>
