<?xml version="1.0" encoding="utf-8"?>
<!-- Generator: Adobe Illustrator 18.1.1, SVG Export Plug-In . SVG Version: 6.00 Build 0)  -->
<svg version="1.1" id="Layer_1" xmlns="http://www.w3.org/2000/svg" xmlns:xlink="http://www.w3.org/1999/xlink" x="0px" y="0px"
	 viewBox="0 0 1280 1300" enable-background="new 0 0 1280 1300" xml:space="preserve">
<g>
	<path fill="#5E5F5F" stroke="#5E5F5F" stroke-width="10" stroke-miterlimit="10" d="M929.6,510.5l1-4.9c0-4.9,0,0,10.8-68.9
		C961.1,319.6,958.6,326,960.1,321c4.9-16.2,10.8-29.5,7.4-46.7c-3.9-13.8-13.8-33-29.5-34.4c-22.1-2.5-46.7,34.4-39.4,53.1
		c3.4,8.9,12.3,9.8,18.7,24.6c4.9,10.8,3.4,19.7,3.4,24.6C918.7,386,927.1,510.5,929.6,510.5z"/>
	<path fill="#5E5F5F" stroke="#5E5F5F" stroke-width="10" stroke-miterlimit="10" d="M359.8,541.5c-4.9,0-15.7-63-19.7-87.6
		s-8.9-58.1-10.8-102.3c-2.5-61.5-4.9-93.5,3.9-118.1c23.6-69.9,93.5-103.3,109.2-112.2c36.9-17.2,79.7-19.7,166.3-23.1
		c71.3-3.9,137.8-1.5,167.3,0c84.6,2.5,87.6,7.4,120.6,2.5c29.5-4.9,65-14.8,71.3-2.5c2.5,3.9,0,8.9-2.5,18.7
		c-7.4,24.6-3.9,36.9-5.9,54.1c-2.5,22.1-10.8,36.9-29.5,67.9c-9.8,16.2-27.1,44.3-59,72.8c-28.5,24.6-55.1,38.4-67.9,43.3
		c-17.2,7.4-48.2,18.7-86.1,22.1c-35.4,2.5-64-4.9-119.1-18.7c-56.6-14.8-103.3-32-120.6-38.4c-35.4-13.8-73.8-18.7-108.3-34.4
		c0,0-12.3-4.9-13.8-2.5c-1,1,5.9,5.9,9.8,14.8c2.5,5.9,1.5,12.3,0,14.8c0,0,0,19.7,0,59C363.7,479.5,366.2,540,359.8,541.5z"/>
	<g>
		<g>
			<path fill="#CFC7E3" stroke="#5E5F5F" stroke-width="10" stroke-miterlimit="10" d="M748.5,1022.2c-13.8,2.5-28,4.9-41.8,7.4"/>
			<path fill="#CFC7E3" stroke="#5E5F5F" stroke-width="10" stroke-miterlimit="10" d="M527.1,1028.6c18.7,0,36.9,0,55.1,0"/>
			<path fill="#CFC7E3" stroke="#5E5F5F" stroke-width="10" stroke-miterlimit="10" d="M746.5,1023.7c25.6,13.8,46.7,23.1,61.5,29.5
				c19.7,8.9,30.5,13.8,47.7,23.6c14.8,8.9,26.1,15.7,35.4,27.1c13.8,15.7,15.7,34.4,19.7,72.3c2.5,24.6,3.9,50.7,3.9,100.9
				c0,8.9,0,18.7,0,13.8s-115.6,8.9-557-2.5"/>
			<path fill="#CFC7E3" stroke="#5E5F5F" stroke-width="10" stroke-miterlimit="10" d="M531,1028.6c-25.6,13.8-46.7,23.1-61.5,29.5
				c-19.7,8.9-30.5,13.8-48.2,23.6c-14.8,8.9-25.6,15.7-35.4,27.1c-13.8,15.7-15.7,34.4-19.7,72.3c-2.5,24.6-3.9,50.7-3.9,100.9
				c0,8.9,0,18.7,0,13.8c0-4.9,115.6,8.9,557-2.5"/>
		</g>
		<g>
			<path fill="#CFC7E3" stroke="#5E5F5F" stroke-width="10" stroke-miterlimit="10" d="M641.7,1214.1c12.3,0,13.8-21.2,44.3-63
				c20.7-28,30.5-32,34.4-51.7c4.9-23.6-1-43.3-3.4-50.2c-1-2.5-5.9-19.7-10.8-18.7c-3.4,0-2.5,12.3-8.9,29.5
				c-3.9,9.8-7.4,24.6-19.7,35.4c-1,1-20.7,19.7-46.7,14.8c-22.1-3.9-36.9-22.1-41.8-39.4c-5.9-20.7,2.5-40.3-3.9-43.3
				c-4.9-2.5-12.3,5.9-14.8,8.9c-9.8,10.8-12.3,24.6-12.3,33.5c-1.5,22.1,5.9,40.3,12.3,50.2c8.4,13.8,13.8,15.7,27.1,29.5
				C630.4,1184.6,628.4,1213.1,641.7,1214.1z"/>
			<path fill="#CFC7E3" stroke="#5E5F5F" stroke-width="10" stroke-miterlimit="10" d="M597.4,1148.7c29.5,1,58.1,2.5,87.6,2.5"/>
		</g>
		<ellipse fill="#FCF6F9" stroke="#5E5F5F" stroke-width="10" stroke-miterlimit="10" cx="361.3" cy="646.8" rx="71.3" ry="83.6"/>
		<ellipse fill="#FCF6F9" stroke="#5E5F5F" stroke-width="10" stroke-miterlimit="10" cx="918.7" cy="636.9" rx="71.3" ry="83.6"/>
		<ellipse fill="#F2E1E9" cx="918.7" cy="643.3" rx="29.5" ry="56.6"/>
		<ellipse fill="#F2E1E9" cx="352.9" cy="656.6" rx="29.5" ry="56.6"/>
		<path fill="#FEF7FA" stroke="#5E5F5F" stroke-width="10" stroke-miterlimit="10" d="M646.6,960.7c38.4,1,46.7,2.5,69.9,1
			c17.2-1,36.9-3.9,60-10.8c35.4-12.3,59-33.5,71.3-44.3c5.9-5.9,32-29.5,53.1-70.4c8.9-15.7,20.7-39.4,24.6-72.3
			c3.4-30.5-2.5-39.4-2.5-95c0-24.6,1.5-20.7,2.5-48.2c1-44.3-2.5-59-4.9-124c-1-41.8-2.5-63-1-73.8c2.5-43.3,10.8-63,1-96
			c-4.9-15.7-14.8-39.4-24.6-38.4c-3.4,0-5.9,4.9-10.8,10.8c-5.9,8.9-12.3,12.3-38.4,27.1c-32,17.2-46.7,27.1-51.7,28.5
			c-33.5,13.8-61.5,16.2-84.6,17.2c-38.4,2.5-67.9-1-87.6-4.9c-22.1-3.9-24.6-5.9-100.9-32c-71.3-23.6-59-17.2-76.3-24.6
			c-41.8-15.7-76.3-33.5-82.7-25.6c-2.5,2.5,0,4.9,1,19.7c0,9.8-1,17.2-1,22.1c-2.5,15.7-2.5,39.4-2.5,72.8c0,44.3,1,63,1,102.3
			c0,12.3,0,35.4,0,45.3c0,1,0,3.9,0,3.9s0,9.8,0,19.7c0,14.8-1,60-1,83.6c0,41.8,0,61.5,1,76.3c2.5,29.5,3.9,49.2,12.3,74.8
			c10.8,30.5,26.1,53.1,33.5,63c7.4,9.8,29.5,38.4,68.9,60c9.8,4.9,39.4,22.1,81.2,28.5C581.2,963.2,579.2,958.2,646.6,960.7z"/>
		<path fill="none" stroke="#000000" stroke-width="10" stroke-miterlimit="10" d="M698.3,262c25.6-9.8,65-29.5,100.9-66.4
			c10.8-12.3,34.4-35.4,51.7-74.8c20.7-49.2,20.7-94.5,18.7-120.6"/>
		<path fill="none" stroke="#000000" stroke-width="10" stroke-miterlimit="10" d="M694.4,317.1c23.6-3.9,61.5-12.3,100.9-38.4
			c50.2-30.5,76.3-68.9,83.6-79.7c39.4-59,41.8-119.1,41.8-145.2"/>
		<path fill="#FEF7FA" stroke="#5E5F5F" stroke-width="10" stroke-miterlimit="10" d="M741.6,456.4c4.9-4.9,25.6-22.1,56.6-23.6
			c35.4-1,59,18.7,64,22.1"/>
		<path fill="#FEF7FA" stroke="#5E5F5F" stroke-width="10" stroke-miterlimit="10" d="M425.2,451.4c5.9-4.9,29.5-23.6,64-22.1
			c29.5,1,49.2,15.7,55.1,22.1"/>
		<path fill="#FEF7FA" stroke="#5E5F5F" stroke-width="10" stroke-miterlimit="10" d="M449.8,540c1-1,8.9-17.2,27.1-20.7
			c14.8-2.5,28.5,4.9,36.9,17.2"/>
		<path fill="#FEF7FA" stroke="#5E5F5F" stroke-width="10" stroke-miterlimit="10" d="M767.2,542.5c0-1,7.4-20.7,25.6-24.6
			c15.7-3.9,34.4,5.9,41.8,23.6"/>
		<path fill="#5E5F5F" stroke="#5E5F5F" stroke-width="10" stroke-miterlimit="10" d="M371.1,567.1c3.9,0,8.9,40.3,10.8,56.6
			c2.5,25.6,1,30.5,3.9,60.5c2.5,23.1,3.9,43.3,9.8,66.4c7.4,27.1,9.8,39.4,19.7,50.7c26.1,28,81.2,28,96,8.9
			c5.9-9.8,0-18.7,7.4-30.5s23.6-18.7,44.3-22.1c78.7-15.7,122,1,167.3,0c2.5,0,7.4,0,13.8,2.5c15.7,7.4,10.8,28.5,22.1,41.8
			c22.1,27.1,84.6,9.8,99.4-2.5c3.9-3.4,7.4-7.4,7.4-7.4c7.4-9.8,7.4-22.1,7.4-25.6c0-22.1,7.4-43.3,9.8-64
			c1.5-13.8,5.9-71.3,24.6-132.9c2.5-8.9,3.9-12.3,4.9-12.3c8.9,0,3.9,112.2-1,219c0,7.4-1,19.7-5.9,35.4
			c-2.5,8.9-7.4,18.7-27.1,46.7c-17.2,24.6-25.6,35.4-35.4,45.3c-19.7,18.7-38.4,27.1-51.7,34.4c-7.4,3.4-29.5,13.8-60,22.1
			c-40.3,9.8-71.3,8.9-112.2,7.4c-46.7-1-68.9-2.5-99.4-12.3c-43.3-13.8-71.3-35.4-81.2-44.3c-12.3-9.8-36.9-30.5-55.1-65
			c-17.2-33.5-20.7-61.5-26.1-91c-3.9-23.6-2.5-48.2-1-96C366.2,612.3,367.6,568.1,371.1,567.1z"/>
		<path fill="#FEF7FA" stroke="#FEF7FA" stroke-width="10" stroke-miterlimit="10" d="M608.8,852.5c23.6,0,46.7,0,71.3,0"/>
		<path fill="#FEF7FA" stroke="#FEF7FA" stroke-width="10" stroke-miterlimit="10" d="M582.7,795.9c10.8,4.9,24.6,9.8,41.8,12.3
			c35.4,5.9,64-1.5,81.2-5.9"/>
	</g>
	<path fill="none" stroke="#5E5F5F" stroke-width="10" stroke-miterlimit="10" d="M595,610.4c0,8.9,0,15.7,0,20.7
		c0,8.9,0,14.8,0,14.8c0,7.4-1,10.8,0,17.2c0,4.9,1,7.4,2.5,9.8c2.5,4.9,7.4,5.9,13.8,8.9c9.8,2.5,17.2,2.5,29.5,2.5
		c18.7-1.5,28.5-1.5,38.4-1.5c14.8,0,19.7,0,23.1-3.4c1.5-1,2.5-3.9,2.5-18.7c0-12.3,0-22.1,0-23.6c0-7.4-1-15.7-1-27.1"/>
	<g>
		<g>
			<path fill="#F1E0E8" d="M612.2,676.3c23.6,0,48.2-1,71.3-1c15.7,0,15.7-24.6,0-24.6c-23.1,0-47.7,1-71.3,1
				C596,651.7,596,676.3,612.2,676.3L612.2,676.3z"/>
		</g>
	</g>
	<circle fill="#F2E1E9" cx="802.6" cy="627.1" r="38.4"/>
	<circle fill="#F2E1E9" cx="485.7" cy="627.1" r="38.4"/>
	<path fill="#FEF7FA" stroke="#5E5F5F" stroke-width="10" stroke-miterlimit="10" d="M585.1,968.1c-1,29.5-1,51.7-1,64
		c-1,30.5-1,40.3,4.9,51.7c8.4,14.8,24.6,24.6,43.3,27.1c27.1,2.5,48.2-15.7,56.6-32c3.9-7.4,4.9-14.8,5.9-38.4
		c1-17.2,2.5-41.8,2.5-70.4h-2.5c-35.4-1-71.3-1-107.3-2.5"/>
</g>
</svg>
