<?xml version="1.0" encoding="UTF-8" standalone="no"?>
<svg width="112px" height="474px" viewBox="0 0 112 474" version="1.1" xmlns="http://www.w3.org/2000/svg" xmlns:xlink="http://www.w3.org/1999/xlink" xmlns:sketch="http://www.bohemiancoding.com/sketch/ns">
    <!-- Generator: Sketch 3.4.4 (17249) - http://www.bohemiancoding.com/sketch -->
    <defs>
        <filter x="-50%" y="-50%" width="200%" height="200%" filterUnits="objectBoundingBox" id="filter-1">
            <feOffset dx="0" dy="1" in="SourceAlpha" result="shadowOffsetOuter1"></feOffset>
            <feGaussianBlur stdDeviation="2" in="shadowOffsetOuter1" result="shadowBlurOuter1"></feGaussianBlur>
            <feColorMatrix values="0 0 0 0 0   0 0 0 0 0   0 0 0 0 0  0 0 0 0.35 0" in="shadowBlurOuter1" type="matrix" result="shadowMatrixOuter1"></feColorMatrix>
            <feMerge>
                <feMergeNode in="shadowMatrixOuter1"></feMergeNode>
                <feMergeNode in="SourceGraphic"></feMergeNode>
            </feMerge>
        </filter>
        <filter x="-50%" y="-50%" width="200%" height="200%" filterUnits="objectBoundingBox" id="filter-2">
            <feOffset dx="0" dy="1" in="SourceAlpha" result="shadowOffsetOuter1"></feOffset>
            <feGaussianBlur stdDeviation="2" in="shadowOffsetOuter1" result="shadowBlurOuter1"></feGaussianBlur>
            <feColorMatrix values="0 0 0 0 0   0 0 0 0 0   0 0 0 0 0  0 0 0 0.35 0" in="shadowBlurOuter1" type="matrix" result="shadowMatrixOuter1"></feColorMatrix>
            <feMerge>
                <feMergeNode in="shadowMatrixOuter1"></feMergeNode>
                <feMergeNode in="SourceGraphic"></feMergeNode>
            </feMerge>
        </filter>
        <filter x="-50%" y="-50%" width="200%" height="200%" filterUnits="objectBoundingBox" id="filter-3">
            <feOffset dx="0" dy="1" in="SourceAlpha" result="shadowOffsetOuter1"></feOffset>
            <feGaussianBlur stdDeviation="2" in="shadowOffsetOuter1" result="shadowBlurOuter1"></feGaussianBlur>
            <feColorMatrix values="0 0 0 0 0   0 0 0 0 0   0 0 0 0 0  0 0 0 0.35 0" in="shadowBlurOuter1" type="matrix" result="shadowMatrixOuter1"></feColorMatrix>
            <feMerge>
                <feMergeNode in="shadowMatrixOuter1"></feMergeNode>
                <feMergeNode in="SourceGraphic"></feMergeNode>
            </feMerge>
        </filter>
        <filter x="-50%" y="-50%" width="200%" height="200%" filterUnits="objectBoundingBox" id="filter-4">
            <feOffset dx="0" dy="1" in="SourceAlpha" result="shadowOffsetOuter1"></feOffset>
            <feGaussianBlur stdDeviation="2" in="shadowOffsetOuter1" result="shadowBlurOuter1"></feGaussianBlur>
            <feColorMatrix values="0 0 0 0 0   0 0 0 0 0   0 0 0 0 0  0 0 0 0.35 0" in="shadowBlurOuter1" type="matrix" result="shadowMatrixOuter1"></feColorMatrix>
            <feMerge>
                <feMergeNode in="shadowMatrixOuter1"></feMergeNode>
                <feMergeNode in="SourceGraphic"></feMergeNode>
            </feMerge>
        </filter>
        <filter x="-50%" y="-50%" width="200%" height="200%" filterUnits="objectBoundingBox" id="filter-5">
            <feOffset dx="0" dy="1" in="SourceAlpha" result="shadowOffsetOuter1"></feOffset>
            <feGaussianBlur stdDeviation="2" in="shadowOffsetOuter1" result="shadowBlurOuter1"></feGaussianBlur>
            <feColorMatrix values="0 0 0 0 0   0 0 0 0 0   0 0 0 0 0  0 0 0 0.35 0" in="shadowBlurOuter1" type="matrix" result="shadowMatrixOuter1"></feColorMatrix>
            <feMerge>
                <feMergeNode in="shadowMatrixOuter1"></feMergeNode>
                <feMergeNode in="SourceGraphic"></feMergeNode>
            </feMerge>
        </filter>
        <filter x="-50%" y="-50%" width="200%" height="200%" filterUnits="objectBoundingBox" id="filter-6">
            <feOffset dx="0" dy="1" in="SourceAlpha" result="shadowOffsetOuter1"></feOffset>
            <feGaussianBlur stdDeviation="2" in="shadowOffsetOuter1" result="shadowBlurOuter1"></feGaussianBlur>
            <feColorMatrix values="0 0 0 0 0   0 0 0 0 0   0 0 0 0 0  0 0 0 0.35 0" in="shadowBlurOuter1" type="matrix" result="shadowMatrixOuter1"></feColorMatrix>
            <feMerge>
                <feMergeNode in="shadowMatrixOuter1"></feMergeNode>
                <feMergeNode in="SourceGraphic"></feMergeNode>
            </feMerge>
        </filter>
    </defs>
    <g id="Page-1" stroke="none" stroke-width="1" fill="none" fill-rule="evenodd" sketch:type="MSPage">
        <g id="Artboard-1" sketch:type="MSArtboardGroup">
            <g id="carousel_arrow_sprites_56x79" sketch:type="MSLayerGroup" transform="translate(20.000000, 25.000000)">
                <path d="M71.103,410.154 C71.107,409.657 70.926,409.157 70.556,408.777 L58.306,396.221 C57.939,395.846 57.46,395.658 56.98,395.658 C56.5,395.658 56.021,395.846 55.655,396.221 C54.923,396.97 54.923,398.187 55.655,398.938 L66.602,410.158 L55.656,421.378 C54.924,422.127 54.924,423.344 55.656,424.095 C56.388,424.846 57.575,424.846 58.307,424.095 L70.557,411.539 C70.93,411.158 71.111,410.655 71.103,410.154 L71.103,410.154 Z" id="orange_x5F_next_shadow" fill="#F15B24" filter="url(#filter-1)" sketch:type="MSShapeGroup"></path>
                <path d="M71.103,251.987 C71.107,251.49 70.926,250.99 70.556,250.61 L58.306,238.054 C57.939,237.679 57.46,237.491 56.98,237.491 C56.5,237.491 56.021,237.679 55.655,238.054 C54.923,238.803 54.923,240.02 55.655,240.771 L66.602,251.991 L55.656,263.211 C54.924,263.96 54.924,265.177 55.656,265.928 C56.388,266.679 57.575,266.679 58.307,265.928 L70.557,253.372 C70.93,252.991 71.111,252.488 71.103,251.987 L71.103,251.987 Z" id="gray_x5F_next_shadow" fill="#43413E" filter="url(#filter-2)" sketch:type="MSShapeGroup"></path>
                <path d="M59.608,331.22 L70.554,320 C71.286,319.251 71.286,318.034 70.554,317.283 C69.822,316.532 68.635,316.532 67.903,317.283 L55.653,329.839 C55.281,330.219 55.1,330.72 55.106,331.219 C55.1,331.718 55.281,332.219 55.653,332.601 L67.903,345.157 C68.269,345.532 68.748,345.72 69.228,345.72 C69.708,345.72 70.188,345.532 70.554,345.157 C71.286,344.408 71.286,343.191 70.554,342.44 L59.608,331.22 L59.608,331.22 Z" id="orange_x5F_prev_shadow" fill="#F15B24" filter="url(#filter-3)" sketch:type="MSShapeGroup"></path>
                <path d="M59.61,173.054 L70.556,161.834 C71.288,161.085 71.288,159.868 70.556,159.117 C69.824,158.366 68.637,158.366 67.905,159.117 L55.655,171.673 C55.283,172.053 55.102,172.554 55.108,173.053 C55.102,173.552 55.283,174.054 55.655,174.435 L67.905,186.991 C68.271,187.366 68.75,187.554 69.23,187.554 C69.709,187.554 70.189,187.366 70.556,186.991 C71.288,186.242 71.288,185.025 70.556,184.274 L59.61,173.054 L59.61,173.054 Z" id="gray_x5F_prev_shadow" fill="#43413E" filter="url(#filter-4)" sketch:type="MSShapeGroup"></path>
                <path d="M71.102,94.106 C71.106,93.609 70.925,93.109 70.555,92.729 L58.305,80.173 C57.938,79.798 57.459,79.61 56.979,79.61 C56.499,79.61 56.02,79.798 55.654,80.173 C54.922,80.922 54.922,82.139 55.654,82.89 L66.6,94.11 L55.654,105.33 C54.922,106.079 54.922,107.296 55.654,108.047 C56.386,108.798 57.573,108.798 58.305,108.047 L70.555,95.491 C70.928,95.11 71.109,94.607 71.102,94.106 L71.102,94.106 Z" id="white_x5F_next_shadow" fill="#FFFFFF" filter="url(#filter-5)" sketch:type="MSShapeGroup"></path>
                <path d="M59.611,14.992 L70.557,3.772 C71.289,3.023 71.289,1.806 70.557,1.055 C69.825,0.304 68.638,0.304 67.906,1.055 L55.656,13.611 C55.284,13.991 55.103,14.492 55.109,14.991 C55.103,15.49 55.284,15.991 55.656,16.373 L67.906,28.929 C68.272,29.304 68.751,29.492 69.231,29.492 C69.71,29.492 70.19,29.304 70.557,28.929 C71.289,28.18 71.289,26.963 70.557,26.212 L59.611,14.992 L59.611,14.992 Z" id="white_x5F_prev_shadow" fill="#FFFFFF" filter="url(#filter-6)" sketch:type="MSShapeGroup"></path>
                <path d="M16.103,410.154 C16.107,409.657 15.926,409.157 15.556,408.777 L3.306,396.221 C2.939,395.846 2.46,395.658 1.98,395.658 C1.5,395.658 1.021,395.846 0.655,396.221 C-0.077,396.97 -0.077,398.187 0.655,398.938 L11.602,410.158 L0.656,421.378 C-0.076,422.127 -0.076,423.344 0.656,424.095 C1.388,424.846 2.575,424.846 3.307,424.095 L15.557,411.539 C15.93,411.158 16.111,410.655 16.103,410.154 L16.103,410.154 Z" id="orange_x5F_next" fill="#F15B24" sketch:type="MSShapeGroup"></path>
                <path d="M16.103,251.987 C16.107,251.49 15.926,250.99 15.556,250.61 L3.306,238.054 C2.939,237.679 2.46,237.491 1.98,237.491 C1.5,237.491 1.021,237.679 0.655,238.054 C-0.077,238.803 -0.077,240.02 0.655,240.771 L11.602,251.991 L0.656,263.211 C-0.076,263.96 -0.076,265.177 0.656,265.928 C1.388,266.679 2.575,266.679 3.307,265.928 L15.557,253.372 C15.93,252.991 16.111,252.488 16.103,251.987 L16.103,251.987 Z" id="gray_x5F_next" fill="#43413E" sketch:type="MSShapeGroup"></path>
                <path d="M4.608,331.22 L15.554,320 C16.286,319.251 16.286,318.034 15.554,317.283 C14.822,316.532 13.635,316.532 12.903,317.283 L0.653,329.839 C0.281,330.219 0.1,330.72 0.106,331.219 C0.1,331.718 0.281,332.219 0.653,332.601 L12.903,345.157 C13.269,345.532 13.748,345.72 14.228,345.72 C14.708,345.72 15.188,345.532 15.554,345.157 C16.286,344.408 16.286,343.191 15.554,342.44 L4.608,331.22 L4.608,331.22 Z" id="orange_x5F_prev" fill="#F15B24" sketch:type="MSShapeGroup"></path>
                <path d="M4.61,173.054 L15.556,161.834 C16.288,161.085 16.288,159.868 15.556,159.117 C14.824,158.366 13.637,158.366 12.905,159.117 L0.655,171.673 C0.283,172.053 0.102,172.554 0.108,173.053 C0.102,173.552 0.283,174.054 0.655,174.435 L12.905,186.991 C13.271,187.366 13.75,187.554 14.23,187.554 C14.709,187.554 15.189,187.366 15.556,186.991 C16.288,186.242 16.288,185.025 15.556,184.274 L4.61,173.054 L4.61,173.054 Z" id="gray_x5F_prev" fill="#43413E" sketch:type="MSShapeGroup"></path>
                <path d="M16.102,94.106 C16.106,93.609 15.925,93.109 15.555,92.729 L3.305,80.173 C2.938,79.798 2.459,79.61 1.979,79.61 C1.499,79.61 1.02,79.798 0.654,80.173 C-0.078,80.922 -0.078,82.139 0.654,82.89 L11.6,94.11 L0.654,105.33 C-0.078,106.079 -0.078,107.296 0.654,108.047 C1.386,108.798 2.573,108.798 3.305,108.047 L15.555,95.491 C15.928,95.11 16.109,94.607 16.102,94.106 L16.102,94.106 Z" id="white_x5F_next" fill="#FFFFFF" sketch:type="MSShapeGroup"></path>
                <path d="M4.611,14.992 L15.557,3.772 C16.289,3.023 16.289,1.806 15.557,1.055 C14.825,0.304 13.638,0.304 12.906,1.055 L0.656,13.611 C0.284,13.991 0.103,14.492 0.109,14.991 C0.103,15.49 0.284,15.991 0.656,16.373 L12.906,28.929 C13.272,29.304 13.751,29.492 14.231,29.492 C14.71,29.492 15.19,29.304 15.557,28.929 C16.289,28.18 16.289,26.963 15.557,26.212 L4.611,14.992 L4.611,14.992 Z" id="white_x5F_prev" fill="#FFFFFF" sketch:type="MSShapeGroup"></path>
            </g>
        </g>
    </g>
</svg>