<?xml version="1.0" encoding="UTF-8" standalone="no"?>
<svg width="512px" height="512px" viewBox="0 0 50 50" version="1.1" xmlns="http://www.w3.org/2000/svg" xmlns:xlink="http://www.w3.org/1999/xlink" xmlns:sketch="http://www.bohemiancoding.com/sketch/ns">
    <!-- Generator: Sketch 3.4 (15588) - http://www.bohemiancoding.com/sketch -->
    <title>clock</title>
    <desc>Created with Sketch.</desc>
    <defs></defs>
    <g id="Page-1" stroke="none" stroke-width="1" fill="none" fill-rule="evenodd" sketch:type="MSPage">
        <g id="Menu" sketch:type="MSArtboardGroup" transform="translate(-105.000000, -124.000000)" fill="#ffffff">
            <g id="ETA" sketch:type="MSLayerGroup" transform="translate(105.000000, 123.000000)">
                <g id="clock" transform="translate(0.000000, 1.000000)" sketch:type="MSShapeGroup">
                    <path d="M11.5,0 C5.149,0 0,5.149 0,11.5 C0,17.851 5.149,23 11.5,23 C17.851,23 23,17.851 23,11.5 C23,5.149 17.851,0 11.5,0 M11.5,1 C17.29,1 22,5.71 22,11.5 C22,17.29 17.29,22 11.5,22 C5.71,22 1,17.29 1,11.5 C1,5.71 5.71,1 11.5,1" id="Fill-1"></path>
                    <path d="M15.5,16 C15.396,16 15.29,15.968 15.2,15.9 L11,12.75 L11,6.5 C11,6.224 11.224,6 11.5,6 C11.776,6 12,6.224 12,6.5 L12,12.25 L15.8,15.1 C16.021,15.266 16.065,15.579 15.9,15.8 C15.802,15.931 15.651,16 15.5,16" id="Fill-3"></path>
                </g>
            </g>
        </g>
    </g>
</svg>