<!-- Generator: Adobe Illustrator 19.1.0, SVG Export Plug-In  -->
<svg version="1.1"
   xmlns="http://www.w3.org/2000/svg" xmlns:xlink="http://www.w3.org/1999/xlink" xmlns:a="http://ns.adobe.com/AdobeSVGViewerExtensions/3.0/"
   x="0px" y="0px" width="41px" height="153.4px" viewBox="0 0 41 153.4" enable-background="new 0 0 41 153.4" xml:space="preserve"
  >
<defs>
</defs>
<path id="XMLID_17_" fill="#231F20" d="M32.8,137.4H10.7l0,0.2c0.2,2.1,1.9,3.8,4.1,3.8H38c0.6,0,1,0.4,1,1s-0.4,1-1,1H14.7
  c-3.2,0-5.8-2.5-6.1-5.6l-1.3-18.6c-0.2-2.1-1.9-3.8-4.1-3.8H1c-0.6,0-1-0.4-1-1s0.4-1,1-1h2.3c3.2,0,5.8,2.5,6.1,5.6l1.2,16.4h22.3
  c1.5,0,2.7-0.9,3.2-2.3l3-11.9c0.1-0.5,0.7-0.9,1.2-0.7c0.5,0.1,0.9,0.7,0.7,1.2l-3,12C37.2,135.9,35.2,137.4,32.8,137.4z M37,149.4
  c0,2.2-1.8,4-4,4s-4-1.8-4-4s1.8-4,4-4S37,147.2,37,149.4z M35,149.4c0-1.1-0.9-2-2-2s-2,0.9-2,2s0.9,2,2,2S35,150.5,35,149.4z
   M19,149.4c0,2.2-1.8,4-4,4s-4-1.8-4-4s1.8-4,4-4S19,147.2,19,149.4z M17,149.4c0-1.1-0.9-2-2-2s-2,0.9-2,2s0.9,2,2,2
  S17,150.5,17,149.4z"/>
</svg>
