<?xml version="1.0" encoding="utf-8"?>
<!-- Generator: Adobe Illustrator 18.1.1, SVG Export Plug-In . SVG Version: 6.00 Build 0)  -->
<!DOCTYPE svg PUBLIC "-//W3C//DTD SVG 1.1//EN" "http://www.w3.org/Graphics/SVG/1.1/DTD/svg11.dtd">
<svg version="1.1" id="Layer_1" xmlns="http://www.w3.org/2000/svg" xmlns:xlink="http://www.w3.org/1999/xlink" x="0px" y="0px"
	 width="23px" height="400px" viewBox="0 0 23 400" enable-background="new 0 0 23 400" xml:space="preserve">
<g id="filter-egg-free_1_">
	<g id="Egg">
	</g>
	<g id="Layer_4">
	</g>
	<g id="crossout_6_">
		<path fill="#F15B24" d="M1.3,373.5l5.5-5.5l0.8,0.8l-5.5,5.5L1.3,373.5z"/>
		<path fill="#F15B24" d="M4.5,367C2,367,0,369,0,371.5s2,4.5,4.5,4.5s4.5-2,4.5-4.5S7,367,4.5,367z M4.5,374.6
			c-1.7,0-3.1-1.4-3.1-3.1s1.4-3.1,3.1-3.1s3.1,1.4,3.1,3.1S6.2,374.6,4.5,374.6z"/>
	</g>
	<g id="Egg_copy_7">
		<g>
			<path fill="#43413E" d="M16,356c0.3,0,0.7,0.1,1,0.3c0.9,0.4,1.7,1.2,2.4,2.4c0.1,0.1,0.2,0.3,0.2,0.4c0.1,0.1,0.1,0.2,0.1,0.3
				c0.5,1,0.8,2.1,1,3.3c0.1,1,0.1,2-0.2,2.9c-0.3,1-0.8,1.9-1.5,2.6c-0.4,0.4-0.9,0.8-1.5,1l0,0c-0.2,0-0.4,0.1-0.6,0.2
				c-0.3,0.1-0.6,0.2-0.8,0.2c-0.1,0-0.3,0-0.4,0c-1.6,0-2.7-0.6-3.7-1.9c-0.7-0.9-1.1-1.9-1.2-3.2c-0.1-1.5,0.1-2.9,0.8-4.6
				c0.4-1,0.9-1.8,1.6-2.5c0.8-0.9,1.6-1.3,2.5-1.4C15.9,356,16,356,16,356 M16,354c-0.1,0-0.2,0-0.3,0c-1.5,0.1-2.7,0.9-3.8,2
				c-0.9,0.9-1.5,2-2,3.1c-0.7,1.8-1.1,3.6-0.9,5.5c0.1,1.6,0.7,3,1.6,4.2c1.4,1.8,3.2,2.6,5.3,2.6c0.2,0,0.4,0,0.5,0
				c0.6,0,1.1-0.3,1.7-0.4c0.1,0,0.2,0,0.2-0.1c0.8-0.3,1.6-0.8,2.2-1.4c1-1,1.7-2.2,2-3.5c0.3-1.2,0.4-2.5,0.2-3.7
				c-0.2-1.4-0.6-2.7-1.2-3.9c-0.2-0.3-0.3-0.6-0.5-0.8c-0.8-1.3-1.9-2.4-3.3-3.1C17.3,354.2,16.7,354,16,354L16,354z"/>
		</g>
	</g>
</g>
<g id="filter-vegan">
	<g id="XMLID_3_">
		<g>
			<path fill="#FFFFFF" d="M11.8,316.9c1.5,0,2.7-1.2,2.7-2.7c0-1.5-1.2-2.7-2.7-2.7s-2.7,1.2-2.7,2.7
				C9.1,315.6,10.3,316.9,11.8,316.9z M11.8,319.3c-2.1-0.1-3.9-1.4-4.7-3.3c-0.1-0.1-0.1-0.3-0.1-0.4c-0.1-0.5-0.2-2.4,0.6-3.8
				l2.9-5.1c0.2-0.2,0.3-0.5,0.4-0.8c0.3-0.6,0.6-0.7,0.8-0.7v0c0,0,0.1,0,0.1,0c0,0,0.1,0,0.1,0v0c0.2,0,0.5,0.2,0.8,0.7
				c0.1,0.2,0.3,0.5,0.4,0.8l2.9,5.1c0.8,1.3,0.7,3.2,0.6,3.8c0,0.1-0.1,0.3-0.1,0.4C15.7,317.9,13.9,319.2,11.8,319.3z"/>
			<path fill="#F15B24" d="M14.5,314.1c0,1.5-1.2,2.7-2.7,2.7s-2.7-1.2-2.7-2.7c0-1.5,1.2-2.7,2.7-2.7S14.5,312.6,14.5,314.1z"/>
			<path fill="#43413E" d="M11.6,321.1c-3.3-0.2-6-2.5-6.8-5.5c-0.1-0.5-0.3-2.8,0.6-4.3l3.1-5.4c0.1-0.2,0.3-0.5,0.4-0.7
				c0.5-0.9,1.3-1.8,2.7-1.9v0c0,0,0.1,0,0.1,0s0.1,0,0.1,0v0c1.4,0.1,2.2,1,2.7,1.9c0.1,0.2,0.2,0.4,0.4,0.7l3.1,5.4
				c0.9,1.5,0.7,3.8,0.6,4.3c-0.8,3-3.5,5.3-6.8,5.5v0c0,0-0.1,0-0.1,0S11.7,321.1,11.6,321.1C11.6,321.1,11.6,321.1,11.6,321.1z
				 M10.4,306.8l-2.9,5.1c-0.8,1.3-0.7,3.2-0.6,3.8c0,0.1,0.1,0.3,0.1,0.4c0.8,1.8,2.6,3.1,4.7,3.3c2.1-0.1,3.9-1.4,4.8-3.3
				c0.1-0.1,0.1-0.3,0.1-0.4c0.1-0.5,0.2-2.4-0.6-3.8l-2.9-5.1c-0.2-0.2-0.3-0.5-0.4-0.8c-0.3-0.6-0.6-0.7-0.8-0.7v0
				c0,0-0.1,0-0.1,0c0,0-0.1,0-0.1,0v0c-0.2,0-0.5,0.2-0.8,0.7C10.7,306.3,10.5,306.5,10.4,306.8z"/>
		</g>
	</g>
</g>
<g id="filter-nut-free">
	<g id="XMLID_2_">
		<path fill="#FFFFFF" d="M14.4,266.7C14.4,266.7,14.4,266.6,14.4,266.7l2.1-0.1c0,0,0,0,0.1,0c0,1.3-0.2,3.9-2.1,3.9c0,0,0,0-0.1,0
			V266.7z"/>
		<path fill="#FFFFFF" d="M11.3,266.6h2c0,0,0,0,0,0c0,0,0,0,0,0c0,0,0,0,0,0v3.9c0,0,0,0-0.1,0C11.6,270.5,11.2,267.9,11.3,266.6
			C11.3,266.6,11.3,266.6,11.3,266.6z"/>
		<path fill="#FFFFFF" d="M14.4,262.7C14.4,262.7,14.5,262.6,14.4,262.7l0.5-0.1H15c0,0,0.1,0.1,0.1,0.1l0.9,2l0.2,0.9c0,0,0,0,0,0
			c0,0,0,0,0,0h-1.6c0,0-0.1,0-0.1,0C14.4,265.6,14.4,262.7,14.4,262.7z"/>
		<path fill="#FFFFFF" d="M11.7,265.5l0.2-0.9l0.7-1.7c0,0,0.1-0.1,0.1-0.3c0,0,0.1,0,0.1,0h0.5c0,0,0,0,0,0v2.8c0,0,0,0-0.1,0
			c0,0,0,0,0,0c0,0,0,0,0,0L11.7,265.5C11.8,265.6,11.7,265.6,11.7,265.5z"/>
		<path fill="#FFFFFF" d="M14.6,261.6c0,0-0.1-0.1-0.1-0.1v-2.8c0,0,0.1-0.1,0.1-0.1h1.6c0,0,0,0,0,0c0,0,0,0.1,0,0.1l-0.1,0.4
			l-0.8,2.4v0c0,0,0,0-0.1,0H14.6z"/>
		<path fill="#FFFFFF" d="M12.6,261.5l-0.8-2.4l-0.2-0.5c0,0,0,0,0,0h1.5c0,0,0.1,0.1,0.1,0.1v2.8c0,0,0,0,0,0c0,0-0.1,0.1-0.1,0.1
			L12.6,261.5C12.7,261.6,12.7,261.6,12.6,261.5C12.6,261.5,12.6,261.5,12.6,261.5z"/>
		<path fill="#FFFFFF" d="M14.5,257.6C14.5,257.5,14.4,257.5,14.5,257.6l-0.1-3.9c0,0,0.1,0,0.1,0c1.8,0,2,2.5,2,3.8c0,0,0,0,0,0
			c0,0-0.1,0-0.1,0.1c0,0,0,0,0,0H14.5z"/>
		<path fill="#FFFFFF" d="M11.2,257.5c0-1.4,0.3-3.8,2.1-3.8l0,0c0,0,0,0.1,0.1,0.1v3.8c0,0-0.1,0-0.1,0.1h-2c0,0,0,0,0,0
			S11.3,257.5,11.2,257.5C11.2,257.5,11.2,257.5,11.2,257.5z"/>
		<path fill="#43413E" d="M11.9,264.6l-0.2,0.9c0,0,0,0,0.1,0h1.5c0,0,0,0,0,0c0,0,0,0,0,0c0,0,0,0,0.1,0v-2.8c0,0,0,0,0,0h-0.5
			c0,0,0,0-0.1,0c0,0.2-0.1,0.3-0.1,0.3L11.9,264.6z M11.9,259.1l0.8,2.4c0,0,0,0,0,0c0,0,0.1,0,0.1,0.1h0.6c0,0,0-0.1,0.1-0.1
			c0,0,0,0,0,0v-2.8c-0.1,0-0.1-0.1-0.1-0.1h-1.5c0,0,0,0,0,0L11.9,259.1z M13.3,266.6h-2c0,0,0,0,0,0c0,1.2,0.3,3.9,2.1,3.9
			c0,0,0,0,0.1,0L13.3,266.6C13.4,266.7,13.4,266.6,13.3,266.6C13.3,266.6,13.3,266.6,13.3,266.6C13.3,266.6,13.3,266.6,13.3,266.6z
			 M11.3,257.6C11.3,257.6,11.3,257.6,11.3,257.6l2,0c0,0,0.1,0,0.1-0.1v-3.8c0,0,0-0.1-0.1-0.1l0,0c-1.8,0-2.1,2.4-2.1,3.8
			C11.2,257.5,11.2,257.5,11.3,257.6C11.3,257.5,11.3,257.5,11.3,257.6z M18.5,267.6c0,2.7-1.8,4.9-4.5,5c0,0,0,0,0,0c0,0,0,0,0,0
			c0,0-0.1,0-0.1,0c0,0,0,0-0.1,0c-2.8-0.1-4.5-2.3-4.5-5c0-0.4,0.1-0.9,0.2-1.4c0,0,0,0,0,0s0,0,0,0c0,0,0,0,0,0l0.1-0.2
			c0.1-0.2,0.1-0.3,0.2-0.5l0.9-2c0,0,0,0,0,0c0.2-0.4,0.3-0.8,0.3-1.2c0-0.4-0.1-0.9-0.3-1.2c0,0,0,0,0,0l-0.9-2
			c-0.1-0.1-0.1-0.3-0.2-0.5l-0.1-0.2c0,0,0,0,0,0c0,0,0,0,0,0s0,0,0,0c-0.2-0.5-0.2-1-0.2-1.4c0-2.7,1.8-4.9,4.5-5c0,0,0,0,0,0
			c0,0,0,0,0,0c0,0,0,0,0.1,0s0,0,0,0c2.8,0.1,4.5,2.3,4.5,5c0,0.5-0.1,0.9-0.2,1.4c0,0,0,0,0,0s0,0,0,0c0,0,0,0,0,0l-0.1,0.2
			c-0.1,0.2-0.1,0.3-0.2,0.5l-0.9,2c0,0,0,0,0,0c-0.2,0.4-0.3,0.8-0.3,1.2c0,0.4,0.1,0.9,0.3,1.2c0,0,0,0,0,0l0.9,2
			c0.1,0.1,0.1,0.3,0.2,0.5l0.1,0.2c0,0,0,0,0,0c0,0,0,0,0,0s0,0,0,0C18.5,266.7,18.5,267.1,18.5,267.6z M14.5,262.6
			C14.5,262.6,14.4,262.6,14.5,262.6l-0.1,2.9c0,0,0.1,0,0.1,0h1.6c0,0,0,0,0,0c0,0,0,0,0,0l-0.2-0.9l-0.9-2c0,0-0.1-0.1-0.1-0.1
			h-0.1L14.5,262.6L14.5,262.6z M16.5,266.6h-2.1c0,0,0,0,0,0.1v3.8c0,0,0,0,0.1,0C16.4,270.5,16.6,268,16.5,266.6
			C16.6,266.6,16.5,266.6,16.5,266.6z M14.4,261.5c0.1,0,0.1,0,0.1,0.1h0.6c0,0,0,0,0.1,0v0l0.8-2.4l0.1-0.4c0,0,0-0.1,0-0.1
			c0,0,0,0,0,0h-1.6c0,0-0.1,0.1-0.1,0.1C14.4,258.7,14.4,261.5,14.4,261.5z M14.4,257.5C14.4,257.5,14.5,257.5,14.4,257.5l2,0.1
			c0,0,0,0,0,0c0,0,0.1-0.1,0.1-0.1c0,0,0,0,0,0c0-1.4-0.3-3.8-2-3.8c0,0-0.1,0-0.1,0C14.4,253.7,14.4,257.5,14.4,257.5z"/>
	</g>
	<path fill="#F15B24" d="M1.7,274.1l5.5-5.5l0.8,0.8L2.6,275L1.7,274.1z"/>
	<path fill="#F15B24" d="M4.9,267.6c-2.5,0-4.5,2-4.5,4.5s2,4.5,4.5,4.5s4.5-2,4.5-4.5S7.4,267.6,4.9,267.6z M4.9,275.3
		c-1.7,0-3.1-1.4-3.1-3.1s1.4-3.1,3.1-3.1s3.1,1.4,3.1,3.1S6.6,275.3,4.9,275.3z"/>
</g>
<g id="filter-dairy-free">
	<path fill="#F15B24" d="M13.9,207.1l7.9,6.6L5,212.5C7.4,209.9,10.5,208,13.9,207.1z"/>
	<g id="XMLID_1_">
		<path fill="#FFFFFF" d="M17.1,216.8c-1.2,0-2.1,0.9-2.1,2.1c0,1.2,0.9,2.1,2.1,2.1c1.2,0,2.1-1,2.1-2.1
			C19.2,217.7,18.3,216.8,17.1,216.8z M11.1,220.3c1.5,0,2.7-1.2,2.7-2.7s-1.2-2.7-2.7-2.7c-1.5,0-2.7,1.2-2.7,2.7
			C8.5,219.1,9.7,220.3,11.1,220.3z M6.6,221.2v-7.5l14,1v7.6L6.6,221.2z"/>
		<path fill="#43413E" d="M18.2,218.9c0-0.6-0.5-1.1-1.1-1.1c-0.6,0-1.1,0.5-1.1,1.1c0,0.6,0.5,1.1,1.1,1.1
			C17.7,220.1,18.2,219.5,18.2,218.9z M15,218.9c0-1.2,0.9-2.1,2.1-2.1c1.2,0,2.1,0.9,2.1,2.1c0,1.2-1,2.1-2.1,2.1
			C15.9,221.1,15,220.1,15,218.9z"/>
		<path fill="#43413E" d="M11.1,215.9c-0.9,0-1.6,0.8-1.6,1.7s0.7,1.7,1.6,1.7s1.6-0.7,1.6-1.7S12.1,215.9,11.1,215.9z M13.8,217.6
			c0,1.5-1.2,2.7-2.7,2.7c-1.5,0-2.7-1.2-2.7-2.7s1.2-2.7,2.7-2.7C12.6,214.9,13.8,216.1,13.8,217.6z"/>
		<path fill="#43413E" d="M6.6,213.7v7.5l14,1.1v-7.6L6.6,213.7z M6.2,210.6c2.1-2.1,4.9-3.9,7.9-4.5c0.6,0,1.2,0.5,1.6,0.9
			c0.7,0.6,1.4,1.3,2.2,1.9c1,0.9,2,1.9,3.1,2.8c0.5,0.4,1,0.7,1.3,1.3c0.3,0.6,0.3,1.3,0.3,2c0,0.9,0,1.8-0.1,2.7
			c0,0.8-0.1,1.5,0,2.3c0,0.7,0,1.3,0.1,2c0,0.5,0,1.1-0.4,1.5c-0.2,0.3-0.6,0.4-1,0.4c-0.4,0-0.9-0.1-1.3-0.1c-0.2,0-0.5,0-0.7-0.1
			c-1.5-0.1-3.1-0.2-4.6-0.4c-1-0.1-2-0.2-2.9-0.2l-6.2-0.4c-0.7-0.1-0.8-0.6-0.8-0.9v-1.8v-2.4v-5.2c0-0.1,0.2-0.4,0.3-0.5
			c0.1-0.2,0.2-0.4,0.4-0.5C5.6,211.2,5.9,210.9,6.2,210.6z M13.8,207.7c-2.7,0.8-5.1,2.3-7,4.3l13.2,0.9L13.8,207.7z"/>
	</g>
	<path fill="#F15B24" d="M1.9,226.6l5.5-5.5l0.8,0.8l-5.5,5.5L1.9,226.6z"/>
	<path fill="#F15B24" d="M5.1,220.1c-2.5,0-4.5,2-4.5,4.5s2,4.5,4.5,4.5s4.5-2,4.5-4.5S7.6,220.1,5.1,220.1z M5.1,227.8
		c-1.7,0-3.1-1.4-3.1-3.1s1.4-3.1,3.1-3.1s3.1,1.4,3.1,3.1S6.9,227.8,5.1,227.8z"/>
</g>
<g id="filter-wheat-free">
	<path fill="#F15B24" d="M5.3,170.8c-2.5,0-4.5,2-4.5,4.5s2,4.5,4.5,4.5s4.5-2,4.5-4.5S7.8,170.8,5.3,170.8z M5.3,172.1
		c0.6,0,1.1,0.2,1.6,0.4l-4.3,4.3c-0.3-0.5-0.4-1-0.4-1.6C2.2,173.6,3.6,172.1,5.3,172.1z M5.3,178.4c-0.7,0-1.4-0.3-1.9-0.7
		l4.4-4.4c0.4,0.5,0.7,1.2,0.7,1.9C8.4,177,7,178.4,5.3,178.4z"/>
	<path fill="#43413E" d="M13.7,163.3c0.1,0.1,0.2,0.1,0.3,0c0.3-0.2,0.5-0.5,0.7-0.8c0.2-0.3,0.5-0.5,0.7-0.8
		c0.2-0.2,0.1-0.4,0.1-0.7c-0.1-0.9-0.4-1.7-0.7-2.6c-0.2-0.7-0.3-1.4-0.4-2c-0.1-0.5-0.2-1.3-0.5-1.3c-0.3,0-0.4,0.6-0.4,0.8
		c-0.1,0.5-0.2,1.1-0.4,1.6c-0.2,0.7-0.5,1.4-0.7,2.1c-0.1,0.4-0.2,0.7-0.3,1.1c-0.1,0.3-0.2,0.6,0,0.9c0.2,0.3,0.5,0.5,0.8,0.8
		C13.1,162.7,13.4,163,13.7,163.3z"/>
	<path fill="#43413E" d="M14.3,166.6l3.5-3.3c0.2-0.2,0.4-0.7,0.4-1.1l0.2-1.4c0-0.4-0.1-0.6-0.3-0.4l-3.2,3.1
		c-0.2,0.2-0.7,0.9-0.7,1.3l-0.2,1.4C14,166.6,14.1,166.8,14.3,166.6z M9.8,163.3l3.5,3.6c0.2,0.2,0.3,0,0.3-0.4l-0.2-1.4
		c0-0.4-0.2-0.9-0.4-1.1l-3.5-3.6c-0.2-0.2-0.3,0-0.3,0.4l0.2,1.4C9.4,162.6,9.6,163.1,9.8,163.3z M9.8,167.3l3.5,3.6
		c0.2,0.2,0.3,0,0.3-0.4l-0.2-1.5c0-0.4-0.2-0.9-0.4-1.1l-3.5-3.6c-0.2-0.2-0.3,0-0.3,0.4l0.2,1.5C9.4,166.6,9.6,167.1,9.8,167.3z
		 M18.1,168.2c0,0-3.2,3.1-3.2,3.1c-0.2,0.2-0.4,0.4-0.6,0.6c-0.1,0.2-0.3,0.3-0.4,0.5c-0.1,0.2-0.1,0.1-0.3,0
		c-0.1-0.2-0.2-0.3-0.4-0.5c-0.2-0.2-0.5-0.4-0.7-0.6l-3.2-3.1c-0.2-0.2-0.3,0-0.3,0.4l0.2,1.4c0,0.4,0.2,0.9,0.4,1.1
		c0.3,0.3,0.6,0.6,0.8,0.9c0.5,0.5,1,1.1,1.4,1.6c0.1,0.2,0.5,0.6,0.7,0.7c0,0,0,2.2,0,2.4c0,0.1,0,0.2,0,0.3c0,0,0.1,0.9,1,0.9
		c0.9,0,1-0.9,1-0.9c0-0.7,0-1.4,0-2c0-0.2,0-0.4,0-0.7c0.1,0,0.3-0.2,0.4-0.3c0.2-0.2,0.4-0.5,0.7-0.7c0.5-0.6,1-1.2,1.6-1.7
		c0.1-0.1,0.2-0.3,0.4-0.4c0.2-0.2,0.4-0.7,0.4-1.1l0.2-1.4C18.4,168.2,18.3,168.1,18.1,168.2z M18.1,164.4l-3.2,3.1
		c-0.2,0.2-0.7,0.9-0.7,1.3l-0.2,1.5c0,0.4,0.1,0.6,0.3,0.4l3.5-3.3c0.2-0.2,0.4-0.7,0.4-1.1l0.2-1.5
		C18.4,164.4,18.3,164.2,18.1,164.4z"/>
</g>
<g id="filter-low-carb">
	<path fill="#F15B24" d="M9.1,121.8c0-0.1,0-0.2,0-0.3c-0.1-0.9-0.2-1.8-0.3-2.8c-0.1-0.9-0.2-1.9-0.2-2.8c-0.1-0.8-0.1-1.5,0.1-2.3
		c0.2-0.7,0.5-1.4,1-2c0.7-0.8,1.8-1.3,2.8-1.4c1.2-0.1,2.2,0.3,3,1.1c1.2,1.3,1.8,3.3,1.1,5c-0.3,0.7-0.8,1.5-1.4,2
		c-0.9,0.7-1.7,1.5-2.6,2.3c-0.4,0.4-0.9,0.8-1.3,1.2c-0.3,0.3-0.8,0.9-1.3,0.9C9.4,122.8,9.2,122.2,9.1,121.8z"/>
	<path fill="#43413E" d="M14.7,109.5c-1.8-0.8-4-0.3-5.5,1c-0.6,0.5-1,1.1-1.3,1.8c-0.7,1.8-0.2,3.9,0,5.8c0.1,0.5,0.1,1.1,0.2,1.6
		c0.1,0.5,0.1,1.1,0.2,1.5l-1.5,4c-0.8,0-1.5,0.5-1.8,1.3c-0.2,0.5-0.2,1.1,0,1.6c0.2,0.5,0.6,0.9,1.1,1.1c0.2,0.1,0.4,0.1,0.7,0.2
		c0.2,0.2,0.4,0.3,0.6,0.4c0.2,0.1,0.5,0.2,0.7,0.2c0.8,0,1.5-0.5,1.8-1.3c0.3-0.7,0.2-1.5-0.3-2.1l1.6-4c0.7-0.3,1.2-0.8,1.8-1.3
		c0.4-0.4,0.8-0.7,1.2-1c0.9-0.8,2-1.5,2.7-2.6c1.5-2.2,1.2-5.5-0.8-7.4C15.6,110,15.2,109.7,14.7,109.5z M8.5,128.2
		c-0.1,0.3-0.4,0.4-0.7,0.3c-0.1,0-0.2-0.1-0.2-0.2C7.5,128.1,7.3,128,7,128c0,0-0.1,0-0.1,0c-0.1,0-0.2,0-0.3,0
		c-0.1-0.1-0.2-0.2-0.3-0.3s-0.1-0.3,0-0.4c0.1-0.3,0.4-0.4,0.7-0.3c0.4,0.2,0.8,0,0.9-0.4l0.2,0.1c-0.1,0.3,0,0.7,0.3,0.9
		C8.5,127.7,8.6,128,8.5,128.2z M15.9,115.1c-0.1,0.4-0.5,1.7-1.3,2.3l-3,2.6c-0.2,0.1-0.3,0.3-0.5,0.4c-0.3,0.3-0.5,0.3-0.7,0.3
		l0,0c0,0-0.1,0-0.1,0c0,0,0,0-0.1,0l0,0c-0.1-0.1-0.3-0.2-0.3-0.7c0-0.2,0-0.4-0.1-0.6l-0.4-4.1c-0.1-1.1,0.4-2.3,0.6-2.6
		c0.1-0.1,0.1-0.2,0.2-0.2c0.9-1,2.4-1.4,3.7-0.9c1.2,0.7,2,2,2,3.4C15.9,114.9,15.9,115,15.9,115.1z"/>
</g>
<g id="filter-vegetarian">
	<path fill="#F15B24" d="M15.9,71.5C15.4,72,4.7,79.9,4.1,80.4c-0.5,0.4-2.1-1.2-1.7-1.6c0.8-0.8,1.6-1.6,2.3-2.5
		c1.4-1.5,2.8-2.9,4.2-4.4c0.8-0.9,1.6-1.8,2.5-2.6c0.7-0.8,1.6-1.8,2.7-1.7c0.5,0,1.1,0.2,1.5,0.5c0,0,0.1,0.1,0.1,0.1
		C15.8,68.5,17.6,70.1,15.9,71.5z"/>
	<path fill="#43413E" d="M20,65l-3,2.1c0,0,0,0,0,0c0,0,0,0,0,0l2.2-2.9L18,63.2l-0.3,0.3l-1.9,2.9c-0.2,0.2-0.3,0.5-0.5,0.7
		c-1-0.8-2.6-1.1-5.1,1.6c-0.7,0.7-2,2.2-4.4,4.9c-1.2,1.3-2.5,2.9-4.1,4.8c-1.1,1.4,1,3.7,2.5,2.8c2.9-2,6-4.1,6-4.1s4-2.6,5.6-3.7
		c2.5-1.8,2.1-3.4,1.3-4.5c0,0,0,0,0,0c0.3-0.2,0.5-0.3,0.8-0.5l3-1.8l0.3-0.2L20,65z M14.6,71.6c-0.5,0.4-9.6,7-10.1,7.4
		c-0.4,0.3-0.9-0.3-0.6-0.6c0.4-0.5,8.3-8.8,8.3-8.8c1.1-1.5,2.1-0.9,2.5-0.5C14.9,69.3,16.1,70.3,14.6,71.6z"/>
</g>
<g id="filter-organic">
	<g id="Apple">
		<path fill="#F15B24" d="M11.2,19.4c-1.4,0-2.8,0.3-3.8,0.9C6.1,21,4.1,23,5.5,27.8c0.4,1.4,1.2,3,2.4,3.2c0.4,0.1,0.8,0.1,1.2,0.1
			c0.7,0,1.3-0.1,1.7-0.2c0.1,0,0.2,0,0.3-0.1c0.2,0,0.4,0,0.7,0c0.3,0,0.6,0,0.9,0.1c0.3,0,0.6,0.1,0.9,0.1c0.2,0,0.4,0,0.5,0
			c1.7-0.2,2.4-1.7,2.9-3.2c0.1-0.2,0.1-0.3,0.2-0.4c0.4-1,0.9-4.4-1-6.2C15,20,13.1,19.4,11.2,19.4z"/>
		<path fill="#43413E" d="M8.9,18.1C9,14.1,7,12.2,4.3,12C4.3,12,2.9,17,8.9,18.1z M18.7,24.3c-0.1-1.7-0.7-3.1-1.8-4
			c-1.3-1.2-3.2-1.9-5.2-2l0.2-2.6H9.8l0.2,2.7c-1.1,0.1-2.2,0.5-3.1,1c-1.4,0.8-2.4,2.1-2.8,3.6c-0.4,1.4-0.3,3.1,0.3,5
			c0.3,1.1,1.3,3.6,3.5,4.1c0.5,0.1,1,0.2,1.5,0.2c0.8,0,1.5-0.1,1.9-0.2c0.1,0,0.2,0,0.2,0c0.1,0,0.2,0,0.3,0c0.2,0,0.4,0,0.7,0
			c0.3,0,0.6,0.1,1,0.1c0.2,0,0.5,0,0.7,0c2.7-0.3,3.6-2.8,4.1-4c0-0.1,0.1-0.3,0.1-0.4C18.5,27,18.8,25.7,18.7,24.3z M16.4,27
			c0,0.1-0.1,0.2-0.1,0.4c-0.5,1.3-1.1,2.6-2.5,2.8c-0.2,0-0.3,0-0.5,0c-0.3,0-0.5,0-0.8-0.1c-0.3,0-0.5-0.1-0.8-0.1
			c-0.2,0-0.4,0-0.6,0c-0.1,0-0.2,0-0.2,0c-0.3,0.1-0.8,0.2-1.4,0.2c-0.4,0-0.7,0-1.1-0.1c-1-0.2-1.7-1.6-2.1-2.8
			c-1.2-4.2,0.5-5.9,1.6-6.6c0.9-0.5,2.1-0.8,3.3-0.8c1.7,0,3.3,0.6,4.4,1.5C17.2,23.2,16.8,26.2,16.4,27z"/>
	</g>
</g>
</svg>
