<?xml version="1.0" encoding="utf-8"?>
<!-- Generator: Adobe Illustrator 17.1.0, SVG Export Plug-In . SVG Version: 6.00 Build 0)  -->
<!DOCTYPE svg PUBLIC "-//W3C//DTD SVG 1.1//EN" "http://www.w3.org/Graphics/SVG/1.1/DTD/svg11.dtd">
<svg version="1.1" id="Filters" xmlns="http://www.w3.org/2000/svg" xmlns:xlink="http://www.w3.org/1999/xlink" x="0px" y="0px"
	 width="23px" height="18px" viewBox="0 0 23 18" enable-background="new 0 0 23 18" xml:space="preserve">
<g id="Knobs">
	<g>
		<path fill="#F15122" d="M1.009,14.328c0,0.919,0.639,1.665,1.427,1.665h2.141c0.788,0,1.428-0.746,1.428-1.665v-1.666
			c0-0.919-0.639-1.666-1.428-1.666H2.436c-0.788,0-1.428,0.746-1.428,1.666L1.009,14.328L1.009,14.328z"/>
	</g>
</g>
<g id="Tracks">
	<rect x="3.008" y="0.008" fill="#42413E" width="0.999" height="17.984"/>
</g>
<g id="Knobs_1_">
	<g>
		<path fill="#F15122" d="M9.002,5.336c0,0.919,0.639,1.665,1.428,1.665h2.141c0.788,0,1.428-0.746,1.428-1.665V3.67
			c0-0.919-0.639-1.666-1.428-1.666H10.43c-0.788,0-1.428,0.746-1.428,1.666L9.002,5.336L9.002,5.336z"/>
	</g>
</g>
<g id="Tracks_1_">
	<rect x="11" y="0.008" fill="#42413E" width="0.999" height="17.984"/>
</g>
<g id="Knobs_2_">
	<g>
		<path fill="#F15122" d="M16.995,14.328c0,0.919,0.639,1.665,1.428,1.665h2.141c0.788,0,1.428-0.746,1.428-1.665v-1.666
			c0-0.919-0.639-1.666-1.428-1.666h-2.141c-0.788,0-1.428,0.746-1.428,1.666V14.328z"/>
	</g>
</g>
<g id="Tracks_2_">
	<rect x="18.993" y="0.008" fill="#42413E" width="0.999" height="17.984"/>
</g>
</svg>
