<?xml version="1.0" encoding="utf-8"?>
<!-- Generator: Adobe Illustrator 19.1.1, SVG Export Plug-In . SVG Version: 6.00 Build 0)  -->
<svg version="1.1" id="Layer_1" xmlns="http://www.w3.org/2000/svg" xmlns:xlink="http://www.w3.org/1999/xlink" x="0px" y="0px"
	 viewBox="0 0 512 512" style="enable-background:new 0 0 512 512;" xml:space="preserve">
<style type="text/css">
	.st0{fill:#F15B24;}
	.st1{fill:#43413E;}
</style>
<g id="поиск">
	<g>
		<path class="st0" d="M495.6,441.8l-56.2,56.2c-4.7,4.7-12.3,4.7-17,0l-83.7-83.7c-4.7-4.7-4.7-12.3,0-17l56.2-56.2
			c4.7-4.7,12.3-4.7,17,0l83.7,83.7C500.3,429.5,500.3,437.1,495.6,441.8z"/>
	</g>
	<path class="st1" d="M505.9,476.5L354.4,325c28.8-35.4,44.5-79.3,44.5-125.6c0-53.3-20.8-103.4-58.4-141.1
		c-77.8-77.8-204.4-77.8-282.1,0l0,0c-77.8,77.8-77.8,204.4,0,282.1c37.7,37.7,87.8,58.4,141.1,58.4c46.3,0,90.2-15.7,125.6-44.5
		l151.5,151.5c4.1,4.1,9.4,6.1,14.7,6.1s10.6-2,14.7-6.1C514,497.8,514,484.6,505.9,476.5z M84.1,314.8
		c-63.6-63.6-63.6-167.1,0-230.7c63.6-63.6,167.1-63.6,230.7,0c30.8,30.8,47.8,71.8,47.8,115.4c0,43.6-17,84.5-47.8,115.4
		c-30.8,30.8-71.8,47.8-115.4,47.8C155.8,362.6,114.9,345.6,84.1,314.8z"/>
</g>
</svg>
