<?xml version="1.0" encoding="utf-8"?>
<!-- Generator: Adobe Illustrator 19.1.1, SVG Export Plug-In . SVG Version: 6.00 Build 0)  -->
<svg version="1.1" id="Layer_1" xmlns="http://www.w3.org/2000/svg" xmlns:xlink="http://www.w3.org/1999/xlink" x="0px" y="0px"
	 viewBox="0 0 512 512" style="enable-background:new 0 0 512 512;" xml:space="preserve">
<style type="text/css">
	.st0{fill:#F15B24;}
	.st1{fill:#43413E;}
</style>
<g id="меню">
	<rect x="115.3" y="374.1" class="st0" width="276.3" height="62.7"/>
	<g>
		<path class="st0" d="M262.1,279.6h-24.2v35.9h-23.3v-108h52.2c34,0,42.1,14.6,42.1,35.3c0,14.9-4.8,28.6-22.7,34.3l21.4,38.5
			h-25.5L262.1,279.6z M266,259c13,0,18.8-3.2,18.8-15.5c0-12.5-5.5-15.7-19.1-15.7h-27.8V259H266z"/>
	</g>
	<path class="st1" d="M477,255.4c-18.6,0-33.8,15.2-33.8,33.8c0,5.4-4.4,9.7-9.7,9.7h-22.6l0.3-88.7c0-13.3-8.9-25-21.7-28.5
		c-39.2-10.6-57.3-89.3-61.1-159.4C327.7,9.8,317.4,0,304.8,0h-11.5c-6.5,0-12.5,2.6-17,7.2c-4.5,4.7-6.8,10.8-6.6,17.2
		c1.1,32.1-2.9,57.7-10.4,65.3c-1.3,1.4-6,1.4-7.3,0c-7.6-7.8-11.6-34.2-10.3-67.2c0.2-5.9-1.9-11.6-6-15.9C231.7,2.4,226,0,220.1,0
		h-15.4c-11.5,0-21,9-21.6,20.6c-3.4,67.6-21.5,150.4-61.2,161.2c-12.8,3.5-21.7,15.2-21.7,28.5l0.3,88.7h-22
		c-5.4,0-9.7-4.4-9.7-9.7c0-18.6-15.2-33.8-33.8-33.8H0v24.1h35c5.4,0,9.7,4.4,9.7,9.7c0,18.6,15.2,33.8,33.8,33.8h22.1l0.4,106.5
		c0.1,16.2,13.3,29.4,29.5,29.4H381c16.2,0,29.4-13.2,29.5-29.4l0.4-106.5h22.7c18.6,0,33.8-15.2,33.8-33.8c0-5.4,4.4-9.7,9.7-9.7
		h35v-24.1H477z M386.4,429.4c0,3-2.4,5.4-5.4,5.4H255.7H130.4c-3,0-5.4-2.4-5.4-5.4l-0.8-219.2c0-2.4,1.6-4.6,3.9-5.2
		C191,188,204.3,74.6,207,24.1h10.6c-1,29.2,1.3,66.2,17.1,82.5c5.7,5.9,12.9,8.9,20.8,8.9v0c0.1,0,0.1,0,0.2,0c0.1,0,0.1,0,0.2,0v0
		c7.9,0,15-3,20.7-8.8c16-16.3,18.2-53.8,17.2-82.5h10.6c2.7,49,15.8,163.8,78.9,180.9c2.3,0.6,3.9,2.8,3.9,5.2L386.4,429.4z"/>
</g>
</svg>
