<?xml version="1.0" encoding="utf-8"?>
<!-- Generator: Adobe Illustrator 19.1.1, SVG Export Plug-In . SVG Version: 6.00 Build 0)  -->
<svg version="1.1" id="Layer_1" xmlns="http://www.w3.org/2000/svg" xmlns:xlink="http://www.w3.org/1999/xlink" x="0px" y="0px"
	 viewBox="0 0 512 512" style="enable-background:new 0 0 512 512;" xml:space="preserve">
<style type="text/css">
	.st0{fill:#43413E;}
	.st1{fill:#F15B24;}
</style>
<g id="продукты">
	<path class="st0" d="M247.1,384.8c-14.6-14.9-36.8-18.8-55.4-10.4l-32-28.5l-20.3,20l28,32.5c-8.7,18.5-5.2,40.7,9.4,55.6
		c9.2,9.4,22.6,15.7,36.6,17.4c10.8,1.3,20.7-0.3,28.8-4.6c3.5-1.8,6.7-4.1,9.5-6.9c0.1-0.1,0.2-0.2,0.3-0.3
		c0.1-0.1,0.2-0.2,0.3-0.3c0.3-0.3,0.6-0.6,0.9-0.9c8.3-9.1,12-22,10.6-36.5C262.5,407.6,256.4,394.2,247.1,384.8z M241.2,438.5
		c2.7,6.4,2.5,10,2,11c-0.1,0.1-0.2,0.2-0.3,0.3c-0.9,0.6-4.6,0.7-11-2.2c-7.7-3.5-16.7-10.1-24.7-18.2c-8-8.1-14.5-17.2-17.8-25
		c-2.9-6.9-2.5-10.6-1.9-11.2c0,0,0.1-0.1,0.2-0.1c1-0.5,4.7-0.6,11,2.2c7.7,3.5,16.7,10.1,24.7,18.2
		C231.4,421.6,237.8,430.7,241.2,438.5z M160.1,364.1l20.1,17.9c-0.8,0.5-1.5,1.1-2,1.6c-0.9,0.9-1.8,2.1-2.7,3.7l-17.9-20.8
		L160.1,364.1z M186.3,444.5c-9.1-9.3-12.3-22.5-9-34.6c4,9.3,11.3,19.5,20.4,28.8c8.2,8.3,17.1,15.1,25.5,19.5
		c-2.6,0.2-5.3,0.1-8.2-0.2C204,456.7,193.3,451.7,186.3,444.5z M250.5,423c0.2,1.6,0.2,3.1,0.2,4.7c-4.2-7.8-10.4-16-17.8-23.6
		c-8.7-8.8-18.2-15.9-27-20.2c11.3-1.9,23.3,1.7,31.7,10.3C244.6,401.3,249.5,412.1,250.5,423z"/>
	<path class="st0" d="M374.1,268l-21.7-12c-1-0.6-1.5-1.7-1.3-2.8l4.9-24.3c0.4-2.2-2-3.9-3.9-2.8l-21.3,12.8
		c-1,0.6-2.2,0.5-3.1-0.3l-18.6-16.4c-1.7-1.5-4.4-0.3-4.4,2l0.5,24.8c0,1.1-0.7,2.2-1.8,2.5l-23.5,7.9c-2.2,0.7-2.4,3.7-0.4,4.8
		l3.4,1.9c-0.1,0-0.1,0.1-0.2,0.1c-14.2,6.6-25,18.3-30.3,32.9c-11.1,30.3,4.5,64,34.8,75.1c6.6,2.4,13.4,3.6,20.1,3.6
		c23.9,0,46.3-14.7,55-38.4c7.7-20.9,2.6-43.4-11.2-59l22.8-7.7C375.9,272.1,376.1,269.1,374.1,268z M346.3,333.7
		c-3.8,10.4-11.5,18.8-21.6,23.4c-10.1,4.7-21.4,5.1-31.8,1.3c-21.5-7.9-32.6-31.9-24.7-53.4c3.8-10.4,11.5-18.8,21.6-23.4
		c4.1-1.9,8.3-3,12.6-3.6c0.1,0.4,0.1,0.7,0,1.1l-4.9,24.3c-0.4,2.2,2,3.9,3.9,2.8l21.3-12.8c1-0.6,2.2-0.5,3.1,0.3l18.6,16.4
		c1,0.9,2.4,0.8,3.3,0.1C349.5,317.8,349.2,325.9,346.3,333.7z"/>
	<path class="st0" d="M56,389L56,389c12.1,6.3,21.6-5.9,35.9-24.4c11.2-14.4,26.5-34.2,46.9-51.1c15.6-13,32.6-21.9,46.2-29
		c20.9-10.9,38.9-20.4,33.9-38.3c0,0,0,0,0,0c7.4-7.9,15.6-12.2,21.2-14.4c3.7-1.4,5.4-5.7,3.8-9.4c-1.5-3.2-5.1-4.8-8.4-3.8
		l-27.2,8.5c-4.6-4.4-9.7-6.6-14-7.7c-5.1-1.2-10.5-1.2-16-0.2c-33.7,5.8-72,46.6-76.8,51.9c-30.7,33.5-55.2,89.5-51.9,108.5
		C50.6,385.4,54.1,387.9,56,389z M114.9,283.3c23.4-25.5,57.6-50.4,75.1-46.2c3.4,0.8,8.3,3.1,11.3,13.9c1,3.6-13.9,11.5-24.8,17.2
		c-14.4,7.6-32.4,17-49.4,31.2c-22,18.2-38,38.9-49.6,54c-2.4,3.1-5,6.4-7.5,9.5C75.8,343.5,91.5,309,114.9,283.3z"/>
	<g>
		<g>
			<path class="st1" d="M403.6,169.5l37.9-52.3c9.2-12.7,7.1-29.9-4.5-35.9l-33.8-17.4c-11.5-5.9-26.8,2.3-31.8,17.2l-29.9,88.5
				H403.6z"/>
			<path class="st0" d="M453.5,92.4c-1.9-7.8-6.5-14-13.2-17.4l-33.8-17.4c-6.6-3.4-14.4-3.6-21.8-0.6c-9.1,3.7-16.6,11.8-20,21.8
				l-30.7,90.7h15l29.1-86.2c2.1-6.1,6.5-11.1,11.8-13.2c1.4-0.6,3.2-1.1,5.2-1.1c1.6,0,3.2,0.3,4.9,1.2l33.8,17.4
				c3.7,1.9,5.3,5.5,5.9,8.1c1.3,5.6-0.1,12.1-3.9,17.3l-40.9,56.5h17.5l34.9-48.2C453.4,112.8,455.8,101.9,453.5,92.4z"/>
		</g>
		<g>
			<path class="st0" d="M424.2,78.8c-1.7,0-3.4-0.4-4.9-1.3c-4-2.3-5.9-7-4.5-11.5l17.7-56.6c1.2-3.7,5.1-5.8,8.9-4.6
				c3.7,1.2,5.8,5.2,4.6,8.9l-11.9,38.1l45.3-49.4c2.6-2.9,7.1-3.1,10-0.4c2.9,2.6,3.1,7.1,0.4,10l-58.4,63.7
				C429.6,77.7,426.9,78.8,424.2,78.8z"/>
		</g>
		<g>
			<path class="st0" d="M384.3,149.1c-1.1,0-2.2-0.3-3.2-0.8L357,135.9c-3.5-1.8-4.8-6.1-3.1-9.6c1.8-3.5,6.1-4.8,9.6-3.1l24.1,12.4
				c3.5,1.8,4.8,6.1,3.1,9.6C389.4,147.7,386.9,149.1,384.3,149.1z"/>
		</g>
		<g>
			<path class="st0" d="M431.9,132.1c-1.1,0-2.2-0.3-3.2-0.8L398,115.5c-3.5-1.8-4.8-6.1-3.1-9.6c1.8-3.5,6.1-4.8,9.6-3.1l30.6,15.8
				c3.5,1.8,4.8,6.1,3.1,9.6C437,130.7,434.5,132.1,431.9,132.1z"/>
		</g>
	</g>
	<path class="st0" d="M466.6,118.1c-5.9-2.4-17.3-1.4-21.4-1.3l-17,24.8l-15,22.4c-2.3,0-6.5,0-9.3,0H291.1c0-0.2,0-0.4,0-0.6v-21.7
		h54.3c3.3-9.6,5.5-17,6.4-24.8h-14.9V59.7c0-18.6-15.1-33.7-33.7-33.7h-78c-18.6,0-33.7,15.1-33.7,33.7v8.7h-12.2
		c-18.6,0-33.7,15.1-33.7,33.7v14.7H57.1c-8.8,0-16.9,2-22.2,9.3L6.4,165.8c-3.1,4.4-6.4,9.5-6.4,14.9c0,0,0.3,306.7,1,310.9
		C4.2,503.3,15,512,27.8,512h376.1c7.6,0,22.8-1.2,34.3-15l37.6-50.9c4.5-6.1,6.9-13.4,6.9-21V139.7
		C482.7,129.5,476,121.9,466.6,118.1z M216.4,59.7c0-4.9,4-8.9,8.9-8.9h78c4.9,0,8.9,4,8.9,8.9v57.1h-21v-14.7
		c0-18.6-15.1-33.7-33.7-33.7h-41V59.7z M216.4,93.2h41c4.9,0,8.9,4,8.9,8.9v14.7h-49.9V93.2z M170.5,102.1c0-4.8,4.1-8.9,8.9-8.9
		h12.2v23.6h-21V102.1z M170.5,141.6h95.7v21.7c0,0.2,0,0.4-0.1,0.6h-95.6c0-0.2-0.1-0.4-0.1-0.6V141.6z M52.7,144.6
		c1.4-1.9,3.7-3,6.1-3h87v21.7c0,0.2,0,0.4,0,0.6H38.2L52.7,144.6z M406.8,484.2c0,1.6-1.3,3-3,3H27.8c-1.6,0-3-1.3-3-3V191.8
		c0-1.6,1.3-3,3-3h376.1c1.6,0,3,1.3,3,3V484.2z M457.8,425.2c0,2.2-0.7,4.4-2,6.2l-24.2,32.7V180.9c0-0.4,0.1-0.8,0.4-1.2l25.9-35
		V425.2z"/>
</g>
</svg>
