<?xml version="1.0" encoding="utf-8"?>
<!-- Generator: Adobe Illustrator 19.1.1, SVG Export Plug-In . SVG Version: 6.00 Build 0)  -->
<svg version="1.1" id="Layer_1" xmlns="http://www.w3.org/2000/svg" xmlns:xlink="http://www.w3.org/1999/xlink" x="0px" y="0px"
	 viewBox="0 0 512 512" style="enable-background:new 0 0 512 512;" xml:space="preserve">
<style type="text/css">
	.st0{fill:#43413E;}
	.st1{fill:#F15B24;}
</style>
<g id="доставка">
	<g>
		<g>
			<path class="st0" d="M506.4,74.2c0,0-0.1,0-0.1,0c-3.1-0.1-5.5-2.8-5.4-6.1c0.6-30.3-21.9-55.6-50.2-56.3
				c-3.1-0.1-5.5-2.8-5.4-6.1c0.1-3.3,2.6-5.9,5.7-5.8c34.5,0.8,61.9,31.5,61.1,68.4C511.9,71.6,509.4,74.2,506.4,74.2z"/>
		</g>
		<g>
			<path class="st0" d="M479.1,72.2c0,0-0.1,0-0.1,0c-3.1-0.1-5.5-2.8-5.4-6.1c0.2-11.5-8.3-21-19-21.3c-3.1-0.1-5.5-2.8-5.4-6.1
				c0.1-3.2,2.5-5.8,5.5-5.8c0,0,0.1,0,0.1,0c16.8,0.4,30.2,15.4,29.8,33.4C484.6,69.6,482.1,72.2,479.1,72.2z"/>
		</g>
	</g>
	<g>
		<g>
			<path class="st0" d="M55.5,277.1c-0.2,0-0.5,0-0.7,0c-16.6-2.2-31.4-11.2-41.6-25.2C3,237.8-1.6,220.2,0.5,202.5
				c0.4-3.3,3.1-5.6,6.2-5.2c3,0.4,5.2,3.4,4.8,6.6c-1.7,14.6,2,29,10.5,40.6c8.4,11.6,20.6,19,34.2,20.8c3,0.4,5.2,3.4,4.8,6.6
				C60.7,274.9,58.3,277.1,55.5,277.1z"/>
		</g>
		<g>
			<path class="st0" d="M55.1,245.4c-0.2,0-0.5,0-0.7,0c-16.3-2.2-27.9-18.1-25.9-35.6c0.4-3.3,3.1-5.6,6.2-5.2
				c3,0.4,5.2,3.4,4.8,6.6c-1.3,10.9,6,21,16.2,22.3c3,0.4,5.2,3.4,4.8,6.6C60.2,243.2,57.8,245.4,55.1,245.4z"/>
		</g>
	</g>
	<g>
		<g>
			<path class="st1" d="M68.7,212.7c-9.9-5.4-16.3-25.9-10.8-36.8c16.1-32,53.7-17.9,53.7-17.9l1.1-2.5c0,0-12.9-21.7-15.1-37.6
				c-3.2-23,6.6-51.6,24.9-60.7c14.7-7.3,28.7-3.7,37.5,5.8c24.4,26.1,5,101.9-21.4,130.1C114.2,219.2,94.4,226.5,68.7,212.7z"/>
		</g>
		<g>
			<path class="st1" d="M479.8,212.7c9.9-5.4,16.3-25.9,10.8-36.8c-16.1-32-53.7-17.9-53.7-17.9l-1.1-2.5c0,0,12.9-21.7,15.1-37.6
				c3.2-23-6.6-51.6-24.9-60.7c-14.7-7.3-28.7-3.7-37.5,5.8c-24.4,26.1-5,101.9,21.4,130.1C434.3,219.2,454.1,226.5,479.8,212.7z"/>
		</g>
		<path class="st0" d="M472,297.8c-2.1-7.1-8.1-11.9-15-11.9h-5.4c-3-43.6-21.4-84.1-52.4-115.1c-24.1-24-53.8-40.2-86.1-47.3
			c0.4-1.9,0.7-3.9,0.7-6.1c0.6-21-13.9-39.5-33.3-42.4c-23.8-3.5-44.3,16.3-44.3,41.2c0,2.6,0.3,5,0.7,7.3
			c-32.3,7.1-62,23.3-86.1,47.3c-31,30.9-49.4,71.4-52.4,115.1H96c-6.9,0-13.3,4.5-15.4,11.6c-2.3,7.6,0.5,15.6,6.9,19.7
			c20.9,13.4,70.4,29.3,187.6,29.3c98.1,0,164.1-10.3,190.9-29.9C471.6,312.4,474,304.9,472,297.8z M279.9,96.1
			c8.6,2.3,14.5,10.8,14.5,20.2c0,1.3-0.1,2.2-0.2,2.6c-1.9,0.6-7.2,0.4-10.8,0.2c-2.5-0.1-5.4-0.2-8.3-0.2c-2.9,0-5.8,0.1-8.3,0.2
			c-3.6,0.2-8.9,0.4-10.8-0.2c-0.1-0.4-0.2-1.3-0.2-2.7C255.6,103.1,267.1,92.8,279.9,96.1z M275,140.2c82.2,0,150.5,64.5,157,145.8
			H118C124.5,204.6,192.8,140.2,275,140.2z M275,325.7c-92,0-138.9-9.9-162.5-19h328.6C419,315.8,372.4,325.7,275,325.7z"/>
	</g>
</g>
</svg>
