<?xml version="1.0" encoding="utf-8"?>
<!-- Generator: Adobe Illustrator 16.0.0, SVG Export Plug-In . SVG Version: 6.00 Build 0)  -->
<!DOCTYPE svg PUBLIC "-//W3C//DTD SVG 1.1//EN" "http://www.w3.org/Graphics/SVG/1.1/DTD/svg11.dtd">
<svg version="1.1" id="Filled_Icons" xmlns="http://www.w3.org/2000/svg" xmlns:xlink="http://www.w3.org/1999/xlink" x="0px"
	 y="0px" width="24px" height="24px" viewBox="0 0 24 24" enable-background="new 0 0 24 24" xml:space="preserve">
<path d="M23.713,17.318c-0.498-0.908-1.559-1.986-2.414-2.779c-1.294-1.2-1.294-1.2-0.026-2.84c0.229-0.297,0.493-0.639,0.791-1.035
	c1.97-2.624,2.052-3.491,1.873-3.994C23.822,6.356,23.49,5.98,22.55,5.98c0,0,0.189,0.012-3.846,0.032
	c-0.159,0-0.394,0.027-0.61,0.155c-0.303,0.182-0.471,0.524-0.516,0.624c-0.62,1.653-2.322,4.708-2.994,5
	c-0.266-0.307-0.184-1.544-0.129-2.377c0.108-1.643,0.231-3.505-1.164-3.84c-0.984-0.239-3.858-0.304-4.822,0.17
	C8.076,5.937,7.555,6.415,7.63,6.871l0.115,0.416l0.37,0.047c0.241,0.031,0.547,0.129,0.681,0.312
	c0.339,0.497,0.412,3.74,0.076,4.173C8.247,11.752,6.55,8.744,5.815,6.888C5.79,6.824,5.646,6.493,5.362,6.285
	c-0.3-0.221-0.67-0.292-0.829-0.312L1.236,5.995C1.067,6,0.494,6.043,0.193,6.402C-0.14,6.796,0.052,7.374,0.105,7.512
	c0.107,0.241,2.642,5.933,5.582,8.995c2.512,2.615,5.002,2.542,6.849,2.558c1.258,0,1.417-0.058,1.584-0.239
	c0.347-0.372,0.373-0.907,0.396-1.38c0.035-0.716,0.096-0.954,0.411-1.053c0.244,0,0.852,0.704,1.215,1.125
	c0.449,0.52,0.914,1.058,1.423,1.407c0.73,0.501,1.355,0.576,1.664,0.576c0,0-0.16-0.005,3.25-0.046
	c0.106-0.006,1.047-0.082,1.397-0.748C24.02,18.435,24.109,17.978,23.713,17.318z"/>
</svg>
