<?xml version="1.0" encoding="utf-8"?>
<!-- Generator: Adobe Illustrator 18.1.1, SVG Export Plug-In . SVG Version: 6.00 Build 0)  -->
<!DOCTYPE svg PUBLIC "-//W3C//DTD SVG 1.1//EN" "http://www.w3.org/Graphics/SVG/1.1/DTD/svg11.dtd">
<svg version="1.1" id="Layer_1" xmlns="http://www.w3.org/2000/svg" xmlns:xlink="http://www.w3.org/1999/xlink" x="0px" y="0px"
	 viewBox="0 0 81 25.3" enable-background="new 0 0 81 25.3" xml:space="preserve">
<g>
	<g>
		<g>
			<path fill="#505B79" d="M0.1,24.6c0.3,0.1,0.9-0.2,1.6-0.5c1.6-0.8,3.5-1.9,4.2-2.4c1.7-1,3.3-1.8,4.8-2.7l0.6-0.3
				c0.2-0.1,0.5-0.3,0.6-0.5c0.2-0.2,0.3-0.5,0.4-0.7c0.1-0.3,0.1-0.4,0.2-0.6c0.3-0.8,0.8-1.5,1.5-1.9c0.3-0.2,0.7-0.3,1.1-0.4
				c0.1,0,0.2,0,0.3,0l0.2,0c0.1,0,0.2,0,0.3-0.1c0.2-0.1,0.3-0.2,0.4-0.4c0.1-0.2,0.1-0.4,0.1-0.5c0.6-2.8,2.5-5.4,5-6.6
				c0.7-0.4,1.7-0.6,2.4-0.1c0.7,0.5,1.1,1.5,1.3,2.3c0,0.1,0,0.3,0,0.6c0,0.1,0,0.3,0,0.5c0,0.1,0,0.2,0,0.3c0,0.1,0,0.1,0,0.2
				l0,0.1c0,0,0,0,0.1,0c0.9-0.5,3.1-1.8,4.6-2.7c0.3-0.2,0.6-0.3,0.8-0.4c0.9-0.5,0.9-1.4-0.5-0.6C30,7,29.8,7.1,29.4,7.3
				c-1,0.6-2.8,1.6-3.4,1.9c0-0.1,0-0.1,0-0.2c-0.1-0.3-0.1-0.5-0.1-0.7c-0.1-0.3-0.2-0.5-0.2-0.6c-0.2-0.6-0.6-1.2-1.1-1.6
				c-0.5-0.4-1.2-0.6-1.8-0.6c-1.3,0-2.2,0.7-3.1,1.3c-1.7,1.3-3.1,3.1-3.9,5.3c-0.1,0.4-0.3,0.8-0.4,1.2c0,0.2,0,0.1,0,0.1
				c0,0,0,0,0,0c0.1,0-0.2,0-0.3,0c-0.1,0-0.3,0.1-0.4,0.1c-0.6,0.2-1.2,0.4-1.6,0.8c-0.5,0.4-0.9,0.9-1.1,1.4
				c-0.1,0.3-0.2,0.6-0.3,0.8l-0.1,0.4c0,0.1,0,0.2-0.1,0.2c-0.1,0.2-0.2,0.3-0.3,0.4l-0.7,0.4L8.9,19C8,19.5,7.1,20,6.2,20.5
				c-0.2,0.1-2.9,1.7-4.9,3C0.4,24.1-0.2,24.6,0.1,24.6z"/>
		</g>
	</g>
	<g>
		<g>
			<g>
				<path fill="#505B79" d="M72,22.3c0-0.3-0.5-0.9-1.3-1c-0.6-0.1-1.3,0.1-1.5,0.3c-1.1,0.5-1.8,1.2-2.6,2
					c-0.1,0.1-0.2,0.2-0.4,0.4l-0.3,0.3c0,0,0,0,0,0c-0.3-0.3-0.7-0.7-1.1-0.9c-0.5-0.3-1.2-0.7-1.8-0.8c-0.3-0.1-1.2-0.1-1.7,0.1
					c-0.4,0.1-0.7,0.3-0.9,0.4c-0.5,0.3-0.7,0.8-0.6,0.9c0.1,0.1,0.2,0.1,0.3,0.1c0.2-0.1,0.4-0.2,0.7-0.3c0.1,0,0.3-0.2,0.6-0.2
					c0.2-0.1,0.6-0.1,0.9-0.1c0.3,0.1,0.6,0.2,0.7,0.2c0.8,0.4,1.5,0.8,2.1,1.5c0.3,0.4,0.9,0.5,1.3,0.2c0.5-0.5,0.9-1,1.4-1.5
					c0.4-0.4,0.9-0.8,1.4-1.1c0,0,0.7-0.4,1.2-0.4C71.4,22,72,22.6,72,22.3z"/>
			</g>
		</g>
		<g>
			<g>
				<path fill="#505B79" d="M66.1,3.2c0.3-0.1,0.7-0.6,1.3-0.8c0.5-0.2,1.2-0.2,1.5-0.1c1.2,0.3,2.2,0.9,3.2,1.8l0.3,0.3l0.1,0.1
					c0.1,0.1,0.2,0.2,0.3,0.2c0.2,0.1,0.5,0.1,0.8,0c0.2-0.1,0.5-0.3,0.6-0.5c0.5-0.7,1-1.3,1.5-1.8c0.4-0.4,1.1-0.9,1.7-1.2
					c0.3-0.1,1.1-0.4,1.7-0.3c0.4,0,0.6,0.1,0.8,0.1c0.5,0.1,0.9,0.1,1,0c0.1-0.1-0.1-0.5-0.9-0.8c-0.2,0-0.4-0.1-0.8-0.1
					c-0.4,0-1,0-1.5,0.1c-0.5,0.1-0.9,0.3-1,0.4c-0.8,0.3-1.3,0.8-1.9,1.4c-0.5,0.5-0.9,1.1-1.4,1.7c-0.1,0.1,0,0-0.1,0.1
					c0,0-0.1,0-0.1,0c0,0,0,0,0,0l-0.1-0.1l-0.2-0.2c-0.3-0.3-0.7-0.5-1.1-0.8c-0.7-0.5-1.5-0.9-2.4-1.1c0,0-0.4-0.1-0.8-0.1
					c-0.5,0-1.1,0.1-1.5,0.4c-0.3,0.2-0.5,0.3-0.6,0.6c-0.2,0.2-0.3,0.4-0.3,0.5C65.9,3.1,65.9,3.2,66.1,3.2z"/>
			</g>
		</g>
	</g>
</g>
<g>
</g>
<g>
</g>
<g>
</g>
<g>
</g>
<g>
</g>
<g>
</g>
</svg>
