<?xml version="1.0" encoding="utf-8"?>
<!-- Generator: Adobe Illustrator 18.1.1, SVG Export Plug-In . SVG Version: 6.00 Build 0)  -->
<!DOCTYPE svg PUBLIC "-//W3C//DTD SVG 1.1//EN" "http://www.w3.org/Graphics/SVG/1.1/DTD/svg11.dtd">
<svg version="1.1" id="Layer_1" xmlns="http://www.w3.org/2000/svg" xmlns:xlink="http://www.w3.org/1999/xlink" x="0px" y="0px"
	 viewBox="0 0 181.8 107.8" enable-background="new 0 0 181.8 107.8" xml:space="preserve">
<g>
	<g>
		<g>
			<g>
				<line fill="#505B79" x1="3.6" y1="56.4" x2="6.6" y2="54.7"/>
			</g>
		</g>
	</g>
	<g>
		<polygon fill="#FFFFFF" points="81.1,104.9 0.3,58.3 100.6,0.4 181.4,47 		"/>
		<g>
			<polygon opacity="0.1" fill="#505B79" points="97.1,36.7 100.5,34.9 105.6,22.1 92,18.7 78.3,25.9 			"/>
			<g opacity="0.15">
				<g>
					<path fill="#505B79" d="M129.7,66.3L67.2,30.2c-0.2-0.1-0.2-0.3,0-0.4l3.6-2.1c0.2-0.1,0.5-0.1,0.7,0L134,63.8
						c0.2,0.1,0.2,0.3,0,0.4l-3.6,2.1C130.1,66.4,129.8,66.4,129.7,66.3z"/>
					<g>
						<path fill="#505B79" d="M122.7,57.1c-13.4-7.8-24.6-14.2-37.9-22c-3.3-1.9-6.7-3.9-10-5.8l-2.5-1.5l-0.7-0.4
							c-0.3-0.1-0.7-0.1-0.9,0.1l-1.3,0.7L68,29l-0.6,0.4l-0.3,0.2c-0.1,0-0.3,0.2-0.3,0.4c0,0.2,0.2,0.4,0.3,0.4l0.3,0.2L68,31
							l1.3,0.7c6.8,3.9,13.5,7.8,20,11.6c6.4,3.7,15.2,8.7,21.6,12.4c3.1,1.8,11.9,6.8,18.4,10.6c0.1,0.1,0.2,0.1,0.3,0.1l0.2-0.4
							c-0.1,0-0.1-0.1-0.3-0.1c-7.8-4.5-21-12.1-22.6-13.1c-8-4.6-15.1-8.7-22.2-12.8c-3.5-2-7.1-4.1-10.7-6.2
							c-1.8-1.1-3.7-2.1-5.5-3.2l-0.7-0.4l-0.4-0.2c-0.1,0-0.1,0-0.1-0.1c0.4-0.3,0.9-0.5,1.3-0.8c0.5-0.3,1-0.5,1.4-0.8l0.7-0.4
							c0.2-0.1,0.4-0.1,0.6,0c15.8,9.1,32,18.5,47.8,27.7c0.3,0.2,2.9,1.6,6.4,3.7c1.8,1,3.8,2.2,6,3.4c0.5,0.3,1.1,0.6,1.6,0.9
							l0.4,0.2c0.1,0.1,0.1,0,0.1,0.1c0,0,0,0,0,0l-0.7,0.4l-1.6,0.9l-0.8,0.5l-0.4,0.2c-0.1,0.1-0.2,0.1-0.3,0.1c0,0-0.1,0-0.2,0
							l-0.2,0.4c0.1,0.1,0.2,0.1,0.3,0.1c0.1,0,0.3,0,0.4,0c0.2,0,0.2-0.1,0.3-0.2l0.6-0.3c0.4-0.2,0.8-0.5,1.2-0.7l1.2-0.7
							c0.2-0.1,0.4-0.2,0.6-0.4c0.1-0.1,0.2-0.3,0.1-0.5c0-0.1-0.1-0.2-0.2-0.2l-0.1-0.1c-1.6-0.9-3.1-1.8-4.5-2.6
							C126.6,59.3,124.2,57.9,122.7,57.1z"/>
					</g>
				</g>
				<g>
					<path fill="#505B79" d="M152.8,53l-35.9-20.7c-0.2-0.1-0.2-0.3,0-0.4l3.6-2.1c0.2-0.1,0.5-0.1,0.7,0l35.9,20.7
						c0.2,0.1,0.2,0.3,0,0.4l-3.6,2.1C153.3,53.1,153,53.1,152.8,53z"/>
					<g>
						<path fill="#505B79" d="M152.2,47.5c-8.1-4.7-14.8-8.6-22.9-13.3c-2-1.2-4-2.3-6-3.5l-1.5-0.9l-0.4-0.2
							c-0.2-0.1-0.4-0.1-0.6-0.1c-0.1,0-0.2,0-0.3,0.1l-0.2,0.1l-0.4,0.2l-3.1,1.8c-0.2,0.1-0.3,0.4-0.2,0.6c0,0.1,0.1,0.1,0.1,0.1
							l0.1,0.1l0.2,0.1l0.8,0.4l1.5,0.9c1,0.6,2,1.2,3,1.8c2,1.2,4,2.3,6,3.5c3.9,2.2,9.2,5.3,13,7.5c1.9,1.1,7.2,4.1,11.1,6.4
							c0.1,0.1,0.2,0.1,0.3,0.1l0.2-0.4c-0.1,0-0.1-0.1-0.3-0.1C148,50,140,45.4,139,44.8c-4.8-2.8-9.1-5.2-13.3-7.7
							c-2.1-1.2-4.2-2.4-6.4-3.7c-0.5-0.3-1.1-0.6-1.7-1l-0.4-0.2c-0.1-0.1-0.1-0.1-0.1-0.1l0.8-0.4c0.6-0.3,1.1-0.6,1.7-1
							c0.3-0.2,0.6-0.3,0.9-0.5l0.2-0.1c0.1,0,0.1,0,0.2-0.1c0.1,0,0.2,0,0.3,0.1c9.5,5.5,19.3,11.1,28.8,16.7
							c0.2,0.1,1.7,1,3.9,2.2c0.5,0.3,1.1,0.6,1.7,1c0.3,0.2,0.6,0.3,0.9,0.5l0.4,0.3c0,0,0,0,0,0c0,0,0,0-0.1,0.1
							c-0.6,0.4-1.3,0.7-1.9,1.1l-1,0.6l-0.5,0.3c-0.1,0.1-0.1,0.1-0.2,0.1c-0.1,0-0.1,0-0.2,0c0,0-0.1,0-0.2,0l-0.2,0.4
							c0.1,0.1,0.2,0.1,0.3,0.1c0.2,0,0.3,0,0.5-0.1c0.2-0.1,0.2-0.1,0.4-0.2l0.7-0.4l1.4-0.8l0.7-0.4l0.4-0.2l0.2-0.1
							c0.1,0,0.2-0.1,0.2-0.2c0.1-0.2-0.1-0.4-0.2-0.5l-0.3-0.2c-0.2-0.1-0.4-0.3-0.7-0.4C154.5,48.8,153,48,152.2,47.5z"/>
					</g>
				</g>
				<g>
					<path fill="#505B79" d="M141.2,59.6L105.4,39c-0.2-0.1-0.2-0.3,0-0.4l3.6-2.1c0.2-0.1,0.5-0.1,0.7,0l35.8,20.7
						c0.2,0.1,0.2,0.3,0,0.4l-3.6,2.1C141.7,59.8,141.4,59.8,141.2,59.6z"/>
					<g>
						<path fill="#505B79" d="M140.6,54.1c-8.1-4.7-14.8-8.6-22.8-13.2c-2-1.2-4-2.3-6-3.5l-1.5-0.9l-0.4-0.2
							c-0.2-0.1-0.4-0.1-0.6-0.1c-0.1,0-0.2,0-0.3,0.1l-0.2,0.1l-0.4,0.2l-3.1,1.8c-0.2,0.1-0.3,0.4-0.2,0.6c0,0.1,0.1,0.1,0.1,0.1
							c0,0,0.1,0,0.1,0.1l0.2,0.1l0.8,0.4l1.5,0.9c1,0.6,2,1.2,3,1.8c2,1.2,4,2.3,6,3.5c3.9,2.2,9.2,5.2,13,7.5
							c1.9,1.1,7.2,4.1,11.1,6.4c0.1,0.1,0.2,0.1,0.3,0.1l0.2-0.4c-0.1,0-0.1-0.1-0.3-0.1c-4.7-2.7-12.6-7.3-13.6-7.9
							c-4.8-2.8-9.1-5.2-13.3-7.7c-2.1-1.2-4.2-2.4-6.4-3.7c-0.5-0.3-1.1-0.6-1.7-1l-0.4-0.2c-0.1-0.1-0.1-0.1-0.1-0.1l0.8-0.4
							c0.6-0.3,1.1-0.6,1.7-1c0.3-0.2,0.6-0.3,0.9-0.5l0.2-0.1c0.1,0,0.1,0,0.2-0.1c0.1,0,0.2,0,0.3,0.1
							c9.5,5.5,19.2,11.1,28.7,16.6c0.2,0.1,1.7,1,3.9,2.2c0.5,0.3,1.1,0.6,1.7,1c0.3,0.2,0.6,0.3,0.9,0.5l0.4,0.3c0,0,0,0,0,0
							c0,0,0,0-0.1,0.1c-0.6,0.4-1.3,0.7-1.9,1.1l-1,0.6l-0.5,0.3c-0.1,0.1-0.1,0.1-0.2,0.1c-0.1,0-0.1,0-0.2,0c0,0-0.1,0-0.2,0
							l-0.2,0.4c0.1,0.1,0.2,0.1,0.3,0.1c0.2,0,0.3,0,0.5-0.1c0.2-0.1,0.2-0.1,0.4-0.2l0.7-0.4l1.4-0.8l0.7-0.4l0.4-0.2
							c0.1-0.1,0.3-0.1,0.4-0.3c0.1-0.2-0.1-0.4-0.2-0.5l-0.3-0.2c-0.2-0.1-0.4-0.3-0.7-0.4C142.9,55.4,141.5,54.6,140.6,54.1z"/>
					</g>
				</g>
				<g>
					<path fill="#505B79" d="M118.1,72.9L55.7,36.9c-0.2-0.1-0.2-0.3,0-0.4l3.6-2.1c0.2-0.1,0.5-0.1,0.7,0l62.5,36.1
						c0.2,0.1,0.2,0.3,0,0.4l-3.6,2.1C118.6,73,118.3,73,118.1,72.9z"/>
					<g>
						<path fill="#505B79" d="M111.2,63.7c-13.4-7.8-24.6-14.2-37.9-22c-3.3-1.9-6.7-3.9-10-5.8l-2.5-1.5l-0.7-0.4
							c-0.3-0.1-0.7-0.1-0.9,0.1l-1.3,0.7l-1.3,0.7L55.9,36l-0.3,0.2c-0.1,0-0.3,0.2-0.3,0.4c0,0.2,0.2,0.4,0.3,0.4l0.3,0.2l0.6,0.4
							l1.3,0.7c6.8,3.9,13.5,7.8,20,11.6c6.4,3.7,15.2,8.7,21.6,12.4c3.1,1.8,11.9,6.8,18.4,10.6c0.1,0.1,0.2,0.1,0.3,0.1l0.2-0.4
							c-0.1,0-0.1-0.1-0.3-0.1c-7.8-4.5-21-12.1-22.6-13.1c-8-4.6-15.1-8.7-22.2-12.8c-3.5-2-7.1-4.1-10.7-6.2
							c-1.8-1.1-3.7-2.1-5.5-3.2l-0.7-0.4l-0.4-0.2c-0.1,0-0.1,0-0.1-0.1c0.4-0.3,0.9-0.5,1.3-0.8c0.5-0.3,1-0.5,1.4-0.8l0.7-0.4
							c0.2-0.1,0.4-0.1,0.6,0c15.8,9.1,32,18.5,47.8,27.7c0.3,0.2,2.9,1.6,6.4,3.7c1.8,1,3.8,2.2,6,3.4c0.5,0.3,1.1,0.6,1.6,0.9
							l0.4,0.2c0.1,0.1,0.1,0,0.1,0.1c0,0,0,0,0,0l-0.7,0.4l-1.6,0.9l-0.8,0.5l-0.4,0.2c-0.1,0.1-0.2,0.1-0.3,0.1c0,0-0.1,0-0.2,0
							l-0.2,0.4c0.1,0.1,0.2,0.1,0.3,0.1c0.1,0,0.3,0,0.4,0c0.2,0,0.2-0.1,0.3-0.2l0.6-0.3c0.4-0.2,0.8-0.5,1.2-0.7l1.2-0.7
							c0.2-0.1,0.4-0.2,0.6-0.4c0.1-0.1,0.2-0.3,0.1-0.5c0-0.1-0.1-0.2-0.2-0.2l-0.1-0.1c-1.6-0.9-3.1-1.8-4.5-2.6
							C115.1,66,112.6,64.5,111.2,63.7z"/>
					</g>
				</g>
			</g>
			<path opacity="0.1" fill="#898AA0" d="M49,58.6c-4.1-2.4-10.7-2.4-14.8,0c-4.1,2.4-4.1,6.2,0,8.5c3,1.7,7.4,2.2,11.2,1.4
				c1.3-0.3,2.6-0.7,3.6-1.4C53.2,64.8,53.1,61,49,58.6z"/>
			<path opacity="0.1" fill="#898AA0" d="M75.8,73.1c-4.2-2.4-11.1-2.5-15.3,0c-4.2,2.4-4.2,6.4,0,8.8c3.1,1.8,7.7,2.3,11.5,1.4
				c1.4-0.3,2.7-0.8,3.8-1.4C80,79.5,80,75.5,75.8,73.1z"/>
			<g>
				<g>
					<g>
						<path fill="#505B79" d="M47.1,65.6c0-0.1,0-0.2,0-0.2c0-0.5,0.1-0.9,0.1-1.1c0-0.4,0.1-0.8,0.1-1.2c0-0.4,0-0.8,0-1.2
							c0-0.4-0.1-0.8-0.1-1.2c0-0.3,0.1-0.6,0.1-0.9c0-0.3-0.1-0.6-0.1-0.9c0-0.3,0-0.6,0-0.9c0-0.3,0-0.6,0-0.9c0-0.3,0-0.7-0.1-1
							c0-0.3,0-0.7,0-1c0-0.2,0-0.7,0-1.1c0-0.2,0-0.5-0.1-0.7c0-0.2,0-0.4,0-0.5h-0.5c0,0.1,0,0.2,0,0.5c0,0.2,0,0.6,0,0.9
							c0,0.6,0,1.2,0,1.3c0,0.4,0,0.7,0,1c0,0.3,0,0.7,0,1c0,0.3,0,0.7,0,1c0,0.3-0.1,0.7-0.1,1c0,0.4,0,0.7,0,1.1
							c0,0.4,0,0.7,0,1.1c0,0.4,0.1,0.7,0.1,1.1c0,0.4-0.1,0.7-0.1,1.1c0,0.2,0.1,0.5,0.1,0.9c0,0.2,0,0.3,0.1,0.5
							c0,0.1,0,0.3,0.1,0.4h0.5C47.1,65.7,47.1,65.6,47.1,65.6z"/>
					</g>
				</g>
				<path fill="#FFFFFF" d="M57,46.8c-5.6-3.3-14.8-3.3-20.4,0s-5.6,8.5,0.1,11.8c4.2,2.4,10.2,3,15.4,1.9l-5.2-8.4L57,46.8z"/>
				<path fill="#BFE5F9" d="M57,46.8l-10.2,5.3l5.2,8.4c1.8-0.4,3.5-1,5-1.9C62.7,55.4,62.7,50.1,57,46.8z"/>
				<path opacity="0.1" fill="#898AA0" d="M36.7,58.6c2.8,1.6,6.5,2.4,10.2,2.5v-7.1v-1.8l-9.8-5.6c-0.1,0.1-0.3,0.1-0.4,0.2
					C31,50,31.1,55.3,36.7,58.6z"/>
			</g>
			<g>
				<g>
					<g>
						<path fill="#505B79" d="M73.5,81.2c0-0.1,0-0.2,0-0.2c0-0.5,0.1-0.9,0.1-1.1c0-0.4,0.1-0.8,0.1-1.2c0-0.4,0-0.8,0-1.2
							c0-0.4-0.1-0.8,0-1.2c0-0.3,0.1-0.6,0.1-0.9c0-0.3-0.1-0.6-0.1-0.9c0-0.3,0-0.6,0-0.9c0-0.3,0-0.6,0-0.9c0-0.3,0-0.7-0.1-1
							c0-0.4,0-0.7,0-1c0-0.2,0-0.7,0-1.1c0-0.2,0-0.5-0.1-0.7c0-0.2,0-0.3,0-0.5H73c0,0.1,0,0.2,0,0.5c0,0.2,0,0.6,0,0.9
							c0,0.6,0,1.2,0,1.3c0,0.4,0,0.7,0,1c0,0.4,0,0.7,0,1c0,0.3,0,0.7,0,1c0,0.3-0.1,0.7-0.1,1c0,0.4,0,0.7,0,1.1
							c0,0.4,0,0.7,0,1.1c0,0.4,0.1,0.7,0.1,1.1c0,0.4-0.1,0.7-0.1,1.1c0,0.2,0,0.5,0.1,0.9c0,0.2,0,0.3,0.1,0.5
							c0,0.1,0,0.3,0.1,0.4h0.5C73.5,81.3,73.5,81.3,73.5,81.2z"/>
					</g>
				</g>
				<path fill="#FFFFFF" d="M73.3,67.7l10.3-5.4c-5.7-3.3-15-3.3-20.6,0c-5.7,3.3-5.6,8.6,0.1,11.9c5.7,3.3,15,3.3,20.6,0
					c1-0.6,1.8-1.2,2.5-1.9L73.3,67.7z"/>
				<path fill="#F9BDB7" d="M86.1,72.3c3-3.2,2.1-7.3-2.6-10l0,0l-10.3,5.4L86.1,72.3z"/>
				<path opacity="0.1" fill="#898AA0" d="M63.3,62.2c-0.1,0.1-0.3,0.1-0.4,0.2c-5.6,3.2-5.6,8.5,0.1,11.8c2.8,1.6,6.5,2.4,10.2,2.5
					v-9L63.3,62.2z"/>
				<g>
					<g>
						<g>
							<path fill="#505B79" d="M73.3,65.8c-0.3,0-0.3,0.3-0.3,0.3c0,0.2,0,0.3-0.1,0.5c-0.1,0.2-0.1,0.3-0.1,0.5
								c0,0.1,0,0.2,0.1,0.3c0,0.1,0.1,0.2,0.1,0.3c0,0.1,0.5,0.1,0.5,0c0-0.1,0-0.3,0-0.3c0-0.2-0.1-0.4,0-0.6c0.1-0.2,0-0.4,0-0.6
								C73.6,66.2,73.6,65.8,73.3,65.8z"/>
						</g>
					</g>
				</g>
			</g>
			<g>
				<polygon fill="#BFE5F9" points="105.6,12.7 83.5,15.6 100.5,25.4 				"/>
				<polygon fill="#BECBE8" points="105.6,12.7 105.6,22.1 100.5,34.9 100.5,25.4 				"/>
				<polygon fill="#6CCBF3" points="105.6,12.7 105.6,22.1 100.5,34.9 100.5,25.4 				"/>
				<polygon fill="#6CCBF3" points="83.5,15.6 83.5,25.1 100.5,34.9 100.5,25.4 				"/>
				<polygon opacity="0.15" fill="#505B79" points="83.5,15.6 83.5,25.1 100.5,34.9 100.5,25.4 				"/>
				<path fill="#505B79" d="M91.1,23.6c-0.7-0.4-1.3-0.1-1.3,0.8v4.3l2.6,1.5v-4.3C92.5,25.1,91.9,24.1,91.1,23.6z"/>
				<polygon fill="#FFFFFF" points="92.5,27.2 89.8,28.7 92.5,30.2 				"/>
				<polygon opacity="0.1" fill="#505B79" points="92.5,27.2 89.8,28.7 92.5,30.2 				"/>
			</g>
		</g>
		<g>
			<polygon fill="#FFFFFF" points="0.3,58.3 0.3,60.6 81.1,107.2 81.1,104.9 			"/>
			<polygon opacity="0.15" fill="#505B79" points="0.3,58.3 0.3,60.6 81.1,107.2 81.1,104.9 			"/>
			<polygon fill="#FFFFFF" points="81.1,104.9 81.1,107.2 181.4,49.3 181.4,47 			"/>
			<polygon opacity="5.000000e-02" fill="#505B79" points="81.1,104.9 81.1,107.2 181.4,49.3 181.4,47 			"/>
		</g>
	</g>
	<g>
		<g>
			<g>
				<path fill="#505B79" d="M108.4,29.8c0-0.1,0-0.2,0-0.2c0-0.2,0.1-0.5,0.1-0.6c0-0.2,0.1-0.4,0.1-0.6l0-0.6c0-0.2-0.1-0.4,0-0.6
					c0-0.2,0.1-0.3,0.1-0.5c0-0.2-0.1-0.3-0.1-0.5c0-0.2,0-0.3,0-0.5c0-0.2,0-0.3,0-0.5c0-0.1,0-0.3-0.1-0.5c0-0.2,0-0.4,0-0.5
					c0-0.1,0-0.3,0-0.6c0-0.1,0-0.3-0.1-0.3c0-0.2,0-0.3,0-0.5h-0.5c0,0.1,0,0.2,0,0.5c0,0.1,0,0.3,0,0.5c0,0.3,0,0.6,0,0.6
					c0,0.2,0,0.3,0,0.5c0,0.2,0,0.3,0,0.5c0,0.2,0,0.3,0,0.5c0,0.2-0.1,0.3-0.1,0.5c0,0.2,0,0.4,0,0.6c0,0.2,0,0.4,0,0.6
					c0,0.2,0.1,0.4,0.1,0.6c0,0.2-0.1,0.4-0.1,0.6c0,0.1,0,0.2,0.1,0.5c0,0.1,0,0.2,0.1,0.2c0,0.1,0,0.3,0.1,0.4h0.5
					C108.4,30,108.4,29.9,108.4,29.8z"/>
			</g>
		</g>
		<g>
			<g>
				<g>
					<g>
						<path fill="#505B79" d="M109,23.8c0-0.3-0.1-0.3-0.2-0.4c-0.1-0.1-0.1-0.1-0.2-0.2l-0.1-0.1c-0.1-0.1-0.1-0.1-0.2-0.2
							c-0.1-0.1-0.2-0.2-0.2-0.3c-0.2,0.2-0.3,0.4-0.5,0.5c-0.1,0.1-0.1,0.2-0.2,0.2c0,0-0.2,0.2-0.2,0.2c0,0-0.1,0.5,0.1,0.5
							c0.1,0,0.4-0.2,0.4-0.2c0.1-0.1,0.2-0.2,0.2-0.2c0,0,0-0.1,0.1,0l0,0c0,0.1,0,0.1,0,0.1c0.1,0.1,0.2,0.2,0.3,0.3
							c0,0,0.1,0.1,0.3,0.1C108.9,24,109.1,23.9,109,23.8z"/>
					</g>
				</g>
			</g>
			<g>
				<g>
					<g>
						<path fill="#505B79" d="M109.5,25.7c-0.1-0.3-0.3-0.3-0.4-0.4c-0.1-0.1-0.2-0.2-0.3-0.3c0,0-0.1-0.1-0.1-0.1
							c-0.1-0.1-0.1-0.2-0.2-0.2l-0.3-0.5c-0.2,0.3-0.6,0.7-0.6,0.8c-0.1,0.1-0.2,0.2-0.3,0.3c-0.1,0.1-0.3,0.2-0.4,0.2
							c-0.1,0-0.2,0.5,0.1,0.5c0.2,0,0.6-0.3,0.7-0.3c0.2-0.1,0.3-0.2,0.4-0.4c0.1-0.1,0.1-0.1,0.1-0.1c0,0,0,0,0,0l0,0
							c0,0,0,0.1,0,0.1c0,0,0,0,0,0l0.1,0.1c0.1,0.1,0.3,0.3,0.4,0.4c0,0,0.2,0.1,0.4,0.2C109.3,26,109.6,25.9,109.5,25.7z"/>
					</g>
				</g>
			</g>
			<g>
				<g>
					<g>
						<path fill="#505B79" d="M109.9,27.7c-0.1-0.3-0.5-0.4-0.6-0.5c-0.3-0.2-0.5-0.4-0.7-0.8c-0.1-0.2-0.3-0.5-0.4-0.7
							c-0.1,0.2-0.3,0.5-0.5,0.7l-0.2,0.2l-0.1,0.1c-0.1,0.1-0.3,0.3-0.4,0.4c-0.1,0.1-0.4,0.3-0.5,0.3c-0.1,0-0.3,0.5,0.1,0.5
							c0.2,0,0.8-0.3,0.9-0.4c0.4-0.2,0.7-0.8,0.7-0.7l0,0c-0.2,0,0.4,0.5,0.8,0.8c0,0,0.3,0.2,0.5,0.2
							C109.8,27.9,110,27.9,109.9,27.7z"/>
					</g>
				</g>
			</g>
		</g>
	</g>
	<g opacity="0.1">
		<g>
			<g>
				<path fill="#505B79" d="M107.9,29.7c-0.1,0-0.1,0.1-0.2,0.1c-0.2,0.1-0.3,0.1-0.4,0.2c-0.1,0.1-0.3,0.1-0.4,0.2l-0.4,0.2
					c-0.1,0.1-0.2,0.2-0.3,0.3c-0.1,0.1-0.3,0-0.4,0.1c-0.1,0.1-0.2,0.2-0.3,0.3c-0.1,0.1-0.2,0.1-0.3,0.2c-0.1,0.1-0.2,0.1-0.3,0.2
					c-0.1,0.1-0.2,0.2-0.3,0.3c-0.1,0.1-0.2,0.2-0.3,0.2c-0.1,0-0.2,0.1-0.3,0.3c-0.1,0.1-0.1,0.1-0.2,0.2c-0.2,0.1-0.3,0.2-0.4,0.3
					l0.3,0.4c0.1,0,0.2-0.1,0.4-0.3c0.1,0,0.2-0.1,0.3-0.2c0.2-0.1,0.4-0.2,0.4-0.3c0.1-0.1,0.2-0.1,0.3-0.2
					c0.1-0.1,0.2-0.1,0.3-0.2c0.1-0.1,0.2-0.2,0.3-0.2c0.1-0.1,0.2-0.1,0.4-0.2c0.1-0.1,0.2-0.2,0.4-0.2c0.1-0.1,0.3-0.1,0.4-0.2
					c0.1-0.1,0.2-0.2,0.3-0.3c0.1-0.1,0.3-0.1,0.4-0.1c0.1,0,0.1-0.1,0.3-0.3c0,0,0.1-0.1,0.1-0.1c0,0,0.2-0.2,0.3-0.3l-0.3-0.4
					C108,29.6,107.9,29.7,107.9,29.7z"/>
			</g>
		</g>
		<g>
			<g>
				<g>
					<g>
						<path fill="#505B79" d="M103.5,32c-0.2,0.2-0.1,0.3-0.1,0.4c0,0.1,0,0.1,0,0.2c0,0.1,0,0.3-0.1,0.4l0,0.2c0.1,0,0.2,0,0.4,0.1
							l0.3,0c0.1,0,0.2,0,0.2,0c0,0,0.2,0,0.2,0c0,0,0.4-0.3,0.2-0.4c-0.1-0.1-0.4-0.1-0.4-0.2c-0.1,0-0.2,0-0.3-0.1
							c-0.1,0-0.1,0-0.1,0c0,0,0,0,0,0c0,0,0,0,0,0c0,0,0-0.2,0-0.2c0,0,0-0.1-0.1-0.3C103.8,31.9,103.6,31.9,103.5,32z"/>
					</g>
				</g>
			</g>
			<g>
				<g>
					<g>
						<path fill="#505B79" d="M104.5,30.9c-0.2,0.3,0,0.4,0,0.5c0,0.2,0.1,0.3-0.1,0.8l-0.1,0.3l0.6,0c0.1,0,0.2,0,0.4,0
							c0.1,0,0.2,0,0.4,0c0.1,0,0.3,0,0.3,0.1c0,0,0.5-0.2,0.3-0.4c-0.1-0.1-0.5-0.2-0.6-0.2c-0.3-0.1-0.7,0-0.6-0.1c0,0,0,0,0,0
							c0,0,0,0,0,0c0-0.1,0-0.3,0-0.5c0,0,0-0.2-0.1-0.4C104.8,30.8,104.6,30.7,104.5,30.9z"/>
					</g>
				</g>
			</g>
			<g>
				<g>
					<g>
						<path fill="#505B79" d="M105.6,29.7c-0.1,0.3,0,0.5,0,0.6c0,0.1,0,0.3,0,0.4c0,0.1,0,0.1,0,0.2c0,0.1-0.1,0.3-0.1,0.4
							l-0.2,0.4c0.2,0,0.5,0,0.8,0c0.1,0,0.3,0,0.4,0c0.1,0,0.3,0,0.5,0c0.1,0,0.4,0.1,0.5,0.2c0.1,0.1,0.5-0.2,0.3-0.4
							c-0.1-0.1-0.7-0.3-0.7-0.3c-0.2-0.1-0.4-0.1-0.6-0.1c-0.1,0-0.2,0-0.3,0c0,0,0,0,0,0c0,0,0,0,0,0c0,0,0,0,0,0l0,0l0-0.1
							c0-0.2,0-0.4,0-0.6c0,0,0-0.3-0.2-0.5C105.8,29.7,105.6,29.6,105.6,29.7z"/>
					</g>
				</g>
			</g>
		</g>
	</g>
	<g>
		<g>
			<g>
				<path fill="#505B79" d="M65.9,54.1c0-0.1,0-0.2,0-0.2c0-0.2,0.1-0.4,0.1-0.5c0-0.2,0.1-0.4,0.1-0.5l0-0.5c0-0.2-0.1-0.3,0-0.5
					c0-0.1,0.1-0.3,0.1-0.4c0-0.1-0.1-0.3-0.1-0.4c0-0.1,0-0.3,0-0.4c0-0.1,0-0.3,0-0.4c0-0.1,0-0.3-0.1-0.5c0-0.2,0-0.3,0-0.4
					c0-0.1,0-0.3,0-0.5c0-0.1,0-0.2-0.1-0.3c0-0.2,0-0.3,0-0.5h-0.5c0,0.1,0,0.2,0,0.5c0,0.1,0,0.3,0,0.4c0,0.3,0,0.5,0,0.6
					c0,0.2,0,0.3,0,0.5c0,0.2,0,0.3,0,0.5c0,0.2,0,0.3,0,0.5c0,0.1-0.1,0.3-0.1,0.5c0,0.2,0,0.3,0,0.5c0,0.2,0,0.3,0,0.5
					c0,0.2,0.1,0.3,0.1,0.5c0,0.2-0.1,0.3-0.1,0.5c0,0.1,0,0.2,0.1,0.4c0,0.1,0,0.1,0,0.2c0,0.1,0,0.3,0.1,0.4h0.5
					C65.9,54.3,65.9,54.2,65.9,54.1z"/>
			</g>
		</g>
		<g>
			<g>
				<g>
					<g>
						<path fill="#505B79" d="M66.5,48.6c0-0.3-0.1-0.3-0.2-0.4c-0.1-0.1-0.2-0.1-0.4-0.5c-0.1-0.1-0.1-0.2-0.2-0.3
							c-0.2,0.1-0.3,0.4-0.5,0.5c-0.1,0.1-0.1,0.1-0.2,0.2c0,0-0.1,0.2-0.2,0.2c0,0-0.1,0.5,0.1,0.5c0.1,0,0.4-0.2,0.4-0.2
							c0.2-0.1,0.2-0.3,0.3-0.2l0,0c0,0.1,0,0.1,0,0.1c0.1,0,0.2,0.1,0.3,0.2c0,0,0.1,0.1,0.3,0.1C66.3,48.8,66.5,48.8,66.5,48.6z"
							/>
					</g>
				</g>
			</g>
			<g>
				<g>
					<g>
						<path fill="#505B79" d="M66.9,50.4c-0.1-0.3-0.3-0.3-0.4-0.4c-0.1-0.1-0.2-0.2-0.3-0.2c-0.1-0.1-0.1-0.1-0.3-0.4l-0.3-0.5
							l-0.3,0.4l-0.3,0.3c-0.1,0.1-0.2,0.2-0.2,0.3c0,0.1-0.2,0.2-0.3,0.2c-0.1,0-0.2,0.5,0.1,0.5c0.2,0,0.6-0.3,0.6-0.3
							c0.2-0.1,0.3-0.2,0.4-0.3c0.1-0.1,0.1-0.1,0.1,0l0,0c0,0,0,0.1,0,0.1c0,0,0,0,0.1,0.1c0.1,0.1,0.3,0.2,0.4,0.4
							c0,0,0.2,0.1,0.4,0.2C66.7,50.7,66.9,50.6,66.9,50.4z"/>
					</g>
				</g>
			</g>
			<g>
				<g>
					<g>
						<path fill="#505B79" d="M67.3,52.2c-0.1-0.3-0.4-0.4-0.6-0.4c-0.1-0.1-0.2-0.2-0.4-0.3c-0.1-0.1-0.1-0.1-0.2-0.2
							c0-0.1-0.1-0.1-0.2-0.3l-0.4-0.7L65.3,51c-0.2,0.2-0.2,0.2-0.3,0.3c-0.1,0.1-0.2,0.3-0.4,0.4c-0.1,0.1-0.4,0.3-0.5,0.3
							c-0.1,0-0.2,0.5,0.1,0.5c0.2,0,0.8-0.3,0.8-0.4c0.2-0.1,0.3-0.3,0.5-0.4l0.1-0.1c0,0,0,0,0,0l0,0c0,0.1-0.1,0,0.1,0.2
							c0.2,0.2,0.4,0.3,0.6,0.5c0,0,0.2,0.2,0.5,0.2C67.1,52.5,67.4,52.4,67.3,52.2z"/>
					</g>
				</g>
			</g>
		</g>
	</g>
	<g opacity="0.1">
		<g>
			<g>
				<path fill="#505B79" d="M65.4,54.3c-0.1,0-0.1,0.1-0.2,0.1c-0.1,0.1-0.3,0.1-0.3,0.1c-0.1,0.1-0.2,0.1-0.3,0.1l-0.3,0.2
					c-0.1,0.1-0.2,0.2-0.3,0.2c-0.1,0-0.2,0-0.3,0.1c-0.1,0-0.1,0.2-0.2,0.2c-0.1,0-0.1,0.1-0.2,0.2c-0.1,0.1-0.2,0.1-0.2,0.1
					c-0.1,0.1-0.1,0.1-0.2,0.2c-0.1,0.1-0.2,0.1-0.2,0.2c0,0-0.2,0.1-0.3,0.2c0,0-0.1,0.1-0.1,0.1c0,0,0,0,0,0L62,56.5
					c-0.1,0.1-0.2,0.1-0.2,0.2l0.3,0.4c0.1-0.1,0.4-0.3,0.6-0.4c0.2-0.1,0.3-0.2,0.3-0.2c0.1,0,0.2-0.1,0.3-0.2
					c0.1-0.1,0.2-0.1,0.3-0.2c0.1-0.1,0.2-0.1,0.2-0.2c0.1,0,0.2-0.1,0.3-0.1c0.1,0,0.2-0.1,0.3-0.2c0.1-0.1,0.2-0.1,0.3-0.2
					c0.1-0.1,0.1-0.2,0.2-0.2c0.1-0.1,0.2,0,0.3-0.1c0,0,0.1-0.1,0.2-0.2c0,0,0.1-0.1,0.1-0.1c0,0,0.1-0.1,0.1-0.1
					c0.1-0.1,0.1-0.1,0.2-0.2l-0.3-0.4C65.5,54.3,65.4,54.3,65.4,54.3z"/>
			</g>
		</g>
		<g>
			<g>
				<g>
					<g>
						<path fill="#505B79" d="M61.8,56.2c-0.2,0.2-0.2,0.2-0.2,0.3c0,0.1,0,0.1,0,0.2c0,0.1,0,0.2-0.1,0.4l0,0.1
							c0.2,0.1,0.5,0.1,0.6,0.1c0.1,0,0.1,0,0.2,0c0,0,0.2,0,0.2,0c0,0,0.4-0.3,0.3-0.4c-0.1-0.1-0.3-0.1-0.3-0.1
							c-0.1,0-0.2,0-0.2-0.1c0,0,0,0,0,0l0,0c0,0,0,0.1,0-0.2c0,0,0-0.1-0.1-0.2C62,56.1,61.9,56,61.8,56.2z"/>
					</g>
				</g>
			</g>
			<g>
				<g>
					<g>
						<path fill="#505B79" d="M62.6,55.2c-0.2,0.3-0.1,0.4-0.1,0.4c0,0.2,0.1,0.2-0.1,0.7l-0.1,0.2c0.3,0,0.6,0.1,0.8,0.1
							c0.1,0,0.2,0,0.3,0c0.1,0,0.2,0,0.3,0.1c0,0,0.5-0.3,0.3-0.4c-0.1-0.1-0.4-0.2-0.5-0.2c-0.2-0.1-0.6,0-0.5-0.1c0,0,0,0,0,0
							c0,0,0,0,0,0l0-0.4c0,0,0-0.2-0.1-0.3C62.9,55.1,62.7,55.1,62.6,55.2z"/>
					</g>
				</g>
			</g>
			<g>
				<g>
					<g>
						<path fill="#505B79" d="M63.5,54.3c-0.2,0.3,0,0.5,0,0.6c0,0.1,0,0.2,0,0.3c0,0.1,0,0.1,0,0.2c0,0.1-0.1,0.2-0.1,0.4l-0.1,0.3
							c0.2,0,0.5,0,0.7,0c0.1,0,0.2,0,0.4,0c0.1,0,0.3,0,0.4,0c0.1,0,0.3,0.1,0.4,0.1c0.1,0.1,0.5-0.2,0.3-0.4
							c-0.1-0.1-0.6-0.3-0.6-0.3c-0.2-0.1-0.3-0.1-0.5-0.1c-0.1,0-0.2,0-0.2,0c0,0,0,0,0,0c0,0,0,0,0,0c0,0,0,0,0,0c0,0,0,0,0-0.1
							c0-0.2,0-0.3,0-0.5c0,0,0-0.2-0.2-0.4C63.7,54.2,63.5,54.2,63.5,54.3z"/>
					</g>
				</g>
			</g>
		</g>
	</g>
	<g opacity="0.1">
		<g>
			<g>
				<path fill="#505B79" d="M97.9,76.1c-0.1,0-0.1,0.1-0.2,0.1c-0.2,0.1-0.4,0.2-0.5,0.3c-0.2,0.1-0.4,0.2-0.5,0.3l-0.5,0.3
					c-0.2,0.1-0.3,0.3-0.5,0.4c-0.1,0.1-0.3,0.1-0.5,0.2C95,77.8,95,78,94.8,78c-0.1,0.1-0.3,0.2-0.4,0.3c-0.1,0.1-0.3,0.1-0.4,0.2
					c-0.1,0.1-0.3,0.2-0.4,0.3c-0.1,0.1-0.3,0.2-0.4,0.3c-0.1,0.1-0.3,0.2-0.5,0.3c-0.1,0.1-0.2,0.2-0.3,0.3
					c-0.2,0.1-0.3,0.2-0.4,0.3l0.3,0.4c0.1-0.1,0.2-0.1,0.4-0.3c0.1-0.1,0.3-0.2,0.4-0.3c0.3-0.2,0.5-0.3,0.6-0.4
					c0.2-0.1,0.3-0.2,0.4-0.3c0.2-0.1,0.3-0.2,0.5-0.3c0.1-0.1,0.3-0.2,0.4-0.3c0.1-0.1,0.3-0.2,0.5-0.2c0.2-0.1,0.3-0.2,0.5-0.3
					c0.2-0.1,0.3-0.2,0.5-0.3c0.2-0.1,0.3-0.3,0.4-0.4c0.2-0.1,0.4-0.1,0.5-0.2c0.1-0.1,0.2-0.2,0.4-0.3c0.1-0.1,0.1-0.1,0.2-0.2
					c0.1-0.1,0.2-0.2,0.3-0.3L98.1,76C98,76,98,76.1,97.9,76.1z"/>
			</g>
		</g>
		<g>
			<g>
				<g>
					<g>
						<path fill="#505B79" d="M92.1,79.2c-0.2,0.2-0.1,0.3-0.1,0.4c0,0.2,0,0.3-0.1,0.7l-0.1,0.2c0.3,0,0.7,0.1,0.8,0.1
							c0.1,0,0.2,0,0.3,0c0.1,0,0.3,0,0.3,0c0,0,0.5-0.3,0.2-0.4c-0.1-0.1-0.4-0.2-0.5-0.2c-0.2-0.1-0.6,0-0.5-0.1c0,0,0,0,0,0
							c0,0,0,0,0,0c0-0.1,0-0.2,0-0.4c0,0,0-0.2-0.1-0.3C92.4,79.1,92.2,79,92.1,79.2z"/>
					</g>
				</g>
			</g>
			<g>
				<g>
					<g>
						<path fill="#505B79" d="M92.8,78.5c-0.2,0.2-0.1,0.4-0.1,0.5c0,0.1,0,0.2,0,0.3c0,0,0,0.1,0,0.1c0,0.1,0,0.2,0,0.3l0,0.3
							c0.3,0.1,0.5,0.1,0.8,0.2c0.1,0,0.2,0,0.3,0c0.1,0,0.3,0,0.3,0.1c0,0,0.5-0.3,0.3-0.4c-0.1-0.1-0.5-0.2-0.5-0.2
							c-0.1-0.1-0.3-0.1-0.4-0.1c-0.1,0-0.1,0-0.2,0c0,0,0,0,0,0c0,0,0,0,0,0c0,0,0,0,0,0l0,0l0-0.1c0-0.1,0-0.3-0.1-0.4
							c0,0,0-0.2-0.1-0.3C93.1,78.4,92.9,78.3,92.8,78.5z"/>
					</g>
				</g>
			</g>
			<g>
				<g>
					<g>
						<path fill="#505B79" d="M93.8,77.4c-0.1,0.3,0,0.5,0,0.6c0,0.1,0,0.3,0,0.4c0,0.1,0,0.1,0,0.2c0,0.1-0.1,0.3-0.1,0.4l-0.1,0.4
							l0.8,0c0.1,0,0.3,0,0.4,0c0.1,0,0.3,0,0.5,0c0.1,0,0.4,0.1,0.5,0.1c0.1,0.1,0.5-0.2,0.3-0.4c-0.1-0.1-0.6-0.3-0.7-0.3
							c-0.2-0.1-0.4-0.1-0.6-0.1c-0.1,0-0.2,0-0.3,0c0,0,0,0,0,0c0,0,0,0,0,0c0,0,0,0,0,0l0,0l0-0.1c0-0.2,0-0.4,0-0.6
							c0,0,0-0.3-0.2-0.5C94.1,77.4,93.8,77.3,93.8,77.4z"/>
					</g>
				</g>
			</g>
			<g>
				<g>
					<g>
						<path fill="#505B79" d="M94.8,76.1c-0.1,0.3,0.1,0.6,0.1,0.8c0,0.2,0,0.4,0,0.5c0,0.2,0,0.3-0.2,0.7l-0.2,0.5c0.3,0,0.8,0,1,0
							c0.2,0,0.3,0,0.5,0c0.2,0,0.4,0,0.6,0.1c0.1,0,0.5,0.1,0.6,0.2c0.1,0.1,0.6-0.2,0.3-0.4c-0.2-0.2-0.8-0.4-0.9-0.4
							c-0.3-0.1-0.5-0.1-0.7-0.1c-0.1,0-0.2,0-0.4,0l-0.1,0l0,0c0,0,0,0,0,0c0,0,0,0,0,0c0,0.2,0.1-0.6,0.1-1c0,0,0-0.3-0.2-0.6
							C95.1,76.1,94.8,76,94.8,76.1z"/>
					</g>
				</g>
			</g>
		</g>
	</g>
	<g opacity="0.1">
		<g>
			<g>
				<path fill="#505B79" d="M93.4,82.6c-0.1,0-0.1,0.1-0.2,0.1c-0.1,0.1-0.3,0.1-0.3,0.1c-0.1,0.1-0.2,0.1-0.3,0.2l-0.3,0.2
					c-0.1,0.1-0.2,0.2-0.3,0.3c-0.1,0-0.2,0-0.3,0.1c-0.1,0-0.1,0.2-0.2,0.2c-0.1,0.1-0.2,0.1-0.2,0.2c-0.1,0.1-0.2,0.1-0.3,0.1
					c-0.1,0.1-0.2,0.2-0.2,0.2c-0.1,0.1-0.2,0.1-0.3,0.2c0,0-0.2,0.1-0.3,0.2c0,0-0.1,0.1-0.1,0.1c0,0,0,0,0,0L89.8,85
					c-0.1,0.1-0.2,0.1-0.2,0.2l0.3,0.4c0.1,0,0.2-0.1,0.4-0.3c0.1,0,0.2-0.1,0.2-0.2c0.2-0.1,0.3-0.2,0.4-0.2
					c0.1-0.1,0.2-0.1,0.3-0.2c0.1-0.1,0.2-0.1,0.3-0.2c0.1-0.1,0.2-0.1,0.3-0.2c0.1-0.1,0.2-0.1,0.3-0.1c0.1,0,0.2-0.1,0.3-0.2
					c0.1-0.1,0.2-0.1,0.3-0.2c0.1-0.1,0.2-0.2,0.3-0.3c0.1-0.1,0.3,0,0.4-0.1c0,0,0.1-0.1,0.2-0.2c0,0,0.1-0.1,0.1-0.1
					c0,0,0.1-0.1,0.1-0.1c0.1-0.1,0.1-0.1,0.2-0.2l-0.3-0.4C93.5,82.6,93.5,82.6,93.4,82.6z"/>
			</g>
		</g>
		<g>
			<g>
				<g>
					<g>
						<path fill="#505B79" d="M89.6,84.6c-0.2,0.2-0.2,0.2-0.2,0.3c0,0.1,0,0.1,0,0.2c0,0.1,0,0.2-0.1,0.4l0,0.2
							c0.2,0,0.5,0.1,0.6,0.1c0.1,0,0.1,0,0.2,0c0,0,0.2,0,0.2,0c0,0,0.4-0.3,0.2-0.4c-0.1-0.1-0.3-0.1-0.3-0.1c-0.1,0-0.2,0-0.2,0
							c0,0,0,0,0,0l0,0c0,0,0,0.1,0-0.2c0,0,0-0.1-0.1-0.2C89.9,84.5,89.7,84.5,89.6,84.6z"/>
					</g>
				</g>
			</g>
			<g>
				<g>
					<g>
						<path fill="#505B79" d="M90.5,83.6c-0.2,0.3-0.1,0.4-0.1,0.4c0,0.2,0.1,0.3-0.1,0.8l-0.1,0.2c0.3,0,0.8,0,0.9,0.1
							c0.1,0,0.2,0,0.3,0c0.1,0,0.3,0,0.3,0.1c0,0,0.5-0.2,0.3-0.4c-0.1-0.1-0.5-0.2-0.5-0.2c-0.3-0.1-0.6,0-0.5-0.1c0,0,0,0,0,0
							c0,0,0,0,0,0l0-0.4c0,0,0-0.2-0.1-0.3C90.8,83.5,90.6,83.5,90.5,83.6z"/>
					</g>
				</g>
			</g>
			<g>
				<g>
					<g>
						<path fill="#505B79" d="M91.4,82.6c-0.1,0.3,0,0.5,0,0.6c0,0.1,0,0.2,0,0.3c0,0.1,0,0.1,0,0.2c0,0.1-0.1,0.2-0.1,0.4l-0.1,0.3
							l0.7,0l0.2,0l0.2,0c0.1,0,0.3,0,0.4,0c0.1,0,0.3,0.1,0.4,0.1c0.1,0.1,0.5-0.2,0.3-0.4c-0.1-0.1-0.6-0.3-0.6-0.3
							c-0.2-0.1-0.4-0.1-0.5-0.1c-0.1,0-0.2,0-0.2,0c0,0,0,0,0,0c0,0,0,0,0,0c0,0,0,0,0,0c0,0,0,0.1,0-0.1c0-0.2,0-0.4,0-0.5
							c0,0,0-0.2-0.2-0.4C91.7,82.6,91.5,82.5,91.4,82.6z"/>
					</g>
				</g>
			</g>
		</g>
	</g>
	<g>
		<g>
			<g>
				<path fill="#505B79" d="M93.9,82.5c0-0.1,0-0.2,0-0.2c0-0.2,0.1-0.4,0.1-0.5c0-0.2,0.1-0.3,0.1-0.5l0-0.5c0-0.2-0.1-0.3,0-0.5
					c0-0.1,0.1-0.3,0.1-0.4c0-0.1-0.1-0.3-0.1-0.4c0-0.1,0-0.3,0-0.4c0-0.1,0-0.2,0-0.4c0-0.1,0-0.3-0.1-0.4c0-0.1,0-0.3,0-0.4
					c0-0.1,0-0.3,0-0.5c0-0.1,0-0.2-0.1-0.3c0-0.2,0-0.3,0-0.5h-0.5c0,0.1,0,0.2,0,0.5c0,0.1,0,0.2,0,0.4c0,0.2,0,0.5,0,0.5
					c0,0.1,0,0.3,0,0.4c0,0.1,0,0.3,0,0.4c0,0.1,0,0.3,0,0.4c0,0.1-0.1,0.3-0.1,0.4c0,0.2,0,0.3,0,0.5c0,0.2,0,0.3,0,0.5
					c0,0.2,0.1,0.3,0.1,0.5c0,0.2-0.1,0.3-0.1,0.5c0,0.1,0,0.2,0.1,0.4c0,0.1,0,0.1,0,0.2c0,0,0,0.3,0.1,0.4h0.5
					C93.9,82.6,93.9,82.5,93.9,82.5z"/>
			</g>
		</g>
		<g>
			<g>
				<g>
					<g>
						<path fill="#505B79" d="M94.4,77.4c0-0.3-0.1-0.3-0.2-0.4c-0.1-0.1-0.2-0.1-0.4-0.4c-0.1-0.1-0.1-0.2-0.2-0.3
							c-0.1,0.1-0.3,0.3-0.5,0.5c-0.1,0.1-0.1,0.1-0.1,0.2c0,0-0.1,0.2-0.1,0.2c0,0-0.1,0.5,0.1,0.5c0.1,0,0.4-0.2,0.4-0.2
							c0.2-0.1,0.2-0.2,0.2-0.2l0,0c0,0.1,0,0.1,0,0.1c0,0,0.2,0.1,0.2,0.2c0,0,0.1,0.1,0.2,0.1C94.3,77.6,94.5,77.6,94.4,77.4z"/>
					</g>
				</g>
			</g>
			<g>
				<g>
					<g>
						<path fill="#505B79" d="M94.8,79.1c-0.1-0.3-0.3-0.3-0.3-0.4c-0.1-0.1-0.2-0.1-0.2-0.2c-0.1-0.1-0.1-0.1-0.3-0.4l-0.3-0.5
							L93.4,78c-0.1,0.1-0.2,0.3-0.3,0.3c-0.1,0.1-0.2,0.2-0.2,0.3c0,0.1-0.2,0.2-0.3,0.2c0,0-0.2,0.5,0.1,0.5
							c0.2,0,0.5-0.2,0.6-0.3c0.1-0.1,0.2-0.2,0.3-0.3c0,0,0-0.1,0.1,0l0,0c0,0.1,0,0,0,0.1c0.1,0.1,0.3,0.2,0.4,0.3
							c0,0,0.2,0.1,0.4,0.1C94.7,79.3,94.8,79.2,94.8,79.1z"/>
					</g>
				</g>
			</g>
			<g>
				<g>
					<g>
						<path fill="#505B79" d="M95.2,80.7c-0.1-0.3-0.4-0.3-0.5-0.4c-0.1-0.1-0.2-0.2-0.3-0.3c0,0-0.1-0.1-0.1-0.2l-0.1-0.1L94,79.6
							l-0.4-0.6c-0.2,0.4-0.6,0.9-0.7,0.9c-0.1,0.1-0.2,0.3-0.3,0.3c-0.1,0.1-0.3,0.2-0.4,0.2c-0.1,0-0.2,0.5,0.1,0.5
							c0.2,0,0.7-0.3,0.7-0.3c0.2-0.1,0.3-0.3,0.4-0.4c0.1-0.1,0.1-0.1,0.1-0.1c0,0,0,0,0,0l0,0c0,0,0,0.1,0,0.1c0,0,0,0,0,0
							l0.1,0.1c0.2,0.2,0.3,0.3,0.5,0.4c0,0,0.2,0.1,0.5,0.2C95,80.9,95.2,80.9,95.2,80.7z"/>
					</g>
				</g>
			</g>
		</g>
	</g>
	<g>
		<g>
			<g>
				<path fill="#505B79" d="M98.3,76.3c0-0.1,0-0.2,0-0.2c0-0.3,0.1-0.7,0.1-0.8c0-0.3,0.1-0.6,0.1-0.8c0-0.3,0-0.5,0-0.8
					c0-0.3-0.1-0.5,0-0.8c0-0.2,0.1-0.4,0.1-0.6c0-0.2-0.1-0.4-0.1-0.7l0-0.7c0-0.2,0-0.4,0-0.6c0-0.2,0-0.5-0.1-0.7
					c0-0.2,0-0.5,0-0.7c0-0.1,0-0.5,0-0.8c0-0.2,0-0.4-0.1-0.5c0-0.2,0-0.3,0-0.5h-0.5c0,0.1,0,0.2,0,0.5c0,0.1,0,0.4,0,0.7
					c0,0.4,0,0.8,0,0.9c0,0.3,0,0.5,0,0.7c0,0.2,0,0.5,0,0.7c0,0.2,0,0.5,0,0.7c0,0.2-0.1,0.5-0.1,0.7c0,0.3,0,0.5,0,0.8
					c0,0.3,0,0.5,0,0.8c0,0.3,0.1,0.5,0.1,0.8c0,0.3-0.1,0.5-0.1,0.8c0,0.1,0,0.3,0.1,0.7c0,0.1,0,0.2,0.1,0.3c0,0.1,0,0.3,0.1,0.4
					h0.5C98.3,76.4,98.3,76.4,98.3,76.3z"/>
			</g>
		</g>
		<g>
			<g>
				<g>
					<g>
						<path fill="#505B79" d="M99.3,68.1c-0.1-0.3-0.2-0.4-0.3-0.4c-0.1-0.1-0.2-0.2-0.3-0.2c0,0-0.1-0.1-0.1-0.1
							c-0.1-0.1-0.1-0.1-0.2-0.2l-0.3-0.4c-0.2,0.2-0.4,0.4-0.6,0.6c-0.1,0.1-0.2,0.2-0.3,0.3c0,0.1-0.2,0.2-0.3,0.2
							c0,0-0.2,0.5,0.1,0.5c0.2,0,0.5-0.3,0.6-0.3c0.1-0.1,0.2-0.2,0.3-0.3c0.1-0.1,0.1-0.1,0.1-0.1c0,0,0,0,0,0l0,0
							c0,0,0,0.1,0,0.1c0,0,0,0,0,0l0.1,0.1l0.4,0.3c0,0,0.2,0.1,0.3,0.2C99.1,68.3,99.4,68.2,99.3,68.1z"/>
					</g>
				</g>
			</g>
			<g>
				<g>
					<g>
						<path fill="#505B79" d="M99.5,69.4c-0.1-0.3-0.3-0.4-0.4-0.4c-0.2-0.2-0.4-0.3-0.6-0.5L98.1,68c-0.2,0.2-0.4,0.4-0.6,0.5
							c-0.1,0.1-0.2,0.2-0.3,0.3c-0.1,0.1-0.3,0.2-0.4,0.2c-0.1,0-0.2,0.5,0.1,0.5c0.2,0,0.6-0.3,0.6-0.3c0.2-0.1,0.3-0.2,0.4-0.3
							c0.1-0.1,0.2-0.2,0.2-0.1l0,0c0,0,0,0,0,0.1c0,0,0.1,0.1,0.2,0.2l0.5,0.3c0,0,0.2,0.1,0.4,0.1C99.3,69.6,99.6,69.5,99.5,69.4z
							"/>
					</g>
				</g>
			</g>
			<g>
				<g>
					<g>
						<path fill="#505B79" d="M99.9,71.2c-0.1-0.3-0.5-0.4-0.6-0.5c-0.3-0.2-0.5-0.4-0.7-0.8l-0.5-0.7c-0.2,0.2-0.3,0.4-0.5,0.6
							l-0.3,0.3c-0.1,0.1-0.3,0.3-0.4,0.4c-0.1,0.1-0.4,0.3-0.5,0.3c-0.1,0-0.3,0.5,0.1,0.5c0.2,0,0.8-0.4,0.8-0.4
							c0.2-0.1,0.4-0.3,0.5-0.5c0.2-0.2,0.2-0.2,0.2-0.2l0,0c0,0,0,0.1,0,0.1c0,0,0.1,0.2,0.2,0.2c0.2,0.2,0.4,0.3,0.6,0.5
							c0,0,0.2,0.2,0.5,0.2C99.7,71.5,100,71.4,99.9,71.2z"/>
					</g>
				</g>
			</g>
			<g>
				<g>
					<g>
						<path fill="#505B79" d="M100.5,73.4c-0.1-0.2-0.3-0.2-0.4-0.3c-0.2-0.1-0.4-0.2-0.4-0.2c-0.4-0.3-0.7-0.6-1-1
							c-0.1-0.2-0.3-0.6-0.5-0.9c-0.2,0.3-0.4,0.7-0.6,0.9c-0.1,0.1-0.2,0.3-0.3,0.4c-0.2,0.2-0.4,0.4-0.6,0.6
							c-0.1,0.1-0.6,0.4-0.8,0.4c-0.2,0-0.4,0.5,0.1,0.5c0.3,0,1.1-0.4,1.1-0.5c0.3-0.2,0.5-0.4,0.7-0.6c0.1-0.1,0.2-0.2,0.3-0.3
							c0,0,0.1-0.1,0.1,0l0,0c0,0.1,0,0.1,0,0.1c0.1,0.1,0.2,0.3,0.3,0.4c0.2,0.2,0.5,0.5,0.8,0.7c0,0,0.3,0.2,0.7,0.3
							C100.3,73.6,100.6,73.5,100.5,73.4z"/>
					</g>
				</g>
			</g>
		</g>
	</g>
	<g>
		<g opacity="0.1">
			<path fill="#505B79" d="M80.8,87.2c0.6-0.4,1.8-0.6,2.2-0.7c0.1,0,0.1,0.1,0.1,0.1c-0.2,0.3-0.7,1.3-1.3,1.7
				c-0.4,0.2-0.9,0.2-1.2-0.1C80.4,87.9,80.5,87.5,80.8,87.2z"/>
			<path fill="#505B79" d="M79.9,88.2c0.2-0.1,0.4-0.1,0.6,0.1s0.1,0.4-0.1,0.5s-0.4,0.1-0.6-0.1C79.7,88.6,79.8,88.3,79.9,88.2z"/>
		</g>
		<g>
			<path fill="#505B79" d="M84.1,83.8c0,0.9-0.6,2.3-0.9,2.8c0,0.1-0.1,0.1-0.2,0c-0.2-0.5-0.9-1.8-0.9-2.8c0-0.6,0.4-1.1,1-1.1
				S84.1,83.2,84.1,83.8z"/>
			<circle fill="#505B79" cx="83.1" cy="82" r="0.5"/>
		</g>
	</g>
	<g>
		<g opacity="0.1">
			<path fill="#505B79" d="M23,64.3c0.6-0.4,1.8-0.6,2.2-0.7c0.1,0,0.1,0.1,0.1,0.1c-0.2,0.3-0.7,1.3-1.3,1.7
				c-0.4,0.2-0.9,0.2-1.2-0.1C22.6,65,22.7,64.5,23,64.3z"/>
			<path fill="#505B79" d="M22.1,65.3c0.2-0.1,0.4-0.1,0.6,0.1c0.1,0.2,0.1,0.4-0.1,0.5s-0.4,0.1-0.6-0.1S22,65.4,22.1,65.3z"/>
		</g>
		<g>
			<path fill="#505B79" d="M26.3,60.8c0,0.9-0.6,2.3-0.9,2.8c0,0.1-0.1,0.1-0.2,0c-0.2-0.5-0.9-1.8-0.9-2.8c0-0.6,0.4-1.1,1-1.1
				S26.3,60.2,26.3,60.8z"/>
			<circle fill="#505B79" cx="25.3" cy="59" r="0.5"/>
		</g>
	</g>
	<g>
		<g opacity="0.1">
			<path fill="#505B79" d="M19.3,58.5c0.6-0.4,1.8-0.6,2.2-0.7c0.1,0,0.1,0.1,0.1,0.1c-0.2,0.3-0.7,1.3-1.3,1.7
				c-0.4,0.2-0.9,0.2-1.2-0.1C18.9,59.2,18.9,58.7,19.3,58.5z"/>
			<path fill="#505B79" d="M18.4,59.5c0.2-0.1,0.4-0.1,0.6,0.1c0.1,0.2,0.1,0.4-0.1,0.5c-0.2,0.1-0.4,0.1-0.6-0.1
				C18.2,59.9,18.2,59.6,18.4,59.5z"/>
		</g>
		<g>
			<path fill="#505B79" d="M22.5,55.1c0,0.9-0.6,2.3-0.9,2.8c0,0.1-0.1,0.1-0.2,0c-0.2-0.5-0.9-1.8-0.9-2.8c0-0.6,0.4-1.1,1-1.1
				C22.1,54,22.5,54.5,22.5,55.1z"/>
			<circle fill="#505B79" cx="21.6" cy="53.3" r="0.5"/>
		</g>
	</g>
	<g>
		<g>
			<g opacity="0.1">
				<path fill="#505B79" d="M100.3,41.3c0.6-0.4,1.8-0.6,2.2-0.7c0.1,0,0.1,0.1,0.1,0.1c-0.2,0.3-0.7,1.3-1.3,1.7
					c-0.4,0.2-0.9,0.2-1.2-0.1C99.9,42,99.9,41.6,100.3,41.3z"/>
				<path fill="#505B79" d="M99.4,42.3c0.2-0.1,0.4-0.1,0.6,0.1s0.1,0.4-0.1,0.5c-0.2,0.1-0.4,0.1-0.6-0.1S99.2,42.4,99.4,42.3z"/>
			</g>
			<g>
				<path fill="#505B79" d="M103.5,37.9c0,0.9-0.6,2.3-0.9,2.8c0,0.1-0.1,0.1-0.2,0c-0.2-0.5-0.9-1.8-0.9-2.8c0-0.6,0.4-1.1,1-1.1
					C103.1,36.8,103.5,37.3,103.5,37.9z"/>
				<circle fill="#505B79" cx="102.6" cy="36.1" r="0.5"/>
			</g>
		</g>
	</g>
	<g>
		<g>
			<path fill="#505B79" d="M81,106.3c0.1-0.1,0.2-0.3,0.2-0.6c0-0.1,0.1-0.3,0.1-0.5c0-0.2,0.1-0.5-0.2-0.7
				c-0.3-0.2-0.6-0.3-0.9-0.5c-3.4-2-7.2-4.2-8.7-5.1c-7.7-4.5-14.1-8.2-21.7-12.6c-7.5-4.5-15.5-9-22.9-13.3
				c-3.7-2.1-8.7-4.9-12.4-7c-2-1.1-8.9-5.1-11.6-6.6c-0.9-0.5-1.7,0-0.3,0.8c2.7,1.6,12.8,7.4,13.9,8c9.2,5.4,16.3,9.3,25.3,14.7
				c9,5.4,18.4,10.6,27.4,15.9c0.4,0.2,5.9,3.4,10.6,6c0.2,0.1,0.5,0.3,0.7,0.4c0.1,0,0.1,0,0.1,0.3c0,0.2,0.1,0.4,0.1,0.6
				C80.8,106.3,80.9,106.4,81,106.3z"/>
		</g>
	</g>
	<g>
		<g>
			<path fill="#505B79" d="M181.4,48.2c-0.1,0.1-0.1,0.3-0.2,0.4c0,0.1-0.1,0.2-0.1,0.3c0,0.1,0,0.1-0.1,0.2l-0.1,0
				c0,0-0.1,0-0.2,0.1c-21.5,12.4-46.9,27-56.9,32.8c-8.3,4.8-16.3,9.4-24,13.9c-3.9,2.2-7.7,4.5-11.5,6.6c-1.9,1.1-3.8,2.2-5.6,3.2
				l-1.4,0.8l-0.2,0.1c0,0-0.1,0-0.1,0l-0.7-0.4c-0.9-0.5-1.8-1.1-2.8-1.6c-13.8-8-27.2-15.7-40.8-23.6c-6.8-3.9-13.6-7.9-20.6-11.9
				c-3.5-2-7-4-10.5-6.1c-0.9-0.5-1.8-1-2.7-1.5l-1.3-0.8l-0.5-0.3c0,0,0,0,0-0.1l0-0.3l0-1.5c0,0,0-0.1,0-0.1l0.2-0.1L1.9,58
				c0.9-0.5,1.8-1.1,2.7-1.6l3-1.8l3.1-1.8c2-1.2,4.1-2.3,6.1-3.5c4.1-2.4,8.2-4.7,12.3-7.1c8.2-4.7,16.4-9.5,24.7-14.2
				c8.2-4.7,16.5-9.5,24.7-14.2c4.1-2.4,8.2-4.7,12.3-7.1c2-1.2,4.1-2.3,6.1-3.5l3-1.8l0.8-0.4c0.1,0,0,0,0,0c0,0,0,0,0,0l0.2,0.1
				l1.5,0.9c13.3,7.7,26.1,15.1,38.7,22.3c6.1,3.5,12.9,7.4,20,11.5c3.5,2,7.1,4.1,10.7,6.2l5.4,3.1l2.7,1.5l0.5,0.3c0,0,0,0,0,0
				l-0.7,0.4c-11.5,6.6-22.6,13-32,18.4c-11.3,6.5-49.9,28.7-65,37.4c-0.9,0.5-0.9,1.4,0.5,0.6c15.7-9,73.6-42.3,79.6-45.7
				c4.4-2.5,8.8-5,13-7.5c1.1-0.6,2.1-1.2,3.2-1.8l1.6-0.9l0.5-0.3c0.2-0.1,0.5-0.3,0.6-0.4c0-0.1,0.1-0.1,0.1-0.2
				c0-0.1,0-0.2,0-0.3c-0.1-0.1-0.2-0.3-0.5-0.4c-2.2-1.3-4.3-2.5-6.5-3.7c-8.3-4.8-16.3-9.4-24.3-14c-15.9-9.2-31.5-18.2-47.6-27.4
				l-1.5-0.9l-0.2-0.1C101,0.1,100.8,0,100.7,0c-0.1,0-0.3,0-0.4,0c-0.1,0-0.2,0.1-0.3,0.1l-0.8,0.4c-1,0.6-2.1,1.2-3.1,1.8
				c-2.1,1.2-4.2,2.4-6.4,3.7c-4.3,2.5-8.6,5-13.1,7.6c-8.9,5.1-18.2,10.5-27.8,16C38.3,35.7,27.7,41.8,17,48l-8,4.6
				c-2.7,1.5-5.3,3.2-7.9,4.7l-0.5,0.3l-0.1,0.1c-0.1,0-0.2,0.1-0.2,0.1c-0.1,0.1-0.2,0.3-0.3,0.4c0,0.5,0,0.6,0,0.8l0,0.6l0,0.6
				l0,0.3c0,0.2,0,0.4,0.1,0.5c0.1,0.2,0.2,0.3,0.4,0.4l0.3,0.2l0.5,0.3l4,2.3l8,4.6C34.5,81,55.9,93.3,77.1,105.6l2.3,1.3l1.1,0.7
				c0.2,0.1,0.4,0.2,0.6,0.2c0.2,0,0.4-0.1,0.6-0.2l0.6-0.3c1.5-0.9,3-1.7,4.5-2.6c3-1.7,6-3.5,9-5.2c6-3.5,12-6.9,18-10.4
				c2.3-1.3,39-22.6,67.5-39.1c0.2-0.1,0.4-0.3,0.6-0.4c0-0.2,0-0.3,0-0.5c0-0.2,0-0.2,0-0.3c0-0.2-0.1-0.3-0.1-0.4
				C181.6,48.2,181.5,48.1,181.4,48.2z"/>
		</g>
	</g>
	<g>
		<g>
			<path fill="#505B79" d="M47.8,51.6c0.3,0.1,0.9-0.1,1.6-0.4c2.4-1.2,5.2-2.7,6.4-3.2c0.2-0.1,0.5-0.2,0.7-0.3
				c0.2-0.1,0.3-0.2,0.5-0.3c0.1-0.1,0.2-0.2,0.3-0.3c0.1-0.1,0.1-0.3,0-0.4c-0.1-0.1-0.1-0.2-0.2-0.3c-0.2-0.2-0.6-0.3-0.8-0.4
				c-2.2-1.1-4.4-1.5-6.7-1.8c-2.3-0.2-4.6-0.2-7,0.2c-2.8,0.5-5.8,1.5-8.1,3.5c-1.1,1-2.1,2.4-2.4,3.9c-0.3,1.6,0.2,3.2,1.1,4.4
				c0.9,1.2,2.2,2.3,3.7,3.1c1.5,0.8,3.1,1.3,4.4,1.6c0.9,0.2,2.9,0.6,5,0.6c1,0,2.1,0,3.1-0.1c0.4,0,0.7-0.1,1-0.1
				c1.1-0.2,1.3-1-0.2-0.8c-0.1,0-0.3,0-0.4,0c-0.1,0-0.2,0-0.3,0c-0.2,0-0.5,0-0.8,0.1c-1.1,0.1-2.4,0.1-3.7,0
				c-2.5-0.2-4.8-0.9-5.2-1.1c-1.6-0.6-3-1.3-4.2-2.2c-1.2-0.9-2.1-2.1-2.5-3.4c-0.4-1.3,0-2.8,0.8-4c0.9-1.2,2.1-2.1,3.6-2.9
				c3-1.4,6.4-2,9.7-2c1.7,0,3.4,0.2,5,0.6c0.8,0.2,1.6,0.4,2.4,0.7c0.4,0.2,0.8,0.3,1.1,0.5l0.1,0.1l0,0l0,0l0,0
				c-0.1,0-0.9,0.5-2,1c-1.4,0.8-3.2,1.7-4.8,2.6C48.2,51,47.5,51.5,47.8,51.6z"/>
		</g>
	</g>
	<g>
		<g>
			<path fill="#505B79" d="M47,49.3c-0.2,0.3-0.3,0.9-0.4,1.6c0,0.3,0,0.5,0,0.8l0,0.2c0,0.1,0,0.2,0,0.3c0.1,0.2,0.2,0.3,0.2,0.4
				c0.4,0.7,0.8,1.3,1,1.7c0.7,1.2,1.4,2.3,2.1,3.4c0.3,0.5,0.7,1.1,1,1.6c0.2,0.3,0.3,0.6,0.5,0.8l0.2,0.3c0.1,0.1,0.2,0.3,0.3,0.3
				c0.2,0.2,0.6,0.1,0.8,0c0.1,0,0.2,0,0.3-0.1c1.4-0.3,2.8-0.8,4.2-1.5c1.3-0.7,2.6-1.7,3.4-2.9c0.4-0.6,0.9-1.4,1-2.3
				c0.2-0.9,0.2-1.8,0-2.5c0-0.2-0.1-0.5-0.2-0.8c-0.1-0.3-0.3-0.7-0.5-1c-0.4-0.7-1-1.4-1.5-1.8c-0.3-0.3-0.5-0.5-0.7-0.6
				c-0.9-0.7-1.7-0.2-0.4,0.7c0.1,0.1,0.3,0.2,0.5,0.5c0.5,0.5,1.2,1.3,1.6,2.2c0.4,0.9,0.4,1.7,0.4,1.8c0,0.8-0.2,1.5-0.5,2.2
				c-0.1,0.3-0.4,0.6-0.5,0.9c-0.2,0.3-0.4,0.6-0.7,0.8c-1,1-2.2,1.8-3.8,2.4c-0.9,0.3-1.9,0.6-2.8,0.8c-0.1,0-0.1,0-0.1,0l0,0
				l0-0.1L51.9,59l-1-1.5c-0.6-1-1.3-2-1.9-3.1c-0.1-0.1-0.7-1.1-1.4-2.2c-0.2-0.4-0.1,0-0.2-0.5c0-0.3,0-0.5,0-0.8
				C47.3,49.9,47.2,49.1,47,49.3z"/>
		</g>
	</g>
	<g>
		<g>
			<path fill="#505B79" d="M85,73.4c-0.3,0-0.9,0.2-1.5,0.6c-2.7,1.5-6.3,2.1-7.7,2.2c-3.2,0.3-6.3,0-9.1-0.9c-1.4-0.4-2.8-1-4-1.9
				c-1.2-0.8-2.4-1.9-3-3.3c-0.6-1.4-0.6-3,0.2-4.3c0.8-1.3,2-2.4,3.4-3.2c2.8-1.6,6.1-2.2,9.2-2.3c1.5-0.1,3.4,0,5.2,0.3
				c0.4,0.1,0.9,0.2,1.3,0.3c0.4,0.1,0.9,0.2,1.3,0.4c0.4,0.1,0.8,0.3,1.2,0.4c0.2,0.1,0.4,0.1,0.6,0.2c0.1,0.1,0.3,0.1,0.4,0.2
				c0,0,0,0,0.1,0c0,0,0.1,0,0,0.1c0,0-0.1,0-0.1,0.1c-1.6,0.9-5.7,3-7.4,4c-1,0.5-1,1.4,0.5,0.7c1.5-0.8,6.1-3.2,7.8-4
				c0.3-0.1,0.4-0.3,0.5-0.4c0.1-0.1,0.1-0.4,0-0.5c-0.1-0.1-0.1-0.2-0.3-0.3c-0.2-0.1-0.4-0.2-0.5-0.3c-0.2-0.1-0.4-0.2-0.6-0.3
				c-0.2-0.1-0.3-0.1-0.5-0.2c-0.5-0.2-0.8-0.3-0.9-0.4c-3.8-1.3-7.5-1.5-11-1c-1.8,0.2-3.5,0.7-5.2,1.3c-1.7,0.7-3.4,1.6-4.8,3.1
				c-0.7,0.8-1.3,1.7-1.5,2.7c-0.3,1-0.2,2.2,0.1,3.2c0.7,2.1,2.4,3.5,4.2,4.6c3.6,2,7.7,2.7,11.7,2.6c0.2,0,1.6,0,3.5-0.4
				c1.9-0.3,4.2-1.1,6.1-2.2C84.7,74,85.3,73.4,85,73.4z"/>
		</g>
	</g>
	<g>
		<g>
			<path fill="#505B79" d="M73.3,65c-0.2,0.3-0.3,0.9-0.4,1.6c0,0.1,0,0.3,0,0.4l0,0.5c0,0.2,0.1,0.4,0.3,0.5
				c0.2,0.1,0.3,0.1,0.5,0.2c0.5,0.2,0.9,0.3,1.2,0.4c2.2,0.9,4.1,1.5,6.3,2.4c0.8,0.3,1.7,0.7,2.5,1l1.3,0.5l0.7,0.2
				c0.4,0.2,0.9,0.1,1.1-0.3c0.3-0.3,0.4-0.5,0.6-0.8c0.2-0.2,0.3-0.5,0.5-0.8c0.3-0.6,0.5-1.3,0.6-2c0.1-0.7,0-1.5-0.2-2.1
				c-0.1-0.3-0.3-0.9-0.7-1.4c-0.4-0.6-0.8-1.1-1.2-1.5c-0.3-0.3-0.5-0.5-0.7-0.6c-0.9-0.7-1.6-0.3-0.4,0.7c0.1,0.1,0.3,0.2,0.5,0.5
				c0.4,0.4,1,1.1,1.3,1.8c0.3,0.7,0.4,1.3,0.4,1.5c0.1,1.5-0.4,2.9-1.3,4c0,0.1-0.1,0.1-0.2,0c-0.2-0.1-0.5-0.2-0.7-0.3
				c-0.5-0.2-1-0.4-1.5-0.6c-2.6-1.1-5.3-1.9-7.9-2.9c-0.1,0-0.5-0.2-1.2-0.4c-0.2-0.1-0.3-0.1-0.5-0.2l-0.2-0.1l0,0c0,0,0,0,0,0
				l0,0l0-0.1c0-0.2,0-0.4,0-0.6C73.6,65.6,73.5,64.8,73.3,65z"/>
		</g>
	</g>
	<g>
		<g>
			<path fill="#505B79" d="M100.5,32.4c0.2-0.3,0.3-0.9,0.4-1.6c0.1-1,0.1-2.3,0.1-2.7c0-0.6,0-1.1,0-1.6c0-0.3,0-0.5,0-0.8
				c0-0.2,0-0.4-0.2-0.6c-0.1-0.1-0.2-0.1-0.3-0.2l-0.2-0.1c-0.9-0.5-1.7-1-2.7-1.6c-1.8-1.2-3.8-2.3-5.7-3.4
				c-0.9-0.5-2.2-1.2-3.1-1.7c-0.5-0.3-1.8-1-2.7-1.5c-0.3-0.2-0.6-0.3-0.8-0.4c-0.9-0.5-1.7,0-0.3,0.8c0.1,0.1,0.3,0.2,0.7,0.4
				c1,0.6,3,1.8,3.3,1.9c2.2,1.4,4.1,2.2,6.3,3.7c1.1,0.7,2.2,1.4,3.4,2l0.9,0.5l0.4,0.2c0.1,0,0,0,0,0c0,0.6,0,1.2,0,1.8
				c0,0.1,0,1.9,0.1,3.3C100.1,31.8,100.3,32.6,100.5,32.4z"/>
		</g>
	</g>
	<g>
		<g>
			<g>
				<path fill="#505B79" d="M104.6,15.4c-0.5,0.1-0.8,1.1-0.9,1.4c-0.4,0.7-0.6,1.4-0.9,2.1c-0.4,0.7-0.7,1.5-1,2.3
					c-0.1,0.4-0.3,0.9-0.4,1.3c-0.1,0.2-0.4,1.1-0.5,1.4c-0.2,0.4,0.4,0.8,0.6,0.2c0.1-0.3,0.6-1.5,0.6-1.6c0.4-0.9,0.6-1.7,1.1-2.5
					c0.5-0.9,0.7-1.8,1.1-2.7C104.3,17.1,105,15.3,104.6,15.4z"/>
			</g>
		</g>
	</g>
	<g>
		<g>
			<path fill="#505B79" d="M88.5,28c-0.1-0.3-0.6-0.7-1.2-1.1c-0.8-0.5-1.7-1-2.5-1.5c-0.4-0.2-1-0.5-0.9-0.6c0-0.4,0-0.9,0-1.3
				c0-1.8,0-3.4,0-4.3c0-1,0-2,0-3l0-0.2c0,0,0-0.1,0.1-0.1l0.5-0.1c0.5-0.1,1-0.1,1.4-0.2c1.9-0.2,3.7-0.5,5.6-0.7
				c3.7-0.5,7.4-0.9,11.4-1.4l1.6-0.2l0.7-0.1c0,0,0.1,0,0.1,0c0,1,0,1.9,0,2.9l0,3.2l0,1.6l0,0.8c0,0.1,0,0.3,0,0.3l-0.1,0.3
				c-1.5,3.6-2.9,7.2-4.3,10.7c-0.1,0.3-0.3,0.7-0.4,1c0,0.1,0,0,0,0c-2.9-1.7-6.5-3.7-9.3-5.2c-0.2-0.2-0.8-0.4-0.7-0.4
				c0-0.5,0-1,0-1.5c0-0.6,0-1.3,0-2c0-0.8,0-1.1,0.5-1c0.5,0.2,1,0.7,1.2,1.3c0.1,0.3,0.2,0.6,0.2,0.9c0,0.3,0,0.7,0,1
				c0,0.4,0,0.7,0,1c0,1.1,0.8,1.5,0.8-0.1c0-0.4,0-1,0-1.8c0-0.2,0-0.4,0-0.7c0-0.2-0.1-0.5-0.2-0.7c-0.2-0.5-0.5-0.9-0.9-1.2
				c-0.2-0.2-0.4-0.3-0.7-0.4c-0.3-0.1-0.6-0.2-1,0c-0.8,0.4-0.7,1.3-0.7,1.6c0,0.9,0,1.8,0,2.6c0,0.2,0,0.4,0,0.6
				c0,0.2,0,0.3,0,0.7c0,0.2,0.1,0.3,0.2,0.4c0.1,0.1,0.3,0.2,0.4,0.2c0.2,0.1,0.3,0.2,0.5,0.3c1.2,0.7,2,1.2,2.3,1.3
				c2.5,1.5,4.9,2.8,7,4c0.2,0.1,0.5,0.3,0.7,0.3c0.2,0,0.5-0.1,0.6-0.3c0.1-0.1,0.1-0.2,0.2-0.3l0.1-0.3l0.2-0.4
				c0.2-0.5,0.4-1.1,0.6-1.6c0.4-1.1,0.8-2.1,1.3-3.2c0.8-2.1,1.7-4.2,2.6-6.5l0.1-0.3c0-0.1,0.1-0.3,0.1-0.4c0-0.2,0-0.4,0-0.6
				c0-0.4,0-0.8,0-1.2c0-0.8,0-1.6,0-2.5c0-1.2,0-2.4,0-3.6l0-1c0-0.3,0-0.6-0.2-0.8c-0.2-0.2-0.4-0.3-0.7-0.3l-2,0.3
				c-2.4,0.3-4.8,0.6-7.2,1c-2.4,0.3-4.8,0.6-7.2,1c-1.2,0.2-2.4,0.3-3.6,0.5l-0.9,0.1L84,15l-0.4,0c-0.2,0-0.3,0.1-0.4,0.1
				c-0.5,0.3-0.3,1.1-0.3,1.3l0,0.9c0,0.2,0,1.9,0,4.2c0,0.6,0,1.2,0,1.8c0,0.3,0,0.6,0,1l0,0.6c0,0.3,0.2,0.6,0.5,0.7
				c1.2,0.7,2.4,1.3,3.5,1.9C87.8,28,88.6,28.3,88.5,28z"/>
		</g>
	</g>
</g>
<g>
</g>
<g>
</g>
<g>
</g>
<g>
</g>
<g>
</g>
<g>
</g>
</svg>
