<?xml version="1.0" encoding="UTF-8" standalone="no"?>
<svg width="282px" height="62px" viewBox="0 0 282 62" version="1.1" xmlns="http://www.w3.org/2000/svg" xmlns:xlink="http://www.w3.org/1999/xlink" xmlns:sketch="http://www.bohemiancoding.com/sketch/ns">
    <!-- Generator: Sketch 3.3.3 (12081) - http://www.bohemiancoding.com/sketch -->
    <title>logo + Shape</title>
    <desc>Created with Sketch.</desc>
    <defs></defs>
    <g id="Page-1" stroke="none" stroke-width="1" fill="none" fill-rule="evenodd" sketch:type="MSPage">
        <g id="logo-+-Shape" sketch:type="MSLayerGroup" fill="#43413E">
            <g id="logo" transform="translate(56.076923, 15.500000)" sketch:type="MSShapeGroup">
                <g id="Page-1">
                    <g id="Shape-+-OCEAN-04">
                        <g id="OCEAN-04">
                            <path d="M14.3846154,29.5275 C22.6923077,29.5275 28.7307692,23.21125 28.7307692,15.5 L28.7307692,15.4225 C28.7307692,7.71125 22.7692308,1.4725 14.4615385,1.4725 C6.15384615,1.4725 0.115384615,7.78875 0.115384615,15.5 L0.115384615,15.5775 C0.115384615,23.28875 6.07692308,29.5275 14.3846154,29.5275 L14.3846154,29.5275 L14.3846154,29.5275 Z M14.4615385,24.025 C9.69230769,24.025 6.30769231,20.15 6.30769231,15.5 L6.30769231,15.4225 C6.30769231,10.7725 9.61538462,6.975 14.3846154,6.975 C19.1538462,6.975 22.5384615,10.85 22.5384615,15.5 L22.5384615,15.5775 C22.5384615,20.2275 19.2307692,24.025 14.4615385,24.025 L14.4615385,24.025 L14.4615385,24.025 Z M48.7884615,29.5275 C53.9807692,29.5275 57.0576923,27.6675 59.8269231,24.68375 L56.0576923,20.8475 C53.9423077,22.785 52.0576923,24.025 48.9807692,24.025 C44.3653846,24.025 41.1730769,20.15 41.1730769,15.5 L41.1730769,15.4225 C41.1730769,10.7725 44.4423077,6.975 48.9807692,6.975 C51.6730769,6.975 53.7884615,8.1375 55.8653846,10.03625 L59.6346154,5.6575 C57.1346154,3.1775 54.0961538,1.4725 49.0192308,1.4725 C40.75,1.4725 34.9807692,7.78875 34.9807692,15.5 L34.9807692,15.5775 C34.9807692,23.36625 40.8653846,29.5275 48.7884615,29.5275 L48.7884615,29.5275 L48.7884615,29.5275 Z M66.7307692,29.0625 L87.2307692,29.0625 L87.2307692,23.75375 L72.6153846,23.75375 L72.6153846,18.0575 L85.3076923,18.0575 L85.3076923,12.74875 L72.6153846,12.74875 L72.6153846,7.24625 L87.0384615,7.24625 L87.0384615,1.9375 L66.7307692,1.9375 L66.7307692,29.0625 L66.7307692,29.0625 Z M92.3653846,29.0625 L98.4038462,29.0625 L100.865385,22.97875 L112.25,22.97875 L114.711538,29.0625 L120.903846,29.0625 L109.365385,1.74375 L103.903846,1.74375 L92.3653846,29.0625 L92.3653846,29.0625 Z M102.980769,17.70875 L106.557692,8.9125 L110.134615,17.70875 L102.980769,17.70875 L102.980769,17.70875 Z M127.230769,29.0625 L133.076923,29.0625 L133.076923,11.81875 L146.115385,29.0625 L151.153846,29.0625 L151.153846,1.9375 L145.307692,1.9375 L145.307692,18.63875 L132.692308,1.9375 L127.230769,1.9375 L127.230769,29.0625 L127.230769,29.0625 Z M184.269231,29.5275 C191.461538,29.5275 196.269231,23.36625 196.269231,15.5 L196.269231,15.4225 C196.269231,7.55625 191.461538,1.4725 184.346154,1.4725 C177.192308,1.4725 172.346154,7.63375 172.346154,15.5 L172.346154,15.5775 C172.346154,23.44375 177.076923,29.5275 184.269231,29.5275 L184.269231,29.5275 L184.269231,29.5275 Z M184.346154,24.14125 C180.769231,24.14125 178.423077,20.46 178.423077,15.5 L178.423077,15.4225 C178.423077,10.4625 180.730769,6.85875 184.269231,6.85875 C187.807692,6.85875 190.192308,10.57875 190.192308,15.5 L190.192308,15.5775 C190.192308,20.49875 187.923077,24.14125 184.346154,24.14125 L184.346154,24.14125 L184.346154,24.14125 Z M215.826923,29.0625 L221.480769,29.0625 L221.480769,23.21125 L225.096154,23.21125 L225.096154,18.3675 L221.480769,18.3675 L221.480769,1.74375 L216.480769,1.74375 L201.711538,18.9875 L202.673077,23.21125 L215.826923,23.21125 L215.826923,29.0625 L215.826923,29.0625 Z M208.673077,18.3675 L215.826923,9.92 L215.826923,18.3675 L208.673077,18.3675 L208.673077,18.3675 Z" id="Shape"></path>
                        </g>
                    </g>
                </g>
            </g>
            <path d="M29.4230769,28.771875 C29.4230769,30.515625 29.2307692,32.259375 30,33.809375 L30,33.809375 C30.7692308,35.359375 31.9230769,36.715625 33.4615385,37.490625 C33.4615385,37.490625 35,39.234375 34.6153846,41.559375 C34.4230769,42.528125 34.4230769,43.496875 34.2307692,44.465625 L32.6923077,55.703125 L32.6923077,57.059375 C32.6923077,57.640625 32.8846154,58.221875 33.0769231,58.996875 C33.6538462,60.740625 35.1923077,61.709375 36.9230769,61.709375 C38.8461538,61.709375 40.5769231,60.353125 41.1538462,58.221875 L41.1538462,57.446875 L41.1538462,57.253125 L40.9615385,52.796875 L39.6153846,37.878125 C39.4230769,34.971875 39.2307692,29.740625 39.2307692,28.384375 L39.0384615,18.696875 L39.0384615,18.309375 L39.0384615,0.871875 L38.8461538,0.678125 C38.2692308,0.484375 37.1153846,0.290625 36.5384615,0.290625 C33.4615385,0.290625 30.3846154,2.421875 29.6153846,5.521875 C29.0384615,7.653125 29.4230769,9.784375 29.4230769,11.915625 L29.4230769,17.340625 L29.4230769,18.503125 L29.4230769,22.184375 L29.4230769,28.771875 L29.4230769,28.771875 L29.4230769,28.771875 Z M37.1153846,45.240625 L37.1153846,45.240625 L37.3076923,45.240625 L37.6923077,56.865625 L37.6923077,57.059375 C37.6923077,57.640625 37.3076923,58.028125 36.7307692,58.028125 C36.1538462,58.028125 35.7692308,57.640625 35.7692308,57.059375 L37.1153846,45.240625 L37.1153846,45.240625 Z M35.5769231,4.553125 L35.7692308,4.553125 L35.7692308,4.746875 L35.7692308,15.015625 L36.1538462,32.065625 C36.1538462,33.034375 35.3846154,33.809375 34.4230769,33.809375 C33.4615385,33.809375 32.8846154,33.228125 32.6923077,32.065625 L32.6923077,28.384375 L32.6923077,21.990625 L32.6923077,10.559375 L32.6923077,9.396875 C32.6923077,9.203125 32.3076923,5.521875 35.5769231,4.553125 L35.5769231,4.553125 L35.5769231,4.553125 Z M6.15384615,23.153125 C5.96153846,25.478125 5.76923077,27.803125 5.57692308,30.128125 C5.38461538,32.646875 5.19230769,35.165625 4.80769231,37.878125 C4.61538462,40.203125 4.42307692,42.528125 4.23076923,44.853125 C4.03846154,46.403125 3.84615385,47.953125 3.84615385,49.503125 C3.65384615,51.246875 3.65384615,52.990625 3.46153846,54.734375 C3.26923077,56.478125 3.07692308,58.221875 4.23076923,59.578125 C5.19230769,60.740625 6.53846154,61.709375 8.07692308,61.709375 C9.42307692,61.709375 10.7692308,61.128125 11.7307692,59.965625 C12.8846154,58.803125 12.8846154,57.253125 12.8846154,55.703125 C12.8846154,53.765625 12.6923077,51.828125 12.5,49.890625 C12.3076923,48.728125 12.3076923,47.565625 12.1153846,46.596875 C12.1153846,45.628125 11.9230769,44.659375 11.9230769,43.690625 C11.5384615,39.234375 10.9615385,34.584375 10.5769231,30.128125 C10.3846154,28.965625 10.3846154,27.609375 10.1923077,26.446875 C10.1923077,26.253125 9.80769231,23.153125 10,23.153125 C12.8846154,22.378125 14.6153846,19.665625 15,16.759375 L15,16.178125 C15,12.109375 15,7.846875 14.8076923,3.778125 L14.8076923,2.228125 C14.8076923,1.840625 14.6153846,1.646875 14.4230769,1.646875 L12.1153846,1.646875 C11.9230769,1.646875 11.7307692,1.840625 11.7307692,2.228125 L11.5384615,17.340625 C11.3461538,17.921875 10.9615385,17.921875 10.5769231,17.921875 L10.1923077,17.728125 C9.80769231,17.534375 9.80769231,16.953125 9.80769231,16.759375 L9.80769231,16.565625 L9.61538462,2.228125 C9.61538462,1.840625 9.42307692,1.646875 9.23076923,1.646875 L6.92307692,1.646875 C6.73076923,1.646875 6.53846154,1.840625 6.53846154,2.228125 L6.34615385,17.340625 C6.15384615,17.921875 5.76923077,17.921875 5.38461538,17.921875 C5,17.921875 4.80769231,17.728125 4.42307692,17.340625 L4.23076923,2.228125 C4.23076923,1.840625 4.03846154,1.646875 3.84615385,1.646875 L1.53846154,1.646875 C1.34615385,1.646875 1.15384615,1.840625 1.15384615,2.228125 L0.961538462,16.759375 L0.961538462,16.953125 C0.961538462,17.728125 1.15384615,18.503125 1.53846154,19.084375 C2.5,21.021875 4.23076923,22.571875 6.15384615,23.153125 L6.15384615,23.153125 L6.15384615,23.153125 Z M8.07692308,37.490625 L8.07692308,37.490625 L8.26923077,37.490625 L9.42307692,56.478125 L9.42307692,56.865625 C9.42307692,57.640625 9.03846154,58.415625 8.26923077,58.415625 C7.69230769,58.415625 7.11538462,57.834375 7.11538462,57.059375 L8.07692308,37.490625 L8.07692308,37.490625 Z" id="Shape" sketch:type="MSShapeGroup"></path>
        </g>
    </g>
</svg>