<?xml version="1.0" encoding="UTF-8" ?>
<!DOCTYPE svg PUBLIC "-//W3C//DTD SVG 1.1//EN" "http://www.w3.org/Graphics/SVG/1.1/DTD/svg11.dtd">
<svg width="512pt" height="512pt" viewBox="0 0 512 512" version="1.1" xmlns="http://www.w3.org/2000/svg">
<path fill="#007ee5" d=" M 150.42 118.09 C 192.62 118.26 234.81 118.19 277.01 118.21 C 284.68 118.26 292.39 117.91 300.00 119.09 C 319.39 121.71 337.83 130.59 351.98 144.11 C 372.16 162.88 383.90 189.74 386.28 217.02 C 388.25 238.44 384.62 260.82 373.31 279.36 C 364.67 293.95 351.58 305.51 336.76 313.58 C 357.48 341.54 377.74 369.84 398.43 397.82 C 370.31 397.69 342.18 397.64 314.07 397.76 C 298.76 374.52 283.36 351.34 268.05 328.10 C 251.66 328.14 235.28 328.06 218.89 328.14 C 218.93 351.33 218.75 374.53 218.92 397.72 C 196.12 397.73 173.32 397.61 150.52 397.86 C 150.51 346.45 150.46 295.05 150.49 243.64 C 134.11 246.28 117.74 250.72 103.31 259.12 C 94.19 264.29 85.52 271.45 81.52 281.41 C 78.46 288.88 80.12 297.74 85.06 304.00 C 92.39 313.40 103.52 318.80 114.60 322.47 C 122.18 325.06 130.17 325.97 138.01 327.44 C 124.75 327.70 111.31 325.79 98.82 321.28 C 88.04 317.14 77.59 310.00 72.70 299.18 C 68.21 289.46 69.55 277.86 74.70 268.67 C 82.68 254.04 96.60 243.79 111.04 236.10 C 123.47 229.45 136.88 224.84 150.47 221.22 C 150.43 186.85 150.42 152.47 150.42 118.09 Z" />
<path fill="#ffffff" d=" M 293.41 159.07 C 293.79 155.48 296.91 153.27 299.68 151.47 C 297.58 154.70 295.83 159.10 298.57 162.53 C 300.84 166.28 305.62 166.43 309.40 165.34 C 307.54 166.97 305.53 168.77 302.92 168.93 C 297.60 169.61 292.38 164.43 293.41 159.07 Z" />
<path fill="#ffffff" d=" M 211.52 197.37 C 221.26 191.67 232.29 186.43 243.88 187.57 C 252.86 188.45 260.30 195.18 263.46 203.43 C 276.15 201.19 289.94 202.98 300.80 210.23 C 307.13 214.30 312.12 220.17 315.82 226.67 C 311.04 234.72 304.34 241.86 295.70 245.77 C 285.84 250.69 274.45 251.46 263.68 249.87 C 261.23 253.94 259.07 258.41 254.99 261.15 C 247.13 267.22 236.27 266.42 227.36 263.38 C 221.36 261.17 215.39 258.56 210.20 254.79 C 208.28 253.60 209.19 250.75 211.16 250.26 C 215.34 249.55 219.71 251.43 223.81 249.88 C 228.58 248.39 231.44 243.96 233.66 239.78 C 230.94 238.38 228.24 236.95 225.62 235.36 C 225.70 233.02 225.76 230.69 225.81 228.36 C 221.93 227.94 217.99 228.04 214.16 227.29 C 213.95 226.88 213.53 226.04 213.33 225.63 C 217.48 225.34 221.64 225.05 225.79 224.74 C 225.76 222.40 225.72 220.07 225.66 217.74 C 228.29 216.19 230.99 214.75 233.67 213.30 C 231.39 209.15 228.62 204.66 223.79 203.24 C 219.45 201.41 214.66 204.27 210.38 202.52 C 208.06 200.99 209.45 198.29 211.52 197.37 Z" />
</svg>
