<?xml version="1.0" encoding="UTF-8" standalone="no"?>
<svg width="523px" height="62px" viewBox="0 0 523 62" version="1.1" xmlns="http://www.w3.org/2000/svg" xmlns:xlink="http://www.w3.org/1999/xlink" xmlns:sketch="http://www.bohemiancoding.com/sketch/ns">
    <!-- Generator: Sketch 3.4.4 (17249) - http://www.bohemiancoding.com/sketch -->
    <title>Group</title>
    <desc>Created with Sketch.</desc>
    <defs></defs>
    <g id="Page-1" stroke="none" stroke-width="1" fill="none" fill-rule="evenodd" sketch:type="MSPage">
        <g id="Rocket04_logo_final-2" sketch:type="MSLayerGroup" transform="translate(-63.000000, -2178.000000)" fill="#42413E">
            <g id="g10" transform="translate(1437.000000, 1579.633300) scale(1, -1) translate(-1437.000000, -1579.633300) translate(0.000000, 0.133300)" sketch:type="MSShapeGroup">
                <g id="g12">
                    <g id="g14">
                        <g id="g16-Clipped">
                            <g id="g16">
                                <g id="Group" transform="translate(63.000000, 919.000000)">
                                    <path d="M29.000725,32.0943813 C36.120535,32.0943813 39.3198955,33.853502 39.3198955,40.5734726 C39.3198955,47.4527761 36.2802984,49.21405 28.8401003,49.21405 L13.5602954,49.21405 L13.5602954,32.0943813 L29.000725,32.0943813 Z M26.8409037,20.8140462 L13.5602954,20.8140462 L13.5602954,1.13428612 L0.760915331,1.13428612 L0.760915331,60.4125655 L29.4003491,60.4125655 C48.0401393,60.4125655 52.5188996,52.4136258 52.5188996,41.0536243 C52.5188996,32.8931987 49.8795724,25.3744107 40.0399077,22.2523481 L51.8006098,1.13428612 L37.7999893,1.13428612 L26.8409037,20.8140462 L26.8409037,20.8140462 Z" id="path66"></path>
                                    <path d="M116.039954,30.5721066 C116.039954,42.1732606 111.479805,49.3733828 97.8796699,49.3733828 C84.2810418,49.3733828 79.7217539,42.1732606 79.7217539,30.5721066 C79.7217539,18.9731058 84.2810418,11.6933171 97.8796699,11.6933171 C111.479805,11.6933171 116.039954,18.9731058 116.039954,30.5721066 L116.039954,30.5721066 Z M66.5218886,30.813259 C66.5218886,53.0531104 79.0017416,61.3728689 97.8796699,61.3728689 C116.759967,61.3728689 129.31884,53.0531104 129.31884,30.813259 C129.31884,8.49374124 116.759967,0.173982727 97.8796699,0.173982727 C79.0017416,0.173982727 66.5218886,8.49374124 66.5218886,30.813259 L66.5218886,30.813259 Z" id="path68"></path>
                                    <path d="M143.56169,30.813259 C143.56169,52.092807 155.161121,61.3728689 174.840881,61.3728689 C185.638911,61.3728689 192.520368,58.4941119 198.118549,52.8141111 L189.07964,43.7730485 C185.479579,47.2934432 181.240033,49.3733828 174.761215,49.3733828 C162.120091,49.3733828 156.760909,42.9742311 156.760909,30.6539262 C156.760909,18.7341065 161.241607,11.9323164 174.840881,11.9323164 C182.521155,11.9323164 186.200883,14.4924077 189.88061,17.933136 L198.519034,9.45404463 C193.799337,4.57286126 187.479852,0.253649152 174.042064,0.253649152 C151.881448,0.253649152 143.56169,11.2131654 143.56169,30.813259" id="path70"></path>
                                    <path d="M237.639555,26.9741986 L229.237977,17.0546522 L229.237977,1.13428612 L216.280341,1.13428612 L216.280341,60.4125655 L229.237977,60.4125655 L229.237977,33.6145028 L251.718981,60.4125655 L266.196739,60.4125655 L246.118647,36.9734115 L269.077649,1.13428612 L254.279072,1.13428612 L237.639555,26.9741986" id="path72"></path>
                                    <path d="M285.878652,60.4125655 L330.438021,60.4125655 L330.438021,48.5745654 L298.999927,48.5745654 L298.999927,34.3874824 L329.639204,34.3874824 L329.639204,22.9478145 L298.999927,22.9478145 L298.999927,12.4942876 L330.75884,12.4942876 L330.75884,1.13428612 L285.878652,1.13428612 L285.878652,60.4125655" id="path74"></path>
                                    <path d="M365.398663,48.5745654 L344.838266,48.5745654 L344.838266,60.4125655 L399.076029,60.4125655 L399.076029,48.5745654 L378.599605,48.5745654 L378.599605,1.13428612 L365.398663,1.13428612 L365.398663,48.5745654" id="path76"></path>
                                    <path d="M452.837947,30.813259 C452.837947,43.3725632 450.277855,49.933201 439.95567,49.933201 C429.558125,49.933201 426.918368,43.3725632 426.918368,30.813259 C426.918368,18.3336213 429.558125,11.133499 439.95567,11.133499 C450.277855,11.133499 452.837947,18.3336213 452.837947,30.813259 L452.837947,30.813259 Z M413.956425,30.813259 C413.956425,50.8138379 420.917548,61.3728689 439.95567,61.3728689 C458.67728,61.3728689 465.795583,50.8138379 465.795583,30.813259 C465.795583,10.8944997 458.67728,0.253649152 439.95567,0.253649152 C420.917548,0.253649152 413.956425,10.8944997 413.956425,30.813259 L413.956425,30.813259 Z" id="path78"></path>
                                    <path d="M470.810261,22.6528334 L496.809507,60.4125655 L510.249448,60.4125655 L484.568868,23.3741375 L501.208385,23.3741375 L503.77063,40.2526538 L512.568387,40.2526538 L512.568387,23.3741375 L522.007782,23.3741375 L522.007782,13.293105 L512.568387,13.293105 L512.568387,1.13428612 L501.049052,1.13428612 L501.049052,13.293105 L470.810261,13.293105 L470.810261,22.6528334" id="path80"></path>
                                </g>
                            </g>
                        </g>
                    </g>
                </g>
            </g>
        </g>
    </g>
</svg>